<?xml version="1.0" standalone="no"?>
<!DOCTYPE svg PUBLIC "-//W3C//DTD SVG 1.1//EN" "http://www.w3.org/Graphics/SVG/1.1/DTD/svg11.dtd">
<svg viewBox="0 0 2702.000000 1221.000000" version="1.1" xmlns="http://www.w3.org/2000/svg" xmlns:xlink="http://www.w3.org/1999/xlink">
	<rect fill="rgb(255,255,255)" stroke="rgb(0,0,127)" stroke-opacity="1" x="1351" y="321.1" width="241.167" height="241.167"/>
	<ellipse fill="rgb(255,255,255)" stroke="rgb(0,0,127)" stroke-opacity="1" cx="1471.58" cy="441.683" rx="60.2917" ry="60.2917"/>
	<text fill="rgb(0,0,255)" font-size="48" font-family="helvetica" text-anchor="middle" dominant-baseline="central" x="1471.58" y="284.925">controller</text>
	<polyline fill="none" stroke="rgb(0,0,127)" stroke-opacity="1" points="1531.875000,441.683333 1592.166667,441.683333"/>
	<polyline fill="none" stroke="rgb(0,0,0)" stroke-opacity="1" points="1435.408333,441.683333 1507.758333,441.683333"/>
	<ellipse fill="none" stroke="rgb(0,0,0)" stroke-opacity="1" cx="1471.58" cy="411.537" rx="6.02917" ry="6.02917"/>
	<ellipse fill="none" stroke="rgb(0,0,0)" stroke-opacity="1" cx="1471.58" cy="471.829" rx="6.02917" ry="6.02917"/>
	<text fill="rgb(0,0,255)" font-size="48" font-family="helvetica" text-anchor="middle" dominant-baseline="central" x="1471.58" y="284.925">controller</text>
	<polyline fill="none" stroke="rgb(0,0,127)" stroke-opacity="1" points="1351.000000,369.333333 1391.998333,369.333333 1423.350000,405.508333"/>
	<polyline fill="none" stroke="rgb(0,0,127)" stroke-opacity="1" points="1351.000000,514.033333 1471.583333,514.033333 1471.583333,501.975000"/>
	<rect fill="rgb(255,255,255)" stroke="rgb(0,0,127)" stroke-opacity="1" x="748.083" y="128.167" width="241.167" height="241.167"/>
	<text fill="rgb(0,0,255)" font-size="48" font-family="helvetica" text-anchor="middle" dominant-baseline="central" x="868.667" y="91.9917">realPassThrough</text>
	<polyline fill="none" stroke="rgb(0,0,127)" stroke-opacity="1" points="748.083333,248.750000 989.250000,248.750000"/>
	<polyline fill="none" stroke="rgb(255,255,255)" stroke-width="5" stroke-opacity="1" points="1001.308333,248.750000 1182.183333,248.750000 1182.183333,369.333333 1326.883333,369.333333"/>
	<polyline fill="none" stroke="rgb(0,0,127)" stroke-opacity="1" points="1001.308333,248.750000 1182.183333,248.750000 1182.183333,369.333333 1326.883333,369.333333"/>
	<polyline fill="none" stroke="rgb(255,255,255)" stroke-width="5" stroke-opacity="1" points="1616.283333,441.683333 1953.916667,441.683333 1953.916667,1091.627500 1472.789167,1091.627500"/>
	<polyline fill="none" stroke="rgb(0,0,127)" stroke-opacity="1" points="1616.283333,441.683333 1953.916667,441.683333 1953.916667,1091.627500 1472.789167,1091.627500"/>
	<text fill="rgb(0,0,0)" font-size="10" font-family="helvetica" text-anchor="start" dominant-baseline="central" x="1688.63" y="405.508">yAct</text>
	<polyline fill="none" stroke="rgb(255,255,255)" stroke-width="6" stroke-opacity="1" points="1472.789167,1091.627500 989.250000,1091.627500 989.250000,514.033333 1326.883333,514.033333"/>
	<polyline fill="none" stroke="rgb(255,204,51)" stroke-width="2" stroke-opacity="1" points="1472.789167,1091.627500 989.250000,1091.627500 989.250000,514.033333 1326.883333,514.033333"/>
	<text fill="rgb(0,0,0)" font-size="10" font-family="helvetica" text-anchor="end" dominant-baseline="central" x="1254.53" y="477.858">yMea</text>
	<polyline fill="none" stroke="rgb(255,255,255)" stroke-width="6" stroke-opacity="1" points="1472.789167,1091.627500 603.383333,1091.627500 603.383333,248.750000 723.966667,248.750000"/>
	<polyline fill="none" stroke="rgb(255,204,51)" stroke-width="2" stroke-opacity="1" points="1472.789167,1091.627500 603.383333,1091.627500 603.383333,248.750000 723.966667,248.750000"/>
	<text fill="rgb(0,0,0)" font-size="10" font-family="helvetica" text-anchor="end" dominant-baseline="central" x="651.617" y="212.575">yMea</text>
	<ellipse fill="white" stroke="rgb(255,204,51)" cx="989.25" cy="1091.63" rx="3" ry="3"/>
	<polygon fill="rgb(255,204,51)" stroke="rgb(0,0,0)" stroke-opacity="1" points="1471.583333,1032.541667 1481.018979,1032.571812 1490.032583,1032.662250 1498.624146,1032.812979 1506.793667,1033.024000 1514.541146,1033.295312 1521.866583,1033.626917 1528.769979,1034.018812 1535.251333,1034.471000 1541.310646,1034.983479 1546.947917,1035.556250 1552.163146,1036.189312 1556.956333,1036.882667 1561.327479,1037.636312 1565.276583,1038.450250 1568.803646,1039.324479 1571.908667,1040.259000 1574.591646,1041.253812 1576.852583,1042.308917 1578.691479,1043.424312 1580.108333,1044.600000 1580.108333,1044.600000 1582.278833,1047.313125 1583.967000,1050.629167 1585.172833,1054.548125 1585.896333,1059.070000 1586.077208,1061.557031 1586.137500,1064.194792 1586.077208,1066.983281 1585.896333,1069.922500 1585.594875,1073.012448 1585.172833,1076.253125 1584.630208,1079.644531 1583.967000,1083.186667 1583.183208,1086.879531 1582.278833,1090.723125 1581.253875,1094.717448 1580.108333,1098.862500 1580.108333,1098.862500 1578.902500,1102.992479 1577.696667,1106.941583 1576.490833,1110.709812 1575.285000,1114.297167 1574.079167,1117.703646 1572.873333,1120.929250 1571.667500,1123.973979 1570.461667,1126.837833 1569.255833,1129.520812 1568.050000,1132.022917 1566.844167,1134.344146 1565.638333,1136.484500 1564.432500,1138.443979 1563.226667,1140.222583 1562.020833,1141.820312 1560.815000,1143.237167 1559.609167,1144.473146 1558.403333,1145.528250 1557.197500,1146.402479 1555.991667,1147.095833 1555.991667,1147.095833 1552.977083,1148.241375 1548.756667,1149.266333 1546.194271,1149.733594 1543.330417,1150.170708 1540.165104,1150.577677 1536.698333,1150.954500 1532.930104,1151.301177 1528.860417,1151.617708 1524.489271,1151.904094 1519.816667,1152.160333 1514.842604,1152.386427 1509.567083,1152.582375 1503.990104,1152.748177 1498.111667,1152.883833 1491.931771,1152.989344 1485.450417,1153.064708 1478.667604,1153.109927 1471.583333,1153.125000 1471.583333,1153.125000 1464.499063,1153.109927 1457.716250,1153.064708 1451.234896,1152.989344 1445.055000,1152.883833 1439.176563,1152.748177 1433.599583,1152.582375 1428.324063,1152.386427 1423.350000,1152.160333 1418.677396,1151.904094 1414.306250,1151.617708 1410.236563,1151.301177 1406.468333,1150.954500 1403.001563,1150.577677 1399.836250,1150.170708 1396.972396,1149.733594 1394.410000,1149.266333 1392.149063,1148.768927 1390.189583,1148.241375 1388.531563,1147.683677 1387.175000,1147.095833 1387.175000,1147.095833 1384.763333,1145.528250 1382.351667,1143.237167 1379.940000,1140.222583 1377.528333,1136.484500 1376.322500,1134.344146 1375.116667,1132.022917 1373.910833,1129.520812 1372.705000,1126.837833 1371.499167,1123.973979 1370.293333,1120.929250 1369.087500,1117.703646 1367.881667,1114.297167 1366.675833,1110.709812 1365.470000,1106.941583 1364.264167,1102.992479 1363.058333,1098.862500 1363.058333,1098.862500 1361.912792,1094.717448 1360.887833,1090.723125 1359.983458,1086.879531 1359.199667,1083.186667 1358.536458,1079.644531 1357.993833,1076.253125 1357.571792,1073.012448 1357.270333,1069.922500 1357.089458,1066.983281 1357.029167,1064.194792 1357.089458,1061.557031 1357.270333,1059.070000 1357.571792,1056.733698 1357.993833,1054.548125 1358.536458,1052.513281 1359.199667,1050.629167 1359.983458,1048.895781 1360.887833,1047.313125 1361.912792,1045.881198 1363.058333,1044.600000 1363.058333,1044.600000 1366.314083,1042.308917 1368.575021,1041.253812 1371.258000,1040.259000 1374.363021,1039.324479 1377.890083,1038.450250 1381.839187,1037.636312 1386.210333,1036.882667 1391.003521,1036.189312 1396.218750,1035.556250 1401.856021,1034.983479 1407.915333,1034.471000 1414.396688,1034.018812 1421.300083,1033.626917 1428.625521,1033.295312 1436.373000,1033.024000 1444.542521,1032.812979 1453.134083,1032.662250 1462.147688,1032.571812 1471.583333,1032.541667"/>
	<ellipse fill="none" stroke="rgb(0,0,0)" stroke-opacity="1" cx="1399.23" cy="1068.72" rx="6.02917" ry="6.02917"/>
	<ellipse fill="none" stroke="rgb(0,0,0)" stroke-opacity="1" cx="1471.58" cy="1068.72" rx="6.02917" ry="6.02917"/>
	<ellipse fill="none" stroke="rgb(0,0,0)" stroke-opacity="1" cx="1543.93" cy="1068.72" rx="6.02917" ry="6.02917"/>
	<ellipse fill="none" stroke="rgb(0,0,0)" stroke-opacity="1" cx="1435.41" cy="1116.95" rx="6.02917" ry="6.02917"/>
	<ellipse fill="none" stroke="rgb(0,0,0)" stroke-opacity="1" cx="1507.76" cy="1116.95" rx="6.02917" ry="6.02917"/>
	<text fill="rgb(0,0,0)" font-size="72" font-family="helvetica" text-anchor="middle" dominant-baseline="central" x="1471.58" y="960.192">ahuBus</text>
	<polygon fill="rgb(0,0,127)" stroke="rgb(0,0,127)" stroke-opacity="1" points="1326.883333,357.275000 1351.000000,369.333333 1326.883333,381.391667 1326.883333,357.275000"/>
	<polygon fill="rgb(0,0,127)" stroke="rgb(0,0,127)" stroke-opacity="1" points="1326.883333,501.975000 1351.000000,514.033333 1326.883333,526.091667 1326.883333,501.975000"/>
	<polygon fill="rgb(255,255,255)" stroke="rgb(0,0,127)" stroke-opacity="1" points="1592.166667,429.625000 1616.283333,441.683333 1592.166667,453.741667 1592.166667,429.625000"/>
	<polygon fill="rgb(0,0,127)" stroke="rgb(0,0,127)" stroke-opacity="1" points="699.850000,224.633333 748.083333,248.750000 699.850000,272.866667 699.850000,224.633333"/>
	<polygon fill="rgb(255,255,255)" stroke="rgb(0,0,127)" stroke-opacity="1" points="989.250000,236.691667 1013.366667,248.750000 989.250000,260.808333 989.250000,236.691667"/>
</svg>
