<?xml version="1.0" standalone="no"?>
<!DOCTYPE svg PUBLIC "-//W3C//DTD SVG 1.1//EN" "http://www.w3.org/Graphics/SVG/1.1/DTD/svg11.dtd">
<svg viewBox="0 0 2157.000000 1284.000000" version="1.1" xmlns="http://www.w3.org/2000/svg" xmlns:xlink="http://www.w3.org/1999/xlink">
	<rect fill="none" stroke="rgb(255,204,51)" stroke-width="2" stroke-opacity="1" x="953.1" y="629.46" width="250.8" height="25.08"/>
	<polygon fill="rgb(255,215,136)" stroke="rgb(0,0,0)" stroke-opacity="1" points="1078.500000,328.500000 1090.971422,328.509797 1103.305687,328.539188 1115.502797,328.588172 1127.562750,328.656750 1139.485547,328.744922 1151.271187,328.852688 1162.919672,328.980047 1174.431000,329.127000 1185.805172,329.293547 1197.042187,329.479688 1208.142047,329.685422 1219.104750,329.910750 1229.930297,330.155672 1240.618687,330.420187 1251.169922,330.704297 1261.584000,331.008000 1271.860922,331.331297 1282.000687,331.674188 1292.003297,332.036672 1301.868750,332.418750 1311.597047,332.820422 1321.188187,333.241687 1330.642172,333.682547 1339.959000,334.143000 1349.138672,334.623047 1358.181187,335.122687 1367.086547,335.641922 1375.854750,336.180750 1384.485797,336.739172 1392.979687,337.317187 1401.336422,337.914797 1409.556000,338.532000 1417.638422,339.168797 1425.583687,339.825187 1433.391797,340.501172 1441.062750,341.196750 1448.596547,341.911922 1455.993187,342.646687 1463.252672,343.401047 1470.375000,344.175000 1477.360172,344.968547 1484.208187,345.781687 1490.919047,346.614422 1497.492750,347.466750 1503.929297,348.338672 1510.228687,349.230187 1516.390922,350.141297 1522.416000,351.072000 1528.303922,352.022297 1534.054687,352.992188 1539.668297,353.981672 1545.144750,354.990750 1550.484047,356.019422 1555.686187,357.067687 1560.751172,358.135547 1565.679000,359.223000 1570.469672,360.330047 1575.123187,361.456687 1579.639547,362.602922 1584.018750,363.768750 1588.260797,364.954172 1592.365687,366.159187 1596.333422,367.383797 1600.164000,368.628000 1603.857422,369.891797 1607.413687,371.175187 1610.832797,372.478172 1614.114750,373.800750 1617.259547,375.142922 1620.267187,376.504687 1623.137672,377.886047 1625.871000,379.287000 1628.467172,380.707547 1630.926187,382.147687 1633.248047,383.607422 1635.432750,385.086750 1637.480297,386.585672 1639.390687,388.104187 1641.163922,389.642297 1642.800000,391.200000 1642.800000,391.200000 1642.800000,391.200000 1648.756500,397.861875 1654.086000,405.307500 1658.788500,413.536875 1662.864000,422.550000 1664.666625,427.350469 1666.312500,432.346875 1667.801625,437.539219 1669.134000,442.927500 1670.309625,448.511719 1671.328500,454.291875 1672.190625,460.267969 1672.896000,466.440000 1673.444625,472.807969 1673.836500,479.371875 1674.071625,486.131719 1674.150000,493.087500 1674.071625,500.239219 1673.836500,507.586875 1673.444625,515.130469 1672.896000,522.870000 1672.190625,530.805469 1671.328500,538.936875 1670.309625,547.264219 1669.134000,555.787500 1667.801625,564.506719 1666.312500,573.421875 1664.666625,582.532969 1662.864000,591.840000 1660.904625,601.342969 1658.788500,611.041875 1656.515625,620.936719 1654.086000,631.027500 1651.499625,641.314219 1648.756500,651.796875 1645.856625,662.475469 1642.800000,673.350000 1642.800000,673.350000 1639.665000,684.204937 1636.530000,694.824750 1633.395000,705.209438 1630.260000,715.359000 1627.125000,725.273437 1623.990000,734.952750 1620.855000,744.396937 1617.720000,753.606000 1614.585000,762.579937 1611.450000,771.318750 1608.315000,779.822437 1605.180000,788.091000 1602.045000,796.124437 1598.910000,803.922750 1595.775000,811.485938 1592.640000,818.814000 1589.505000,825.906938 1586.370000,832.764750 1583.235000,839.387438 1580.100000,845.775000 1576.965000,851.927437 1573.830000,857.844750 1570.695000,863.526938 1567.560000,868.974000 1564.425000,874.185938 1561.290000,879.162750 1558.155000,883.904437 1555.020000,888.411000 1551.885000,892.682437 1548.750000,896.718750 1545.615000,900.519937 1542.480000,904.086000 1539.345000,907.416938 1536.210000,910.512750 1533.075000,913.373437 1529.940000,915.999000 1526.805000,918.389437 1523.670000,920.544750 1520.535000,922.464938 1517.400000,924.150000 1517.400000,924.150000 1510.346250,927.206625 1501.725000,930.106500 1496.826563,931.497656 1491.536250,932.849625 1485.854063,934.162406 1479.780000,935.436000 1473.314063,936.670406 1466.456250,937.865625 1459.206563,939.021656 1451.565000,940.138500 1443.531562,941.216156 1435.106250,942.254625 1426.289062,943.253906 1417.080000,944.214000 1407.479063,945.134906 1397.486250,946.016625 1387.101562,946.859156 1376.325000,947.662500 1365.156562,948.426656 1353.596250,949.151625 1341.644063,949.837406 1329.300000,950.484000 1316.564062,951.091406 1303.436250,951.659625 1289.916563,952.188656 1276.005000,952.678500 1261.701562,953.129156 1247.006250,953.540625 1231.919062,953.912906 1216.440000,954.246000 1200.569062,954.539906 1184.306250,954.794625 1167.651562,955.010156 1150.605000,955.186500 1133.166562,955.323656 1115.336250,955.421625 1097.114062,955.480406 1078.500000,955.500000 1078.500000,955.500000 1059.885938,955.480406 1041.663750,955.421625 1023.833438,955.323656 1006.395000,955.186500 989.348437,955.010156 972.693750,954.794625 956.430937,954.539906 940.560000,954.246000 925.080938,953.912906 909.993750,953.540625 895.298437,953.129156 880.995000,952.678500 867.083438,952.188656 853.563750,951.659625 840.435938,951.091406 827.700000,950.484000 815.355938,949.837406 803.403750,949.151625 791.843438,948.426656 780.675000,947.662500 769.898438,946.859156 759.513750,946.016625 749.520937,945.134906 739.920000,944.214000 730.710937,943.253906 721.893750,942.254625 713.468437,941.216156 705.435000,940.138500 697.793437,939.021656 690.543750,937.865625 683.685937,936.670406 677.220000,935.436000 671.145937,934.162406 665.463750,932.849625 660.173437,931.497656 655.275000,930.106500 650.768437,928.676156 646.653750,927.206625 642.930938,925.697906 639.600000,924.150000 639.600000,924.150000 633.330000,920.544750 627.060000,915.999000 620.790000,910.512750 614.520000,904.086000 608.250000,896.718750 605.115000,892.682437 601.980000,888.411000 598.845000,883.904437 595.710000,879.162750 592.575000,874.185937 589.440000,868.974000 586.305000,863.526938 583.170000,857.844750 580.035000,851.927437 576.900000,845.775000 573.765000,839.387437 570.630000,832.764750 567.495000,825.906937 564.360000,818.814000 561.225000,811.485937 558.090000,803.922750 554.955000,796.124437 551.820000,788.091000 548.685000,779.822437 545.550000,771.318750 542.415000,762.579937 539.280000,753.606000 536.145000,744.396937 533.010000,734.952750 529.875000,725.273437 526.740000,715.359000 523.605000,705.209437 520.470000,694.824750 517.335000,684.204937 514.200000,673.350000 514.200000,673.350000 511.143375,662.475469 508.243500,651.796875 505.500375,641.314219 502.914000,631.027500 500.484375,620.936719 498.211500,611.041875 496.095375,601.342969 494.136000,591.840000 492.333375,582.532969 490.687500,573.421875 489.198375,564.506719 487.866000,555.787500 486.690375,547.264219 485.671500,538.936875 484.809375,530.805469 484.104000,522.870000 483.555375,515.130469 483.163500,507.586875 482.928375,500.239219 482.850000,493.087500 482.928375,486.131719 483.163500,479.371875 483.555375,472.807969 484.104000,466.440000 484.809375,460.267969 485.671500,454.291875 486.690375,448.511719 487.866000,442.927500 489.198375,437.539219 490.687500,432.346875 492.333375,427.350469 494.136000,422.550000 496.095375,417.945469 498.211500,413.536875 500.484375,409.324219 502.914000,405.307500 505.500375,401.486719 508.243500,397.861875 511.143375,394.432969 514.200000,391.200000 514.200000,391.200000 521.567250,385.086750 526.073813,382.147688 531.129000,379.287000 536.732813,376.504687 542.885250,373.800750 549.586312,371.175187 556.836000,368.628000 564.634313,366.159187 572.981250,363.768750 581.876813,361.456687 591.321000,359.223000 601.313813,357.067688 611.855250,354.990750 622.945313,352.992188 634.584000,351.072000 646.771313,349.230187 659.507250,347.466750 672.791813,345.781687 686.625000,344.175000 701.006813,342.646687 715.937250,341.196750 731.416313,339.825188 747.444000,338.532000 764.020313,337.317187 781.145250,336.180750 798.818813,335.122687 817.041000,334.143000 835.811813,333.241688 855.131250,332.418750 874.999313,331.674188 885.139078,331.331297 895.416000,331.008000 905.830078,330.704297 916.381313,330.420187 927.069703,330.155672 937.895250,329.910750 948.857953,329.685422 959.957813,329.479688 971.194828,329.293547 982.569000,329.127000 994.080328,328.980047 1005.728812,328.852688 1017.514453,328.744922 1029.437250,328.656750 1041.497203,328.588172 1053.694312,328.539187 1066.028578,328.509797 1078.500000,328.500000 1078.500000,328.500000"/>
	<ellipse fill="none" stroke="rgb(0,0,0)" stroke-opacity="1" cx="702.3" cy="516.6" rx="31.35" ry="31.35"/>
	<ellipse fill="none" stroke="rgb(0,0,0)" stroke-opacity="1" cx="1078.5" cy="516.6" rx="31.35" ry="31.35"/>
	<ellipse fill="none" stroke="rgb(0,0,0)" stroke-opacity="1" cx="1454.7" cy="516.6" rx="31.35" ry="31.35"/>
	<ellipse fill="none" stroke="rgb(0,0,0)" stroke-opacity="1" cx="890.4" cy="767.4" rx="31.35" ry="31.35"/>
	<ellipse fill="none" stroke="rgb(0,0,0)" stroke-opacity="1" cx="1266.6" cy="767.4" rx="31.35" ry="31.35"/>
	<rect fill="none" stroke="rgb(255,204,51)" stroke-width="2" stroke-opacity="1" x="953.1" y="629.46" width="263.34" height="25.08"/>
</svg>
