<?xml version="1.0" standalone="no"?>
<!DOCTYPE svg PUBLIC "-//W3C//DTD SVG 1.1//EN" "http://www.w3.org/Graphics/SVG/1.1/DTD/svg11.dtd">
<svg viewBox="0 0 2547.000000 1152.000000" version="1.1" xmlns="http://www.w3.org/2000/svg" xmlns:xlink="http://www.w3.org/1999/xlink">
	<rect fill="rgb(235,235,235)" stroke="rgb(0,0,0)" stroke-opacity="1" x="159.5" y="520.3" width="278.5" height="111.4"/>
	<rect fill="rgb(172,168,153)" stroke="none" x="157.964" y="518.764" width="1.536" height="112.936"/>
	<rect fill="rgb(172,168,153)" stroke="none" x="157.964" y="631.7" width="280.036" height="1.536"/>
	<rect fill="rgb(172,168,153)" stroke="none" x="438" y="520.3" width="1.536" height="112.936"/>
	<rect fill="rgb(172,168,153)" stroke="none" x="159.5" y="518.764" width="280.036" height="1.536"/>
	<rect fill="rgb(255,255,255)" stroke="none" x="159.5" y="520.3" width="2.304" height="111.4"/>
	<rect fill="rgb(255,255,255)" stroke="none" x="159.5" y="520.3" width="278.5" height="2.304"/>
	<rect fill="rgb(113,111,100)" stroke="none" x="436.464" y="520.3" width="1.536" height="111.4"/>
	<rect fill="rgb(113,111,100)" stroke="none" x="159.5" y="630.164" width="278.5" height="1.536"/>
	<rect fill="rgb(172,168,153)" stroke="none" x="434.928" y="521.836" width="1.536" height="108.328"/>
	<rect fill="rgb(172,168,153)" stroke="none" x="161.036" y="628.628" width="275.428" height="1.536"/>
	<text fill="rgb(0,0,0)" font-size="30" font-family="helvetica" text-anchor="middle" dominant-baseline="central" x="298.75" y="576">2 + sin(time*3.14)</text>
	<text fill="rgb(0,0,255)" font-size="56" font-family="helvetica" text-anchor="middle" dominant-baseline="central" x="298.75" y="478.525">sensor</text>
	<rect fill="rgb(255,255,255)" stroke="rgb(0,0,127)" stroke-opacity="1" x="2109" y="436.75" width="278.5" height="278.5"/>
	<text fill="rgb(0,0,255)" font-size="56" font-family="helvetica" text-anchor="middle" dominant-baseline="central" x="2248.25" y="394.975">actuator</text>
	<polyline fill="none" stroke="rgb(0,0,127)" stroke-opacity="1" points="2109.000000,576.000000 2387.500000,576.000000"/>
	<polyline fill="none" stroke="rgb(255,255,255)" stroke-width="6" stroke-opacity="1" points="1274.892500,574.607500 1691.250000,574.607500 1691.250000,576.000000 2081.150000,576.000000"/>
	<polyline fill="none" stroke="rgb(255,204,51)" stroke-width="2" stroke-opacity="1" points="1274.892500,574.607500 1691.250000,574.607500 1691.250000,576.000000 2081.150000,576.000000"/>
	<text fill="rgb(0,0,0)" font-size="10" font-family="helvetica" text-anchor="end" dominant-baseline="central" x="1997.6" y="534.225">yAct</text>
	<polyline fill="none" stroke="rgb(255,255,255)" stroke-width="5" stroke-opacity="1" points="451.925000,576.000000 855.750000,576.000000 855.750000,574.607500 1274.892500,574.607500"/>
	<polyline fill="none" stroke="rgb(0,0,127)" stroke-opacity="1" points="451.925000,576.000000 855.750000,576.000000 855.750000,574.607500 1274.892500,574.607500"/>
	<text fill="rgb(0,0,0)" font-size="10" font-family="helvetica" text-anchor="start" dominant-baseline="central" x="535.475" y="534.225">yMea</text>
	<polygon fill="rgb(255,255,255)" stroke="rgb(0,0,127)" stroke-opacity="1" points="438.000000,562.075000 465.850000,576.000000 438.000000,589.925000 438.000000,562.075000"/>
	<polygon fill="rgb(255,204,51)" stroke="rgb(0,0,0)" stroke-opacity="1" points="1273.500000,506.375000 1279.009078,506.383703 1284.396313,506.409812 1289.661703,506.453328 1294.805250,506.514250 1299.826953,506.592578 1304.726813,506.688312 1309.504828,506.801453 1314.161000,506.932000 1318.695328,507.079953 1323.107813,507.245313 1327.398453,507.428078 1331.567250,507.628250 1335.614203,507.845828 1339.539312,508.080812 1343.342578,508.333203 1347.024000,508.603000 1350.583578,508.890203 1354.021313,509.194812 1357.337203,509.516828 1360.531250,509.856250 1363.603453,510.213078 1366.553813,510.587312 1369.382328,510.978953 1372.089000,511.388000 1374.673828,511.814453 1377.136813,512.258312 1379.477953,512.719578 1381.697250,513.198250 1383.794703,513.694328 1385.770313,514.207813 1387.624078,514.738703 1389.356000,515.287000 1390.966078,515.852703 1392.454313,516.435812 1393.820703,517.036328 1395.065250,517.654250 1396.187953,518.289578 1397.188813,518.942312 1398.067828,519.612453 1398.825000,520.300000 1398.825000,520.300000 1401.331500,523.433125 1403.281000,527.262500 1404.673500,531.788125 1405.160875,534.312031 1405.509000,537.010000 1405.717875,539.882031 1405.787500,542.928125 1405.717875,546.148281 1405.509000,549.542500 1405.160875,553.110781 1404.673500,556.853125 1404.046875,560.769531 1403.281000,564.860000 1402.375875,569.124531 1401.331500,573.563125 1400.147875,578.175781 1398.825000,582.962500 1398.825000,582.962500 1397.432500,587.731813 1396.040000,592.292250 1394.647500,596.643812 1393.255000,600.786500 1391.862500,604.720313 1390.470000,608.445250 1389.077500,611.961313 1387.685000,615.268500 1386.292500,618.366813 1384.900000,621.256250 1383.507500,623.936813 1382.115000,626.408500 1380.722500,628.671312 1379.330000,630.725250 1377.937500,632.570312 1376.545000,634.206500 1375.152500,635.633813 1373.760000,636.852250 1372.367500,637.861813 1370.975000,638.662500 1370.975000,638.662500 1367.493750,639.985375 1365.230937,640.594594 1362.620000,641.169000 1359.660937,641.708594 1356.353750,642.213375 1352.698437,642.683344 1348.695000,643.118500 1344.343437,643.518844 1339.643750,643.884375 1334.595937,644.215094 1329.200000,644.511000 1323.455937,644.772094 1317.363750,644.998375 1310.923438,645.189844 1304.135000,645.346500 1296.998437,645.468344 1289.513750,645.555375 1281.680938,645.607594 1273.500000,645.625000 1273.500000,645.625000 1265.319062,645.607594 1257.486250,645.555375 1250.001562,645.468344 1242.865000,645.346500 1236.076563,645.189844 1229.636250,644.998375 1223.544063,644.772094 1217.800000,644.511000 1212.404063,644.215094 1207.356250,643.884375 1202.656563,643.518844 1198.305000,643.118500 1194.301563,642.683344 1190.646250,642.213375 1187.339063,641.708594 1184.380000,641.169000 1181.769063,640.594594 1179.506250,639.985375 1177.591563,639.341344 1176.025000,638.662500 1176.025000,638.662500 1173.240000,636.852250 1170.455000,634.206500 1167.670000,630.725250 1166.277500,628.671312 1164.885000,626.408500 1163.492500,623.936813 1162.100000,621.256250 1160.707500,618.366813 1159.315000,615.268500 1157.922500,611.961313 1156.530000,608.445250 1155.137500,604.720313 1153.745000,600.786500 1152.352500,596.643812 1150.960000,592.292250 1149.567500,587.731813 1148.175000,582.962500 1148.175000,582.962500 1146.852125,578.175781 1145.668500,573.563125 1144.624125,569.124531 1143.719000,564.860000 1142.953125,560.769531 1142.326500,556.853125 1141.839125,553.110781 1141.491000,549.542500 1141.282125,546.148281 1141.212500,542.928125 1141.282125,539.882031 1141.491000,537.010000 1141.839125,534.312031 1142.326500,531.788125 1142.953125,529.438281 1143.719000,527.262500 1144.624125,525.260781 1145.668500,523.433125 1146.852125,521.779531 1148.175000,520.300000 1148.175000,520.300000 1151.934750,517.654250 1154.545687,516.435812 1157.644000,515.287000 1161.229687,514.207813 1165.302750,513.198250 1169.863187,512.258312 1174.911000,511.388000 1180.446187,510.587312 1186.468750,509.856250 1192.978687,509.194813 1199.976000,508.603000 1207.460687,508.080812 1215.432750,507.628250 1223.892188,507.245313 1232.839000,506.932000 1242.273187,506.688313 1252.194750,506.514250 1257.338297,506.453328 1262.603687,506.409812 1267.990922,506.383703 1273.500000,506.375000"/>
	<ellipse fill="none" stroke="rgb(0,0,0)" stroke-opacity="1" cx="1189.95" cy="548.15" rx="6.9625" ry="6.9625"/>
	<ellipse fill="none" stroke="rgb(0,0,0)" stroke-opacity="1" cx="1273.5" cy="548.15" rx="6.9625" ry="6.9625"/>
	<ellipse fill="none" stroke="rgb(0,0,0)" stroke-opacity="1" cx="1357.05" cy="548.15" rx="6.9625" ry="6.9625"/>
	<ellipse fill="none" stroke="rgb(0,0,0)" stroke-opacity="1" cx="1231.72" cy="603.85" rx="6.9625" ry="6.9625"/>
	<ellipse fill="none" stroke="rgb(0,0,0)" stroke-opacity="1" cx="1315.28" cy="603.85" rx="6.9625" ry="6.9625"/>
	<text fill="rgb(0,0,0)" font-size="84" font-family="helvetica" text-anchor="middle" dominant-baseline="central" x="1273.5" y="422.825">ahuBus</text>
	<polygon fill="rgb(0,0,127)" stroke="rgb(0,0,127)" stroke-opacity="1" points="2053.300000,548.150000 2109.000000,576.000000 2053.300000,603.850000 2053.300000,548.150000"/>
	<polygon fill="rgb(255,255,255)" stroke="rgb(0,0,127)" stroke-opacity="1" points="2387.500000,562.075000 2415.350000,576.000000 2387.500000,589.925000 2387.500000,562.075000"/>
</svg>
