<?xml version="1.0" standalone="no"?>
<!DOCTYPE svg PUBLIC "-//W3C//DTD SVG 1.1//EN" "http://www.w3.org/Graphics/SVG/1.1/DTD/svg11.dtd">
<svg viewBox="0 0 1495.000000 688.000000" version="1.1" xmlns="http://www.w3.org/2000/svg" xmlns:xlink="http://www.w3.org/1999/xlink">
	<text fill="rgb(28,108,200)" font-size="29" font-family="helvetica" text-anchor="start" dominant-baseline="central" x="110.5" y="-491.8">
		<tspan x="110.5" dy="0">Bugs GUI Dymola expandable connector:</tspan>
		<tspan x="110.5" dy="29"></tspan>
		<tspan x="110.5" dy="29">- terBus.inpSig is considered as an array if terBus[].inpSig has been connected to an array of scalar variables. </tspan>
		<tspan x="110.5" dy="29">Need to update the code manually to suppress the index and simulate.</tspan>
		<tspan x="110.5" dy="29">- If the connection is made at the terminal unit first: OK.</tspan>
		<tspan x="110.5" dy="29"></tspan>
		<tspan x="110.5" dy="29">Improvement: connectorSizing does not work for nested expandable connector. Need to specify the dimension manually in ahuBus.</tspan>
		<tspan x="110.5" dy="29"></tspan>
		<tspan x="110.5" dy="29">BUG in OCT</tspan>
		<tspan x="110.5" dy="29"></tspan>
		<tspan x="110.5" dy="29">In components:</tspan>
		<tspan x="110.5" dy="29">    dummyCentralSystem.ahuBus.ahuTer[2]</tspan>
		<tspan x="110.5" dy="29">    dummyCentralSystem.ahuBus.ahuTer[3]</tspan>
		<tspan x="110.5" dy="29">    dummyCentralSystem.ahuBus.ahuTer[4]</tspan>
		<tspan x="110.5" dy="29">    dummyCentralSystem.ahuBus.ahuTer[5]</tspan>
		<tspan x="110.5" dy="29">  Cannot find class declaration for RealInput</tspan>
	</text>
	<rect fill="rgb(255,255,255)" stroke="rgb(0,0,127)" stroke-opacity="1" x="929.5" y="162" width="182" height="182"/>
	<text fill="rgb(0,0,255)" font-size="36" font-family="helvetica" text-anchor="middle" dominant-baseline="central" x="1020.5" y="134.7">dummyTerminal[]</text>
	<rect fill="rgb(255,255,255)" stroke="rgb(0,0,127)" stroke-opacity="1" x="929.5" y="162" width="182" height="182"/>
	<text fill="rgb(0,0,255)" font-size="36" font-family="helvetica" text-anchor="middle" dominant-baseline="central" x="1020.5" y="134.7">dummyTerminal[]</text>
	<rect fill="rgb(255,255,255)" stroke="rgb(0,0,127)" stroke-opacity="1" x="383.5" y="162" width="182" height="182"/>
	<text fill="rgb(0,0,255)" font-size="36" font-family="helvetica" text-anchor="middle" dominant-baseline="central" x="474.5" y="134.7">dummyCentral</text>
	<polyline fill="none" stroke="rgb(255,255,255)" stroke-width="6" stroke-opacity="1" points="1056.900000,253.000000 1056.900000,434.090000 748.410000,434.090000"/>
	<polyline fill="none" stroke="rgb(255,204,51)" stroke-width="2" stroke-opacity="1" points="1056.900000,253.000000 1056.900000,434.090000 748.410000,434.090000"/>
	<text fill="rgb(0,0,0)" font-size="10" font-family="helvetica" text-anchor="end" dominant-baseline="central" x="1029.6" y="307.6">ahuTer</text>
	<polyline fill="none" stroke="rgb(255,255,255)" stroke-width="6" stroke-opacity="1" points="747.500000,435.000000 510.900000,435.000000 510.900000,253.910000"/>
	<polyline fill="none" stroke="rgb(255,204,51)" stroke-width="2" stroke-opacity="1" points="747.500000,435.000000 510.900000,435.000000 510.900000,253.910000"/>
	<text fill="rgb(0,0,0)" font-size="10" font-family="helvetica" text-anchor="end" dominant-baseline="central" x="483.6" y="308.51">ahuBus</text>
	<rect fill="none" stroke="rgb(255,204,51)" stroke-width="2" stroke-opacity="1" x="1053.26" y="252.636" width="7.28" height="0.728"/>
	<polygon fill="rgb(255,215,136)" stroke="rgb(0,0,0)" stroke-opacity="1" points="1056.900000,243.900000 1059.684600,243.918200 1062.214400,243.972800 1064.489400,244.063800 1066.509600,244.191200 1068.275000,244.355000 1069.785600,244.555200 1071.041400,244.791800 1072.042400,245.064800 1072.788600,245.374200 1073.280000,245.720000 1073.280000,245.720000 1073.280000,245.720000 1073.607600,246.129500 1073.862400,246.630000 1074.044400,247.221500 1074.153600,247.904000 1074.190000,248.677500 1074.153600,249.542000 1074.044400,250.497500 1073.862400,251.544000 1073.607600,252.681500 1073.280000,253.910000 1073.280000,253.910000 1073.280000,253.910000 1072.916000,255.129400 1072.552000,256.239600 1072.188000,257.240600 1071.824000,258.132400 1071.460000,258.915000 1071.096000,259.588400 1070.732000,260.152600 1070.368000,260.607600 1070.004000,260.953400 1069.640000,261.190000 1069.640000,261.190000 1069.640000,261.190000 1069.185000,261.362900 1068.548000,261.517600 1067.729000,261.654100 1066.728000,261.772400 1065.545000,261.872500 1064.180000,261.954400 1062.633000,262.018100 1060.904000,262.063600 1058.993000,262.090900 1056.900000,262.100000 1056.900000,262.100000 1056.900000,262.100000 1054.807000,262.090900 1052.896000,262.063600 1051.167000,262.018100 1049.620000,261.954400 1048.255000,261.872500 1047.072000,261.772400 1046.071000,261.654100 1045.252000,261.517600 1044.615000,261.362900 1044.160000,261.190000 1044.160000,261.190000 1044.160000,261.190000 1043.796000,260.953400 1043.432000,260.607600 1043.068000,260.152600 1042.704000,259.588400 1042.340000,258.915000 1041.976000,258.132400 1041.612000,257.240600 1041.248000,256.239600 1040.884000,255.129400 1040.520000,253.910000 1040.520000,253.910000 1040.520000,253.910000 1040.192400,252.681500 1039.937600,251.544000 1039.755600,250.497500 1039.646400,249.542000 1039.610000,248.677500 1039.646400,247.904000 1039.755600,247.221500 1039.937600,246.630000 1040.192400,246.129500 1040.520000,245.720000 1040.520000,245.720000 1040.520000,245.720000 1041.011400,245.374200 1041.757600,245.064800 1042.758600,244.791800 1044.014400,244.555200 1045.525000,244.355000 1047.290400,244.191200 1049.310600,244.063800 1051.585600,243.972800 1054.115400,243.918200 1056.900000,243.900000 1056.900000,243.900000"/>
	<ellipse fill="none" stroke="rgb(0,0,0)" stroke-opacity="1" cx="1045.98" cy="249.36" rx="0.91" ry="0.91"/>
	<ellipse fill="none" stroke="rgb(0,0,0)" stroke-opacity="1" cx="1056.9" cy="249.36" rx="0.91" ry="0.91"/>
	<ellipse fill="none" stroke="rgb(0,0,0)" stroke-opacity="1" cx="1067.82" cy="249.36" rx="0.91" ry="0.91"/>
	<ellipse fill="none" stroke="rgb(0,0,0)" stroke-opacity="1" cx="1051.44" cy="256.64" rx="0.91" ry="0.91"/>
	<ellipse fill="none" stroke="rgb(0,0,0)" stroke-opacity="1" cx="1062.36" cy="256.64" rx="0.91" ry="0.91"/>
	<rect fill="none" stroke="rgb(255,204,51)" stroke-width="2" stroke-opacity="1" x="1053.26" y="252.636" width="7.28" height="0.728"/>
	<polygon fill="rgb(255,215,136)" stroke="rgb(0,0,0)" stroke-opacity="1" points="1056.900000,243.900000 1059.684600,243.918200 1062.214400,243.972800 1064.489400,244.063800 1066.509600,244.191200 1068.275000,244.355000 1069.785600,244.555200 1071.041400,244.791800 1072.042400,245.064800 1072.788600,245.374200 1073.280000,245.720000 1073.280000,245.720000 1073.280000,245.720000 1073.607600,246.129500 1073.862400,246.630000 1074.044400,247.221500 1074.153600,247.904000 1074.190000,248.677500 1074.153600,249.542000 1074.044400,250.497500 1073.862400,251.544000 1073.607600,252.681500 1073.280000,253.910000 1073.280000,253.910000 1073.280000,253.910000 1072.916000,255.129400 1072.552000,256.239600 1072.188000,257.240600 1071.824000,258.132400 1071.460000,258.915000 1071.096000,259.588400 1070.732000,260.152600 1070.368000,260.607600 1070.004000,260.953400 1069.640000,261.190000 1069.640000,261.190000 1069.640000,261.190000 1069.185000,261.362900 1068.548000,261.517600 1067.729000,261.654100 1066.728000,261.772400 1065.545000,261.872500 1064.180000,261.954400 1062.633000,262.018100 1060.904000,262.063600 1058.993000,262.090900 1056.900000,262.100000 1056.900000,262.100000 1056.900000,262.100000 1054.807000,262.090900 1052.896000,262.063600 1051.167000,262.018100 1049.620000,261.954400 1048.255000,261.872500 1047.072000,261.772400 1046.071000,261.654100 1045.252000,261.517600 1044.615000,261.362900 1044.160000,261.190000 1044.160000,261.190000 1044.160000,261.190000 1043.796000,260.953400 1043.432000,260.607600 1043.068000,260.152600 1042.704000,259.588400 1042.340000,258.915000 1041.976000,258.132400 1041.612000,257.240600 1041.248000,256.239600 1040.884000,255.129400 1040.520000,253.910000 1040.520000,253.910000 1040.520000,253.910000 1040.192400,252.681500 1039.937600,251.544000 1039.755600,250.497500 1039.646400,249.542000 1039.610000,248.677500 1039.646400,247.904000 1039.755600,247.221500 1039.937600,246.630000 1040.192400,246.129500 1040.520000,245.720000 1040.520000,245.720000 1040.520000,245.720000 1041.011400,245.374200 1041.757600,245.064800 1042.758600,244.791800 1044.014400,244.555200 1045.525000,244.355000 1047.290400,244.191200 1049.310600,244.063800 1051.585600,243.972800 1054.115400,243.918200 1056.900000,243.900000 1056.900000,243.900000"/>
	<ellipse fill="none" stroke="rgb(0,0,0)" stroke-opacity="1" cx="1045.98" cy="249.36" rx="0.91" ry="0.91"/>
	<ellipse fill="none" stroke="rgb(0,0,0)" stroke-opacity="1" cx="1056.9" cy="249.36" rx="0.91" ry="0.91"/>
	<ellipse fill="none" stroke="rgb(0,0,0)" stroke-opacity="1" cx="1067.82" cy="249.36" rx="0.91" ry="0.91"/>
	<ellipse fill="none" stroke="rgb(0,0,0)" stroke-opacity="1" cx="1051.44" cy="256.64" rx="0.91" ry="0.91"/>
	<ellipse fill="none" stroke="rgb(0,0,0)" stroke-opacity="1" cx="1062.36" cy="256.64" rx="0.91" ry="0.91"/>
	<rect fill="none" stroke="rgb(255,204,51)" stroke-width="2" stroke-opacity="1" x="507.26" y="253.528" width="7.28" height="0.7644"/>
	<polygon fill="rgb(255,215,136)" stroke="rgb(0,0,0)" stroke-opacity="1" points="510.900000,244.355000 513.684600,244.374110 516.214400,244.431440 518.489400,244.526990 520.509600,244.660760 522.275000,244.832750 523.785600,245.042960 525.041400,245.291390 526.042400,245.578040 526.788600,245.902910 527.280000,246.266000 527.280000,246.266000 527.280000,246.266000 527.607600,246.695975 527.862400,247.221500 528.044400,247.842575 528.153600,248.559200 528.190000,249.371375 528.153600,250.279100 528.044400,251.282375 527.862400,252.381200 527.607600,253.575575 527.280000,254.865500 527.280000,254.865500 527.280000,254.865500 526.916000,256.145870 526.552000,257.311580 526.188000,258.362630 525.824000,259.299020 525.460000,260.120750 525.096000,260.827820 524.732000,261.420230 524.368000,261.897980 524.004000,262.261070 523.640000,262.509500 523.640000,262.509500 523.640000,262.509500 523.185000,262.691045 522.548000,262.853480 521.729000,262.996805 520.728000,263.121020 519.545000,263.226125 518.180000,263.312120 516.633000,263.379005 514.904000,263.426780 512.993000,263.455445 510.900000,263.465000 510.900000,263.465000 510.900000,263.465000 508.807000,263.455445 506.896000,263.426780 505.167000,263.379005 503.620000,263.312120 502.255000,263.226125 501.072000,263.121020 500.071000,262.996805 499.252000,262.853480 498.615000,262.691045 498.160000,262.509500 498.160000,262.509500 498.160000,262.509500 497.796000,262.261070 497.432000,261.897980 497.068000,261.420230 496.704000,260.827820 496.340000,260.120750 495.976000,259.299020 495.612000,258.362630 495.248000,257.311580 494.884000,256.145870 494.520000,254.865500 494.520000,254.865500 494.520000,254.865500 494.192400,253.575575 493.937600,252.381200 493.755600,251.282375 493.646400,250.279100 493.610000,249.371375 493.646400,248.559200 493.755600,247.842575 493.937600,247.221500 494.192400,246.695975 494.520000,246.266000 494.520000,246.266000 494.520000,246.266000 495.011400,245.902910 495.757600,245.578040 496.758600,245.291390 498.014400,245.042960 499.525000,244.832750 501.290400,244.660760 503.310600,244.526990 505.585600,244.431440 508.115400,244.374110 510.900000,244.355000 510.900000,244.355000"/>
	<ellipse fill="none" stroke="rgb(0,0,0)" stroke-opacity="1" cx="499.98" cy="250.088" rx="0.91" ry="0.9555"/>
	<ellipse fill="none" stroke="rgb(0,0,0)" stroke-opacity="1" cx="510.9" cy="250.088" rx="0.91" ry="0.9555"/>
	<ellipse fill="none" stroke="rgb(0,0,0)" stroke-opacity="1" cx="521.82" cy="250.088" rx="0.91" ry="0.9555"/>
	<ellipse fill="none" stroke="rgb(0,0,0)" stroke-opacity="1" cx="505.44" cy="257.732" rx="0.91" ry="0.9555"/>
	<ellipse fill="none" stroke="rgb(0,0,0)" stroke-opacity="1" cx="516.36" cy="257.732" rx="0.91" ry="0.9555"/>
	<rect fill="none" stroke="rgb(255,204,51)" stroke-width="2" stroke-opacity="1" x="507.26" y="253.528" width="7.644" height="0.7644"/>
	<polygon fill="rgb(255,204,51)" stroke="rgb(0,0,0)" stroke-opacity="1" points="747.500000,389.500000 754.620750,389.522750 761.423000,389.591000 767.906750,389.704750 774.072000,389.864000 779.918750,390.068750 785.447000,390.319000 790.656750,390.614750 795.548000,390.956000 800.120750,391.342750 804.375000,391.775000 808.310750,392.252750 811.928000,392.776000 815.226750,393.344750 818.207000,393.959000 820.868750,394.618750 823.212000,395.324000 825.236750,396.074750 826.943000,396.871000 828.330750,397.712750 829.400000,398.600000 829.400000,398.600000 831.038000,400.647500 832.312000,403.150000 833.222000,406.107500 833.768000,409.520000 833.950000,413.387500 833.768000,417.710000 833.222000,422.487500 832.812500,425.046875 832.312000,427.720000 831.720500,430.506875 831.038000,433.407500 830.264500,436.421875 829.400000,439.550000 829.400000,439.550000 828.490000,442.666750 827.580000,445.647000 826.670000,448.490750 825.760000,451.198000 824.850000,453.768750 823.940000,456.203000 823.030000,458.500750 822.120000,460.662000 821.210000,462.686750 820.300000,464.575000 819.390000,466.326750 818.480000,467.942000 817.570000,469.420750 816.660000,470.763000 815.750000,471.968750 814.840000,473.038000 813.930000,473.970750 813.020000,474.767000 812.110000,475.426750 811.200000,475.950000 811.200000,475.950000 808.925000,476.814500 805.740000,477.588000 801.645000,478.270500 799.256250,478.577625 796.640000,478.862000 793.796250,479.123625 790.725000,479.362500 787.426250,479.578625 783.900000,479.772000 780.146250,479.942625 776.165000,480.090500 771.956250,480.215625 767.520000,480.318000 762.856250,480.397625 757.965000,480.454500 752.846250,480.488625 747.500000,480.500000 747.500000,480.500000 742.153750,480.488625 737.035000,480.454500 732.143750,480.397625 727.480000,480.318000 723.043750,480.215625 718.835000,480.090500 714.853750,479.942625 711.100000,479.772000 707.573750,479.578625 704.275000,479.362500 701.203750,479.123625 698.360000,478.862000 695.743750,478.577625 693.355000,478.270500 691.193750,477.940625 689.260000,477.588000 687.553750,477.212625 686.075000,476.814500 684.823750,476.393625 683.800000,475.950000 683.800000,475.950000 681.980000,474.767000 680.160000,473.038000 678.340000,470.763000 676.520000,467.942000 674.700000,464.575000 672.880000,460.662000 671.060000,456.203000 670.150000,453.768750 669.240000,451.198000 668.330000,448.490750 667.420000,445.647000 666.510000,442.666750 665.600000,439.550000 665.600000,439.550000 664.735500,436.421875 663.962000,433.407500 663.279500,430.506875 662.688000,427.720000 662.187500,425.046875 661.778000,422.487500 661.459500,420.041875 661.232000,417.710000 661.095500,415.491875 661.050000,413.387500 661.095500,411.396875 661.232000,409.520000 661.459500,407.756875 661.778000,406.107500 662.187500,404.571875 662.688000,403.150000 663.279500,401.841875 663.962000,400.647500 664.735500,399.566875 665.600000,398.600000 665.600000,398.600000 668.057000,396.871000 671.788000,395.324000 674.131250,394.618750 676.793000,393.959000 679.773250,393.344750 683.072000,392.776000 686.689250,392.252750 690.625000,391.775000 694.879250,391.342750 699.452000,390.956000 704.343250,390.614750 709.553000,390.319000 715.081250,390.068750 720.928000,389.864000 727.093250,389.704750 733.577000,389.591000 740.379250,389.522750 747.500000,389.500000"/>
	<ellipse fill="none" stroke="rgb(0,0,0)" stroke-opacity="1" cx="692.9" cy="416.8" rx="4.55" ry="4.55"/>
	<ellipse fill="none" stroke="rgb(0,0,0)" stroke-opacity="1" cx="747.5" cy="416.8" rx="4.55" ry="4.55"/>
	<ellipse fill="none" stroke="rgb(0,0,0)" stroke-opacity="1" cx="802.1" cy="416.8" rx="4.55" ry="4.55"/>
	<ellipse fill="none" stroke="rgb(0,0,0)" stroke-opacity="1" cx="720.2" cy="453.2" rx="4.55" ry="4.55"/>
	<ellipse fill="none" stroke="rgb(0,0,0)" stroke-opacity="1" cx="774.8" cy="453.2" rx="4.55" ry="4.55"/>
	<text fill="rgb(0,0,0)" font-size="55" font-family="helvetica" text-anchor="middle" dominant-baseline="central" x="747.5" y="334.9">ahuBus</text>
</svg>
