<?xml version="1.0" standalone="no"?>
<!DOCTYPE svg PUBLIC "-//W3C//DTD SVG 1.1//EN" "http://www.w3.org/Graphics/SVG/1.1/DTD/svg11.dtd">
<svg viewBox="0 0 1495.000000 688.000000" version="1.1" xmlns="http://www.w3.org/2000/svg" xmlns:xlink="http://www.w3.org/1999/xlink">
	<rect fill="rgb(235,235,235)" stroke="rgb(0,0,0)" stroke-opacity="1" x="473.333" y="102.733" width="109.667" height="43.8667"/>
	<rect fill="rgb(172,168,153)" stroke="none" x="472.416" y="101.816" width="0.917333" height="44.784"/>
	<rect fill="rgb(172,168,153)" stroke="none" x="472.416" y="146.6" width="110.584" height="0.917333"/>
	<rect fill="rgb(172,168,153)" stroke="none" x="583" y="102.733" width="0.917333" height="44.784"/>
	<rect fill="rgb(172,168,153)" stroke="none" x="473.333" y="101.816" width="110.584" height="0.917333"/>
	<rect fill="rgb(255,255,255)" stroke="none" x="473.333" y="102.733" width="1.376" height="43.8667"/>
	<rect fill="rgb(255,255,255)" stroke="none" x="473.333" y="102.733" width="109.667" height="1.376"/>
	<rect fill="rgb(113,111,100)" stroke="none" x="582.083" y="102.733" width="0.917333" height="43.8667"/>
	<rect fill="rgb(113,111,100)" stroke="none" x="473.333" y="145.683" width="109.667" height="0.917333"/>
	<rect fill="rgb(172,168,153)" stroke="none" x="581.165" y="103.651" width="0.917333" height="42.032"/>
	<rect fill="rgb(172,168,153)" stroke="none" x="474.251" y="144.765" width="107.832" height="0.917333"/>
	<text fill="rgb(0,0,0)" font-size="16" font-family="helvetica" text-anchor="middle" dominant-baseline="central" x="528.167" y="124.667">time*indTer</text>
	<text fill="rgb(0,0,255)" font-size="22" font-family="helvetica" text-anchor="middle" dominant-baseline="central" x="528.167" y="86.2833">inpSig</text>
	<rect fill="rgb(255,255,255)" stroke="rgb(0,0,127)" stroke-opacity="1" x="473.333" y="289.167" width="109.667" height="109.667"/>
	<text fill="rgb(0,0,255)" font-size="22" font-family="helvetica" text-anchor="middle" dominant-baseline="central" x="528.167" y="272.717">outSig</text>
	<polyline fill="none" stroke="rgb(0,0,127)" stroke-opacity="1" points="583.000000,344.000000 473.333333,344.000000"/>
	<rect fill="rgb(255,255,255)" stroke="rgb(255,0,255)" stroke-opacity="1" x="473.333" y="508.5" width="109.667" height="109.667"/>
	<text fill="rgb(0,0,255)" font-size="22" font-family="helvetica" text-anchor="middle" dominant-baseline="central" x="528.167" y="492.05">staAhu</text>
	<polyline fill="none" stroke="rgb(255,0,255)" stroke-opacity="1" points="583.000000,563.333333 473.333333,563.333333"/>
	<polyline fill="none" stroke="rgb(255,255,255)" stroke-width="6" stroke-opacity="1" points="1021.666667,124.666667 1021.666667,344.000000 593.966667,344.000000"/>
	<polyline fill="none" stroke="rgb(255,204,51)" stroke-width="2" stroke-opacity="1" points="1021.666667,124.666667 1021.666667,344.000000 593.966667,344.000000"/>
	<text fill="rgb(0,0,0)" font-size="10" font-family="helvetica" text-anchor="end" dominant-baseline="central" x="577.517" y="311.1">outSig</text>
	<polyline fill="none" stroke="rgb(255,255,255)" stroke-width="5" stroke-opacity="1" points="588.483333,124.666667 1021.666667,124.666667"/>
	<polyline fill="none" stroke="rgb(0,0,127)" stroke-opacity="1" points="588.483333,124.666667 1021.666667,124.666667"/>
	<text fill="rgb(0,0,0)" font-size="10" font-family="helvetica" text-anchor="start" dominant-baseline="central" x="621.383" y="108.217">inpSig</text>
	<polyline fill="none" stroke="rgb(255,255,255)" stroke-width="6" stroke-opacity="1" points="1022.215000,124.118333 1022.215000,563.333333 593.966667,563.333333"/>
	<polyline fill="none" stroke="rgb(255,204,51)" stroke-width="2" stroke-opacity="1" points="1022.215000,124.118333 1022.215000,563.333333 593.966667,563.333333"/>
	<text fill="rgb(0,0,0)" font-size="10" font-family="helvetica" text-anchor="end" dominant-baseline="central" x="577.517" y="596.233">staAhu</text>
	<polygon fill="rgb(255,255,255)" stroke="rgb(0,0,127)" stroke-opacity="1" points="583.000000,119.183333 593.966667,124.666667 583.000000,130.150000 583.000000,119.183333"/>
	<polygon fill="rgb(0,0,127)" stroke="rgb(0,0,127)" stroke-opacity="1" points="604.933333,333.033333 583.000000,344.000000 604.933333,354.966667 604.933333,333.033333"/>
	<polygon fill="rgb(255,255,255)" stroke="rgb(0,0,127)" stroke-opacity="1" points="473.333333,338.516667 462.366667,344.000000 473.333333,349.483333 473.333333,338.516667"/>
	<polygon fill="rgb(255,204,51)" stroke="rgb(0,0,0)" stroke-opacity="1" points="1021.666667,97.250000 1025.957375,97.263708 1030.056167,97.304833 1033.963042,97.373375 1037.678000,97.469333 1041.201042,97.592708 1044.532167,97.743500 1047.671375,97.921708 1050.618667,98.127333 1053.374042,98.360375 1055.937500,98.620833 1058.309042,98.908708 1060.488667,99.224000 1062.476375,99.566708 1064.272167,99.936833 1065.876042,100.334375 1067.288000,100.759333 1068.508042,101.211708 1069.536167,101.691500 1070.372375,102.198708 1071.016667,102.733333 1071.016667,102.733333 1072.003667,103.967083 1072.771333,105.475000 1073.319667,107.257083 1073.648667,109.313333 1073.758333,111.643750 1073.648667,114.248333 1073.319667,117.127083 1072.771333,120.280000 1072.003667,123.707083 1071.016667,127.408333 1071.016667,127.408333 1071.016667,127.408333 1069.920000,131.082167 1068.823333,134.427000 1067.726667,137.442833 1066.630000,140.129667 1065.533333,142.487500 1064.436667,144.516333 1063.340000,146.216167 1062.243333,147.587000 1061.146667,148.628833 1060.050000,149.341667 1060.050000,149.341667 1060.050000,149.341667 1058.679167,149.862583 1056.760000,150.328667 1054.292500,150.739917 1051.276667,151.096333 1047.712500,151.397917 1043.600000,151.644667 1038.939167,151.836583 1036.403125,151.911979 1033.730000,151.973667 1030.919792,152.021646 1027.972500,152.055917 1024.888125,152.076479 1021.666667,152.083333 1021.666667,152.083333 1018.445208,152.076479 1015.360833,152.055917 1012.413542,152.021646 1009.603333,151.973667 1006.930208,151.911979 1004.394167,151.836583 1001.995208,151.747479 999.733333,151.644667 997.608542,151.528146 995.620833,151.397917 993.770208,151.253979 992.056667,151.096333 990.480208,150.924979 989.040833,150.739917 987.738542,150.541146 986.573333,150.328667 985.545208,150.102479 984.654167,149.862583 983.900208,149.608979 983.283333,149.341667 983.283333,149.341667 982.186667,148.628833 981.090000,147.587000 979.993333,146.216167 978.896667,144.516333 977.800000,142.487500 976.703333,140.129667 975.606667,137.442833 974.510000,134.427000 973.413333,131.082167 972.316667,127.408333 972.316667,127.408333 972.316667,127.408333 971.329667,123.707083 970.562000,120.280000 970.013667,117.127083 969.684667,114.248333 969.575000,111.643750 969.684667,109.313333 970.013667,107.257083 970.562000,105.475000 971.329667,103.967083 972.316667,102.733333 972.316667,102.733333 972.316667,102.733333 973.797167,101.691500 976.045333,100.759333 979.061167,99.936833 982.844667,99.224000 987.395833,98.620833 989.959292,98.360375 992.714667,98.127333 995.661958,97.921708 998.801167,97.743500 1002.132292,97.592708 1005.655333,97.469333 1009.370292,97.373375 1013.277167,97.304833 1017.375958,97.263708 1021.666667,97.250000"/>
	<ellipse fill="none" stroke="rgb(0,0,0)" stroke-opacity="1" cx="988.767" cy="113.7" rx="2.74167" ry="2.74167"/>
	<ellipse fill="none" stroke="rgb(0,0,0)" stroke-opacity="1" cx="1021.67" cy="113.7" rx="2.74167" ry="2.74167"/>
	<ellipse fill="none" stroke="rgb(0,0,0)" stroke-opacity="1" cx="1054.57" cy="113.7" rx="2.74167" ry="2.74167"/>
	<ellipse fill="none" stroke="rgb(0,0,0)" stroke-opacity="1" cx="1005.22" cy="135.633" rx="2.74167" ry="2.74167"/>
	<ellipse fill="none" stroke="rgb(0,0,0)" stroke-opacity="1" cx="1038.12" cy="135.633" rx="2.74167" ry="2.74167"/>
	<text fill="rgb(0,0,0)" font-size="33" font-family="helvetica" text-anchor="middle" dominant-baseline="central" x="1021.67" y="64.35">terBus</text>
	<polygon fill="rgb(255,0,255)" stroke="rgb(255,0,255)" stroke-opacity="1" points="604.933333,552.366667 583.000000,563.333333 604.933333,574.300000 604.933333,552.366667"/>
	<polygon fill="rgb(255,255,255)" stroke="rgb(255,0,255)" stroke-opacity="1" points="473.333333,557.850000 462.366667,563.333333 473.333333,568.816667 473.333333,557.850000"/>
</svg>
