<?xml version="1.0" standalone="no"?>
<!DOCTYPE svg PUBLIC "-//W3C//DTD SVG 1.1//EN" "http://www.w3.org/Graphics/SVG/1.1/DTD/svg11.dtd">
<svg viewBox="0 0 1495.000000 688.000000" version="1.1" xmlns="http://www.w3.org/2000/svg" xmlns:xlink="http://www.w3.org/1999/xlink">
	<rect fill="rgb(235,235,235)" stroke="rgb(0,0,0)" stroke-opacity="1" x="336.25" y="146.6" width="164.5" height="65.8"/>
	<rect fill="rgb(172,168,153)" stroke="none" x="335.333" y="145.683" width="0.917333" height="66.7173"/>
	<rect fill="rgb(172,168,153)" stroke="none" x="335.333" y="212.4" width="165.417" height="0.917333"/>
	<rect fill="rgb(172,168,153)" stroke="none" x="500.75" y="146.6" width="0.917333" height="66.7173"/>
	<rect fill="rgb(172,168,153)" stroke="none" x="336.25" y="145.683" width="165.417" height="0.917333"/>
	<rect fill="rgb(255,255,255)" stroke="none" x="336.25" y="146.6" width="1.376" height="65.8"/>
	<rect fill="rgb(255,255,255)" stroke="none" x="336.25" y="146.6" width="164.5" height="1.376"/>
	<rect fill="rgb(113,111,100)" stroke="none" x="499.833" y="146.6" width="0.917333" height="65.8"/>
	<rect fill="rgb(113,111,100)" stroke="none" x="336.25" y="211.483" width="164.5" height="0.917333"/>
	<rect fill="rgb(172,168,153)" stroke="none" x="498.915" y="147.517" width="0.917333" height="63.9653"/>
	<rect fill="rgb(172,168,153)" stroke="none" x="337.167" y="210.565" width="162.665" height="0.917333"/>
	<text fill="rgb(0,0,0)" font-size="17" font-family="helvetica" text-anchor="middle" dominant-baseline="central" x="418.5" y="179.5">{i for i in 1:nTer}</text>
	<text fill="rgb(0,0,255)" font-size="33" font-family="helvetica" text-anchor="middle" dominant-baseline="central" x="418.5" y="121.925">outSig[]</text>
	<rect fill="rgb(235,235,235)" stroke="rgb(0,0,0)" stroke-opacity="1" x="336.25" y="146.6" width="164.5" height="65.8"/>
	<rect fill="rgb(172,168,153)" stroke="none" x="335.333" y="145.683" width="0.917333" height="66.7173"/>
	<rect fill="rgb(172,168,153)" stroke="none" x="335.333" y="212.4" width="165.417" height="0.917333"/>
	<rect fill="rgb(172,168,153)" stroke="none" x="500.75" y="146.6" width="0.917333" height="66.7173"/>
	<rect fill="rgb(172,168,153)" stroke="none" x="336.25" y="145.683" width="165.417" height="0.917333"/>
	<rect fill="rgb(255,255,255)" stroke="none" x="336.25" y="146.6" width="1.376" height="65.8"/>
	<rect fill="rgb(255,255,255)" stroke="none" x="336.25" y="146.6" width="164.5" height="1.376"/>
	<rect fill="rgb(113,111,100)" stroke="none" x="499.833" y="146.6" width="0.917333" height="65.8"/>
	<rect fill="rgb(113,111,100)" stroke="none" x="336.25" y="211.483" width="164.5" height="0.917333"/>
	<rect fill="rgb(172,168,153)" stroke="none" x="498.915" y="147.517" width="0.917333" height="63.9653"/>
	<rect fill="rgb(172,168,153)" stroke="none" x="337.167" y="210.565" width="162.665" height="0.917333"/>
	<text fill="rgb(0,0,0)" font-size="17" font-family="helvetica" text-anchor="middle" dominant-baseline="central" x="418.5" y="179.5">{i for i in 1:nTer}</text>
	<text fill="rgb(0,0,255)" font-size="33" font-family="helvetica" text-anchor="middle" dominant-baseline="central" x="418.5" y="121.925">outSig[]</text>
	<rect fill="rgb(255,255,255)" stroke="rgb(0,0,127)" stroke-opacity="1" x="336.25" y="426.25" width="164.5" height="164.5"/>
	<text fill="rgb(0,0,255)" font-size="33" font-family="helvetica" text-anchor="middle" dominant-baseline="central" x="418.5" y="401.575">inpSig[]</text>
	<polyline fill="none" stroke="rgb(0,0,127)" stroke-opacity="1" points="500.750000,508.500000 336.250000,508.500000"/>
	<rect fill="rgb(255,255,255)" stroke="rgb(0,0,127)" stroke-opacity="1" x="336.25" y="426.25" width="164.5" height="164.5"/>
	<text fill="rgb(0,0,255)" font-size="33" font-family="helvetica" text-anchor="middle" dominant-baseline="central" x="418.5" y="401.575">inpSig[]</text>
	<polyline fill="none" stroke="rgb(0,0,127)" stroke-opacity="1" points="500.750000,508.500000 336.250000,508.500000"/>
	<polyline fill="none" stroke="rgb(255,255,255)" stroke-width="5" stroke-opacity="1" points="508.975000,179.500000 1092.950000,179.500000"/>
	<polyline fill="none" stroke="rgb(0,0,127)" stroke-opacity="1" points="508.975000,179.500000 1092.950000,179.500000"/>
	<text fill="rgb(0,0,0)" font-size="10" font-family="helvetica" text-anchor="start" dominant-baseline="central" x="558.325" y="154.825">outSig</text>
	<polyline fill="none" stroke="rgb(255,255,255)" stroke-width="6" stroke-opacity="1" points="1092.950000,179.500000 1092.950000,508.500000 517.200000,508.500000"/>
	<polyline fill="none" stroke="rgb(255,204,51)" stroke-width="2" stroke-opacity="1" points="1092.950000,179.500000 1092.950000,508.500000 517.200000,508.500000"/>
	<text fill="rgb(0,0,0)" font-size="10" font-family="helvetica" text-anchor="start" dominant-baseline="central" x="566.55" y="483.825">inpSig</text>
	<polygon fill="rgb(255,255,255)" stroke="rgb(0,0,127)" stroke-opacity="1" points="500.750000,171.275000 517.200000,179.500000 500.750000,187.725000 500.750000,171.275000"/>
	<polygon fill="rgb(255,255,255)" stroke="rgb(0,0,127)" stroke-opacity="1" points="500.750000,171.275000 517.200000,179.500000 500.750000,187.725000 500.750000,171.275000"/>
	<polygon fill="rgb(0,0,127)" stroke="rgb(0,0,127)" stroke-opacity="1" points="533.650000,492.050000 500.750000,508.500000 533.650000,524.950000 533.650000,492.050000"/>
	<polygon fill="rgb(255,255,255)" stroke="rgb(0,0,127)" stroke-opacity="1" points="336.250000,500.275000 319.800000,508.500000 336.250000,516.725000 336.250000,500.275000"/>
	<polygon fill="rgb(0,0,127)" stroke="rgb(0,0,127)" stroke-opacity="1" points="533.650000,492.050000 500.750000,508.500000 533.650000,524.950000 533.650000,492.050000"/>
	<polygon fill="rgb(255,255,255)" stroke="rgb(0,0,127)" stroke-opacity="1" points="336.250000,500.275000 319.800000,508.500000 336.250000,516.725000 336.250000,500.275000"/>
	<polygon fill="rgb(255,204,51)" stroke="rgb(0,0,0)" stroke-opacity="1" points="1092.950000,138.375000 1099.386062,138.395563 1105.534250,138.457250 1111.394562,138.560062 1116.967000,138.704000 1122.251563,138.889062 1127.248250,139.115250 1131.957063,139.382562 1136.378000,139.691000 1140.511062,140.040562 1144.356250,140.431250 1147.913562,140.863063 1151.183000,141.336000 1154.164562,141.850062 1156.858250,142.405250 1159.264062,143.001563 1161.382000,143.639000 1163.212063,144.317563 1164.754250,145.037250 1166.008562,145.798063 1166.975000,146.600000 1166.975000,146.600000 1168.455500,148.450625 1169.607000,150.712500 1170.429500,153.385625 1170.923000,156.470000 1171.087500,159.965625 1170.923000,163.872500 1170.429500,168.190625 1169.607000,172.920000 1169.072375,175.438906 1168.455500,178.060625 1167.756375,180.785156 1166.975000,183.612500 1166.975000,183.612500 1166.975000,183.612500 1166.152500,186.429563 1165.330000,189.123250 1164.507500,191.693563 1163.685000,194.140500 1162.862500,196.464063 1162.040000,198.664250 1161.217500,200.741062 1160.395000,202.694500 1159.572500,204.524563 1158.750000,206.231250 1157.927500,207.814562 1157.105000,209.274500 1156.282500,210.611063 1155.460000,211.824250 1154.637500,212.914062 1153.815000,213.880500 1152.992500,214.723562 1152.170000,215.443250 1151.347500,216.039562 1150.525000,216.512500 1150.525000,216.512500 1148.468750,217.293875 1145.590000,217.993000 1141.888750,218.609875 1137.365000,219.144500 1134.794688,219.380969 1132.018750,219.596875 1129.037188,219.792219 1125.850000,219.967000 1122.457187,220.121219 1118.858750,220.254875 1115.054688,220.367969 1111.045000,220.460500 1106.829688,220.532469 1102.408750,220.583875 1097.782187,220.614719 1092.950000,220.625000 1092.950000,220.625000 1088.117813,220.614719 1083.491250,220.583875 1079.070312,220.532469 1074.855000,220.460500 1070.845313,220.367969 1067.041250,220.254875 1063.442813,220.121219 1060.050000,219.967000 1056.862813,219.792219 1053.881250,219.596875 1051.105313,219.380969 1048.535000,219.144500 1046.170313,218.887469 1044.011250,218.609875 1042.057813,218.311719 1040.310000,217.993000 1038.767813,217.653719 1037.431250,217.293875 1036.300313,216.913469 1035.375000,216.512500 1035.375000,216.512500 1033.730000,215.443250 1032.085000,213.880500 1030.440000,211.824250 1028.795000,209.274500 1027.150000,206.231250 1025.505000,202.694500 1023.860000,198.664250 1022.215000,194.140500 1021.392500,191.693563 1020.570000,189.123250 1019.747500,186.429563 1018.925000,183.612500 1018.925000,183.612500 1018.925000,183.612500 1018.143625,180.785156 1017.444500,178.060625 1016.827625,175.438906 1016.293000,172.920000 1015.840625,170.503906 1015.470500,168.190625 1015.182625,165.980156 1014.977000,163.872500 1014.853625,161.867656 1014.812500,159.965625 1014.853625,158.166406 1014.977000,156.470000 1015.182625,154.876406 1015.470500,153.385625 1015.840625,151.997656 1016.293000,150.712500 1016.827625,149.530156 1017.444500,148.450625 1018.143625,147.473906 1018.925000,146.600000 1018.925000,146.600000 1021.145750,145.037250 1024.518000,143.639000 1029.041750,142.405250 1031.735437,141.850062 1034.717000,141.336000 1037.986438,140.863063 1041.543750,140.431250 1045.388937,140.040563 1049.522000,139.691000 1053.942937,139.382562 1058.651750,139.115250 1063.648438,138.889062 1068.933000,138.704000 1074.505437,138.560062 1080.365750,138.457250 1086.513938,138.395562 1092.950000,138.375000"/>
	<ellipse fill="none" stroke="rgb(0,0,0)" stroke-opacity="1" cx="1043.6" cy="163.05" rx="4.1125" ry="4.1125"/>
	<ellipse fill="none" stroke="rgb(0,0,0)" stroke-opacity="1" cx="1092.95" cy="163.05" rx="4.1125" ry="4.1125"/>
	<ellipse fill="none" stroke="rgb(0,0,0)" stroke-opacity="1" cx="1142.3" cy="163.05" rx="4.1125" ry="4.1125"/>
	<ellipse fill="none" stroke="rgb(0,0,0)" stroke-opacity="1" cx="1068.28" cy="195.95" rx="4.1125" ry="4.1125"/>
	<ellipse fill="none" stroke="rgb(0,0,0)" stroke-opacity="1" cx="1117.62" cy="195.95" rx="4.1125" ry="4.1125"/>
	<text fill="rgb(0,0,0)" font-size="49" font-family="helvetica" text-anchor="middle" dominant-baseline="central" x="1092.95" y="89.025">terBus[]</text>
</svg>
