<?xml version="1.0" standalone="no"?>
<!DOCTYPE svg PUBLIC "-//W3C//DTD SVG 1.1//EN" "http://www.w3.org/Graphics/SVG/1.1/DTD/svg11.dtd">
<svg viewBox="0 0 2767.000000 1147.000000" version="1.1" xmlns="http://www.w3.org/2000/svg" xmlns:xlink="http://www.w3.org/1999/xlink">
	<rect fill="rgb(255,255,255)" stroke="rgb(0,0,255)" stroke-opacity="1" x="255.833" y="291.583" width="563.833" height="563.833"/>
	<text fill="rgb(0,0,255)" font-size="68" font-family="helvetica" text-anchor="middle" dominant-baseline="central" x="537.75" y="573.5">controllerSystem</text>
	<rect fill="rgb(255,255,255)" stroke="rgb(0,0,255)" stroke-opacity="1" x="1947.33" y="291.583" width="563.833" height="563.833"/>
	<text fill="rgb(0,0,255)" font-size="68" font-family="helvetica" text-anchor="middle" dominant-baseline="central" x="2229.25" y="573.5">controlledSystem</text>
	<polyline fill="none" stroke="rgb(255,255,255)" stroke-width="6" stroke-opacity="1" points="819.666667,573.500000 1947.333333,573.500000"/>
	<polyline fill="none" stroke="rgb(255,204,51)" stroke-width="2" stroke-opacity="1" points="819.666667,573.500000 1947.333333,573.500000"/>
	<rect fill="none" stroke="rgb(255,204,51)" stroke-width="2" stroke-opacity="1" x="805.571" y="572.09" width="28.1917" height="2.81917"/>
	<polygon fill="rgb(255,215,136)" stroke="rgb(0,0,0)" stroke-opacity="1" points="819.666667,538.260417 814.151672,538.278036 808.883354,538.330896 803.861714,538.418995 799.086750,538.542333 794.558464,538.700911 790.276854,538.894729 786.241922,539.123786 782.453667,539.388083 778.912089,539.687620 775.617187,540.022396 772.568964,540.392411 769.767417,540.797667 767.212547,541.238161 764.904354,541.713896 762.842839,542.224870 761.028000,542.771083 759.459839,543.352536 758.138354,543.969229 757.063547,544.621161 756.235417,545.308333 756.235417,545.308333 754.966792,546.894115 753.980083,548.832292 753.275292,551.122865 752.852417,553.765833 752.711458,556.761198 752.852417,560.108958 753.275292,563.809115 753.980083,567.861667 754.966792,572.266615 756.235417,577.023958 756.235417,577.023958 756.235417,577.023958 757.645000,581.746063 759.054583,586.045292 760.464167,589.921646 761.873750,593.375125 763.283333,596.405729 764.692917,599.013458 766.102500,601.198313 767.512083,602.960292 768.921667,604.299396 770.331250,605.215625 770.331250,605.215625 770.331250,605.215625 772.093229,605.885177 774.560000,606.484250 777.731562,607.012844 781.607917,607.470958 786.189062,607.858594 788.743932,608.025982 791.475000,608.175750 794.382266,608.307898 797.465729,608.422427 800.725391,608.519336 804.161250,608.598625 807.773307,608.660294 811.561563,608.704344 815.526016,608.730773 819.666667,608.739583 819.666667,608.739583 823.807318,608.730773 827.771771,608.704344 831.560026,608.660294 835.172083,608.598625 838.607943,608.519336 841.867604,608.422427 844.951068,608.307898 847.858333,608.175750 850.589401,608.025982 853.144271,607.858594 855.522943,607.673586 857.725417,607.470958 859.751693,607.250711 861.601771,607.012844 863.275651,606.757357 864.773333,606.484250 866.094818,606.193523 867.240104,605.885177 868.209193,605.559211 869.002083,605.215625 869.002083,605.215625 870.411667,604.299396 871.821250,602.960292 873.230833,601.198313 874.640417,599.013458 876.050000,596.405729 877.459583,593.375125 878.869167,589.921646 880.278750,586.045292 881.688333,581.746063 883.097917,577.023958 883.097917,577.023958 883.097917,577.023958 884.366542,572.266615 885.353250,567.861667 886.058042,563.809115 886.480917,560.108958 886.621875,556.761198 886.480917,553.765833 886.058042,551.122865 885.353250,548.832292 884.366542,546.894115 883.097917,545.308333 883.097917,545.308333 883.097917,545.308333 881.194979,543.969229 878.305333,542.771083 874.428979,541.713896 869.565917,540.797667 866.764370,540.392411 863.716146,540.022396 860.421245,539.687620 856.879667,539.388083 853.091411,539.123786 849.056479,538.894729 844.774870,538.700911 840.246583,538.542333 835.471620,538.418995 830.449979,538.330896 825.181661,538.278036 819.666667,538.260417"/>
	<ellipse fill="none" stroke="rgb(0,0,0)" stroke-opacity="1" transform=" rotate(-180, 861.954, 559.404)" cx="861.954" cy="559.404" rx="3.52396" ry="3.52396"/>
	<ellipse fill="none" stroke="rgb(0,0,0)" stroke-opacity="1" transform=" rotate(-180, 819.667, 559.404)" cx="819.667" cy="559.404" rx="3.52396" ry="3.52396"/>
	<ellipse fill="none" stroke="rgb(0,0,0)" stroke-opacity="1" transform=" rotate(-180, 777.379, 559.404)" cx="777.379" cy="559.404" rx="3.52396" ry="3.52396"/>
	<ellipse fill="none" stroke="rgb(0,0,0)" stroke-opacity="1" transform=" rotate(-180, 840.81, 587.596)" cx="840.81" cy="587.596" rx="3.52396" ry="3.52396"/>
	<ellipse fill="none" stroke="rgb(0,0,0)" stroke-opacity="1" transform=" rotate(-180, 798.523, 587.596)" cx="798.523" cy="587.596" rx="3.52396" ry="3.52396"/>
	<rect fill="none" stroke="rgb(255,204,51)" stroke-width="2" stroke-opacity="1" x="804.161" y="572.09" width="29.6012" height="2.81917"/>
	<rect fill="none" stroke="rgb(255,204,51)" stroke-width="2" stroke-opacity="1" x="1933.24" y="572.09" width="28.1917" height="2.81917"/>
	<polygon fill="rgb(255,215,136)" stroke="rgb(0,0,0)" stroke-opacity="1" points="1947.333333,538.260417 1952.848328,538.278036 1958.116646,538.330896 1963.138286,538.418995 1967.913250,538.542333 1972.441536,538.700911 1976.723146,538.894729 1980.758078,539.123786 1984.546333,539.388083 1988.087911,539.687620 1991.382812,540.022396 1994.431036,540.392411 1997.232583,540.797667 1999.787453,541.238161 2002.095646,541.713896 2004.157161,542.224870 2005.972000,542.771083 2007.540161,543.352536 2008.861646,543.969229 2009.936453,544.621161 2010.764583,545.308333 2010.764583,545.308333 2012.033208,546.894115 2013.019917,548.832292 2013.724708,551.122865 2014.147583,553.765833 2014.288542,556.761198 2014.147583,560.108958 2013.724708,563.809115 2013.019917,567.861667 2012.033208,572.266615 2010.764583,577.023958 2010.764583,577.023958 2010.764583,577.023958 2009.355000,581.746063 2007.945417,586.045292 2006.535833,589.921646 2005.126250,593.375125 2003.716667,596.405729 2002.307083,599.013458 2000.897500,601.198313 1999.487917,602.960292 1998.078333,604.299396 1996.668750,605.215625 1996.668750,605.215625 1996.668750,605.215625 1994.906771,605.885177 1992.440000,606.484250 1989.268438,607.012844 1985.392083,607.470958 1980.810938,607.858594 1978.256068,608.025982 1975.525000,608.175750 1972.617734,608.307898 1969.534271,608.422427 1966.274609,608.519336 1962.838750,608.598625 1959.226693,608.660294 1955.438437,608.704344 1951.473984,608.730773 1947.333333,608.739583 1947.333333,608.739583 1943.192682,608.730773 1939.228229,608.704344 1935.439974,608.660294 1931.827917,608.598625 1928.392057,608.519336 1925.132396,608.422427 1922.048932,608.307898 1919.141667,608.175750 1916.410599,608.025982 1913.855729,607.858594 1911.477057,607.673586 1909.274583,607.470958 1907.248307,607.250711 1905.398229,607.012844 1903.724349,606.757357 1902.226667,606.484250 1900.905182,606.193523 1899.759896,605.885177 1898.790807,605.559211 1897.997917,605.215625 1897.997917,605.215625 1896.588333,604.299396 1895.178750,602.960292 1893.769167,601.198313 1892.359583,599.013458 1890.950000,596.405729 1889.540417,593.375125 1888.130833,589.921646 1886.721250,586.045292 1885.311667,581.746063 1883.902083,577.023958 1883.902083,577.023958 1883.902083,577.023958 1882.633458,572.266615 1881.646750,567.861667 1880.941958,563.809115 1880.519083,560.108958 1880.378125,556.761198 1880.519083,553.765833 1880.941958,551.122865 1881.646750,548.832292 1882.633458,546.894115 1883.902083,545.308333 1883.902083,545.308333 1883.902083,545.308333 1885.805021,543.969229 1888.694667,542.771083 1892.571021,541.713896 1897.434083,540.797667 1900.235630,540.392411 1903.283854,540.022396 1906.578755,539.687620 1910.120333,539.388083 1913.908589,539.123786 1917.943521,538.894729 1922.225130,538.700911 1926.753417,538.542333 1931.528380,538.418995 1936.550021,538.330896 1941.818339,538.278036 1947.333333,538.260417"/>
	<ellipse fill="none" stroke="rgb(0,0,0)" stroke-opacity="1" cx="1905.05" cy="559.404" rx="3.52396" ry="3.52396"/>
	<ellipse fill="none" stroke="rgb(0,0,0)" stroke-opacity="1" cx="1947.33" cy="559.404" rx="3.52396" ry="3.52396"/>
	<ellipse fill="none" stroke="rgb(0,0,0)" stroke-opacity="1" cx="1989.62" cy="559.404" rx="3.52396" ry="3.52396"/>
	<ellipse fill="none" stroke="rgb(0,0,0)" stroke-opacity="1" cx="1926.19" cy="587.596" rx="3.52396" ry="3.52396"/>
	<ellipse fill="none" stroke="rgb(0,0,0)" stroke-opacity="1" cx="1968.48" cy="587.596" rx="3.52396" ry="3.52396"/>
	<rect fill="none" stroke="rgb(255,204,51)" stroke-width="2" stroke-opacity="1" x="1933.24" y="572.09" width="29.6012" height="2.81917"/>
</svg>
