<?xml version="1.0" standalone="no"?>
<!DOCTYPE svg PUBLIC "-//W3C//DTD SVG 1.1//EN" "http://www.w3.org/Graphics/SVG/1.1/DTD/svg11.dtd">
<svg viewBox="0 0 2684.000000 1215.000000" version="1.1" xmlns="http://www.w3.org/2000/svg" xmlns:xlink="http://www.w3.org/1999/xlink">
	<rect fill="rgb(255,255,255)" stroke="rgb(0,0,127)" stroke-opacity="1" x="1461.75" y="320.1" width="239.5" height="239.5"/>
	<ellipse fill="rgb(255,255,255)" stroke="rgb(0,0,127)" stroke-opacity="1" cx="1581.5" cy="439.85" rx="59.875" ry="59.875"/>
	<text fill="rgb(0,0,255)" font-size="48" font-family="helvetica" text-anchor="middle" dominant-baseline="central" x="1581.5" y="284.175">controller</text>
	<polyline fill="none" stroke="rgb(0,0,127)" stroke-opacity="1" points="1641.375000,439.850000 1701.250000,439.850000"/>
	<polyline fill="none" stroke="rgb(0,0,0)" stroke-opacity="1" points="1545.575000,439.850000 1617.425000,439.850000"/>
	<ellipse fill="none" stroke="rgb(0,0,0)" stroke-opacity="1" cx="1581.5" cy="409.913" rx="5.9875" ry="5.9875"/>
	<ellipse fill="none" stroke="rgb(0,0,0)" stroke-opacity="1" cx="1581.5" cy="469.788" rx="5.9875" ry="5.9875"/>
	<text fill="rgb(0,0,255)" font-size="48" font-family="helvetica" text-anchor="middle" dominant-baseline="central" x="1581.5" y="284.175">controller</text>
	<polyline fill="none" stroke="rgb(0,0,127)" stroke-opacity="1" points="1461.750000,368.000000 1502.465000,368.000000 1533.600000,403.925000"/>
	<polyline fill="none" stroke="rgb(0,0,127)" stroke-opacity="1" points="1461.750000,511.700000 1581.500000,511.700000 1581.500000,499.725000"/>
	<rect fill="rgb(255,255,255)" stroke="rgb(0,0,127)" stroke-opacity="1" x="863" y="128.5" width="239.5" height="239.5"/>
	<text fill="rgb(0,0,255)" font-size="48" font-family="helvetica" text-anchor="middle" dominant-baseline="central" x="982.75" y="92.575">realPassThrough</text>
	<polyline fill="none" stroke="rgb(0,0,127)" stroke-opacity="1" points="863.000000,248.250000 1102.500000,248.250000"/>
	<polyline fill="none" stroke="rgb(255,255,255)" stroke-width="5" stroke-opacity="1" points="1114.475000,248.250000 1294.100000,248.250000 1294.100000,368.000000 1437.800000,368.000000"/>
	<polyline fill="none" stroke="rgb(0,0,127)" stroke-opacity="1" points="1114.475000,248.250000 1294.100000,248.250000 1294.100000,368.000000 1437.800000,368.000000"/>
	<polygon fill="rgb(0,0,127)" stroke="rgb(0,0,127)" stroke-opacity="1" points="1437.800000,356.025000 1461.750000,368.000000 1437.800000,379.975000 1437.800000,356.025000"/>
	<polygon fill="rgb(0,0,127)" stroke="rgb(0,0,127)" stroke-opacity="1" points="1437.800000,499.725000 1461.750000,511.700000 1437.800000,523.675000 1437.800000,499.725000"/>
	<polygon fill="rgb(255,255,255)" stroke="rgb(0,0,127)" stroke-opacity="1" points="1701.250000,427.875000 1725.200000,439.850000 1701.250000,451.825000 1701.250000,427.875000"/>
	<polygon fill="rgb(0,0,127)" stroke="rgb(0,0,127)" stroke-opacity="1" points="815.100000,224.300000 863.000000,248.250000 815.100000,272.200000 815.100000,224.300000"/>
	<polygon fill="rgb(255,255,255)" stroke="rgb(0,0,127)" stroke-opacity="1" points="1102.500000,236.275000 1126.450000,248.250000 1102.500000,260.225000 1102.500000,236.275000"/>
	<rect fill="rgb(0,0,255)" stroke="rgb(0,0,255)" stroke-opacity="1" x="1485.7" y="847" width="239.5" height="239.5"/>
	<text fill="rgb(255,255,255)" font-size="29" font-family="helvetica" text-anchor="middle" dominant-baseline="central" x="1605.45" y="966.75">nonExpandableBus</text>
</svg>
