<?xml version="1.0" standalone="no"?>
<!DOCTYPE svg PUBLIC "-//W3C//DTD SVG 1.1//EN" "http://www.w3.org/Graphics/SVG/1.1/DTD/svg11.dtd">
<svg viewBox="0 0 1495.000000 688.000000" version="1.1" xmlns="http://www.w3.org/2000/svg" xmlns:xlink="http://www.w3.org/1999/xlink">
	<text fill="rgb(28,108,200)" font-size="22" font-family="helvetica" text-anchor="start" dominant-baseline="central" x="234.75" y="-304.375">
		<tspan x="234.75" dy="0">Bug Dymola expandable connector:</tspan>
		<tspan x="234.75" dy="22"></tspan>
		<tspan x="234.75" dy="22">GUI does not allow connecting directly dummyTerminal[:].ahuTer to dummyCentral.ahuBus.ahuTer[:]</tspan>
		<tspan x="234.75" dy="22"></tspan>
		<tspan x="234.75" dy="22">I do not see what prevents that syntax in Modelica specification. </tspan>
		<tspan x="234.75" dy="22">To the contrary I read "expandable connectors can be connected even if they do not contain the same components".</tspan>
		<tspan x="234.75" dy="22"></tspan>
		<tspan x="234.75" dy="22">When manually specifying the connect statement as above the model:</tspan>
		<tspan x="234.75" dy="22">- fails to translate with Dymola with the message "Connect argument was not one of the valid forms, since dummyCentralSystem is not a connector".</tspan>
		<tspan x="234.75" dy="22">- translates and simulates with OCT.</tspan>
	</text>
	<rect fill="rgb(255,255,255)" stroke="rgb(0,0,127)" stroke-opacity="1" x="991.667" y="221.917" width="244.167" height="244.167"/>
	<text fill="rgb(0,0,255)" font-size="49" font-family="helvetica" text-anchor="middle" dominant-baseline="central" x="1113.75" y="185.292">dummyTerminal[]</text>
	<rect fill="rgb(255,255,255)" stroke="rgb(0,0,127)" stroke-opacity="1" x="991.667" y="221.917" width="244.167" height="244.167"/>
	<text fill="rgb(0,0,255)" font-size="49" font-family="helvetica" text-anchor="middle" dominant-baseline="central" x="1113.75" y="185.292">dummyTerminal[]</text>
	<rect fill="rgb(255,255,255)" stroke="rgb(0,0,127)" stroke-opacity="1" x="259.167" y="221.917" width="244.167" height="244.167"/>
	<text fill="rgb(0,0,255)" font-size="49" font-family="helvetica" text-anchor="middle" dominant-baseline="central" x="381.25" y="185.292">dummyCentral</text>
	<rect fill="none" stroke="rgb(255,204,51)" stroke-width="2" stroke-opacity="1" x="1157.7" y="343.512" width="9.76667" height="0.976667"/>
	<polygon fill="rgb(255,215,136)" stroke="rgb(0,0,0)" stroke-opacity="1" points="1162.583333,331.791667 1166.319083,331.816083 1169.713000,331.889333 1172.765083,332.011417 1175.475333,332.182333 1177.843750,332.402083 1179.870333,332.670667 1181.555083,332.988083 1182.898000,333.354333 1183.899083,333.769417 1184.558333,334.233333 1184.558333,334.233333 1184.558333,334.233333 1184.997833,334.782708 1185.339667,335.454167 1185.583833,336.247708 1185.730333,337.163333 1185.779167,338.201042 1185.730333,339.360833 1185.583833,340.642708 1185.339667,342.046667 1184.997833,343.572708 1184.558333,345.220833 1184.558333,345.220833 1184.558333,345.220833 1184.070000,346.856750 1183.581667,348.346167 1183.093333,349.689083 1182.605000,350.885500 1182.116667,351.935417 1181.628333,352.838833 1181.140000,353.595750 1180.651667,354.206167 1180.163333,354.670083 1179.675000,354.987500 1179.675000,354.987500 1179.675000,354.987500 1179.064583,355.219458 1178.210000,355.427000 1177.111250,355.610125 1175.768333,355.768833 1174.181250,355.903125 1172.350000,356.013000 1170.274583,356.098458 1167.955000,356.159500 1165.391250,356.196125 1162.583333,356.208333 1162.583333,356.208333 1162.583333,356.208333 1159.775417,356.196125 1157.211667,356.159500 1154.892083,356.098458 1152.816667,356.013000 1150.985417,355.903125 1149.398333,355.768833 1148.055417,355.610125 1146.956667,355.427000 1146.102083,355.219458 1145.491667,354.987500 1145.491667,354.987500 1145.491667,354.987500 1145.003333,354.670083 1144.515000,354.206167 1144.026667,353.595750 1143.538333,352.838833 1143.050000,351.935417 1142.561667,350.885500 1142.073333,349.689083 1141.585000,348.346167 1141.096667,346.856750 1140.608333,345.220833 1140.608333,345.220833 1140.608333,345.220833 1140.168833,343.572708 1139.827000,342.046667 1139.582833,340.642708 1139.436333,339.360833 1139.387500,338.201042 1139.436333,337.163333 1139.582833,336.247708 1139.827000,335.454167 1140.168833,334.782708 1140.608333,334.233333 1140.608333,334.233333 1140.608333,334.233333 1141.267583,333.769417 1142.268667,333.354333 1143.611583,332.988083 1145.296333,332.670667 1147.322917,332.402083 1149.691333,332.182333 1152.401583,332.011417 1155.453667,331.889333 1158.847583,331.816083 1162.583333,331.791667 1162.583333,331.791667"/>
	<ellipse fill="none" stroke="rgb(0,0,0)" stroke-opacity="1" cx="1147.93" cy="339.117" rx="1.22083" ry="1.22083"/>
	<ellipse fill="none" stroke="rgb(0,0,0)" stroke-opacity="1" cx="1162.58" cy="339.117" rx="1.22083" ry="1.22083"/>
	<ellipse fill="none" stroke="rgb(0,0,0)" stroke-opacity="1" cx="1177.23" cy="339.117" rx="1.22083" ry="1.22083"/>
	<ellipse fill="none" stroke="rgb(0,0,0)" stroke-opacity="1" cx="1155.26" cy="348.883" rx="1.22083" ry="1.22083"/>
	<ellipse fill="none" stroke="rgb(0,0,0)" stroke-opacity="1" cx="1169.91" cy="348.883" rx="1.22083" ry="1.22083"/>
	<rect fill="none" stroke="rgb(255,204,51)" stroke-width="2" stroke-opacity="1" x="1157.7" y="343.512" width="9.76667" height="0.976667"/>
	<polygon fill="rgb(255,215,136)" stroke="rgb(0,0,0)" stroke-opacity="1" points="1162.583333,331.791667 1166.319083,331.816083 1169.713000,331.889333 1172.765083,332.011417 1175.475333,332.182333 1177.843750,332.402083 1179.870333,332.670667 1181.555083,332.988083 1182.898000,333.354333 1183.899083,333.769417 1184.558333,334.233333 1184.558333,334.233333 1184.558333,334.233333 1184.997833,334.782708 1185.339667,335.454167 1185.583833,336.247708 1185.730333,337.163333 1185.779167,338.201042 1185.730333,339.360833 1185.583833,340.642708 1185.339667,342.046667 1184.997833,343.572708 1184.558333,345.220833 1184.558333,345.220833 1184.558333,345.220833 1184.070000,346.856750 1183.581667,348.346167 1183.093333,349.689083 1182.605000,350.885500 1182.116667,351.935417 1181.628333,352.838833 1181.140000,353.595750 1180.651667,354.206167 1180.163333,354.670083 1179.675000,354.987500 1179.675000,354.987500 1179.675000,354.987500 1179.064583,355.219458 1178.210000,355.427000 1177.111250,355.610125 1175.768333,355.768833 1174.181250,355.903125 1172.350000,356.013000 1170.274583,356.098458 1167.955000,356.159500 1165.391250,356.196125 1162.583333,356.208333 1162.583333,356.208333 1162.583333,356.208333 1159.775417,356.196125 1157.211667,356.159500 1154.892083,356.098458 1152.816667,356.013000 1150.985417,355.903125 1149.398333,355.768833 1148.055417,355.610125 1146.956667,355.427000 1146.102083,355.219458 1145.491667,354.987500 1145.491667,354.987500 1145.491667,354.987500 1145.003333,354.670083 1144.515000,354.206167 1144.026667,353.595750 1143.538333,352.838833 1143.050000,351.935417 1142.561667,350.885500 1142.073333,349.689083 1141.585000,348.346167 1141.096667,346.856750 1140.608333,345.220833 1140.608333,345.220833 1140.608333,345.220833 1140.168833,343.572708 1139.827000,342.046667 1139.582833,340.642708 1139.436333,339.360833 1139.387500,338.201042 1139.436333,337.163333 1139.582833,336.247708 1139.827000,335.454167 1140.168833,334.782708 1140.608333,334.233333 1140.608333,334.233333 1140.608333,334.233333 1141.267583,333.769417 1142.268667,333.354333 1143.611583,332.988083 1145.296333,332.670667 1147.322917,332.402083 1149.691333,332.182333 1152.401583,332.011417 1155.453667,331.889333 1158.847583,331.816083 1162.583333,331.791667 1162.583333,331.791667"/>
	<ellipse fill="none" stroke="rgb(0,0,0)" stroke-opacity="1" cx="1147.93" cy="339.117" rx="1.22083" ry="1.22083"/>
	<ellipse fill="none" stroke="rgb(0,0,0)" stroke-opacity="1" cx="1162.58" cy="339.117" rx="1.22083" ry="1.22083"/>
	<ellipse fill="none" stroke="rgb(0,0,0)" stroke-opacity="1" cx="1177.23" cy="339.117" rx="1.22083" ry="1.22083"/>
	<ellipse fill="none" stroke="rgb(0,0,0)" stroke-opacity="1" cx="1155.26" cy="348.883" rx="1.22083" ry="1.22083"/>
	<ellipse fill="none" stroke="rgb(0,0,0)" stroke-opacity="1" cx="1169.91" cy="348.883" rx="1.22083" ry="1.22083"/>
	<rect fill="none" stroke="rgb(255,204,51)" stroke-width="2" stroke-opacity="1" x="425.2" y="344.708" width="9.76667" height="1.0255"/>
	<polygon fill="rgb(255,215,136)" stroke="rgb(0,0,0)" stroke-opacity="1" points="430.083333,332.402083 433.819083,332.427721 437.213000,332.504633 440.265083,332.632821 442.975333,332.812283 445.343750,333.043021 447.370333,333.325033 449.055083,333.658321 450.398000,334.042883 451.399083,334.478721 452.058333,334.965833 452.058333,334.965833 452.058333,334.965833 452.497833,335.542677 452.839667,336.247708 453.083833,337.080927 453.230333,338.042333 453.279167,339.131927 453.230333,340.349708 453.083833,341.695677 452.839667,343.169833 452.497833,344.772177 452.058333,346.502708 452.058333,346.502708 452.058333,346.502708 451.570000,348.220421 451.081667,349.784308 450.593333,351.194371 450.105000,352.450608 449.616667,353.553021 449.128333,354.501608 448.640000,355.296371 448.151667,355.937308 447.663333,356.424421 447.175000,356.757708 447.175000,356.757708 447.175000,356.757708 446.564583,357.001265 445.710000,357.219183 444.611250,357.411465 443.268333,357.578108 441.681250,357.719115 439.850000,357.834483 437.774583,357.924215 435.455000,357.988308 432.891250,358.026765 430.083333,358.039583 430.083333,358.039583 430.083333,358.039583 427.275417,358.026765 424.711667,357.988308 422.392083,357.924215 420.316667,357.834483 418.485417,357.719115 416.898333,357.578108 415.555417,357.411465 414.456667,357.219183 413.602083,357.001265 412.991667,356.757708 412.991667,356.757708 412.991667,356.757708 412.503333,356.424421 412.015000,355.937308 411.526667,355.296371 411.038333,354.501608 410.550000,353.553021 410.061667,352.450608 409.573333,351.194371 409.085000,349.784308 408.596667,348.220421 408.108333,346.502708 408.108333,346.502708 408.108333,346.502708 407.668833,344.772177 407.327000,343.169833 407.082833,341.695677 406.936333,340.349708 406.887500,339.131927 406.936333,338.042333 407.082833,337.080927 407.327000,336.247708 407.668833,335.542677 408.108333,334.965833 408.108333,334.965833 408.108333,334.965833 408.767583,334.478721 409.768667,334.042883 411.111583,333.658321 412.796333,333.325033 414.822917,333.043021 417.191333,332.812283 419.901583,332.632821 422.953667,332.504633 426.347583,332.427721 430.083333,332.402083 430.083333,332.402083"/>
	<ellipse fill="none" stroke="rgb(0,0,0)" stroke-opacity="1" cx="415.433" cy="340.093" rx="1.22083" ry="1.28188"/>
	<ellipse fill="none" stroke="rgb(0,0,0)" stroke-opacity="1" cx="430.083" cy="340.093" rx="1.22083" ry="1.28188"/>
	<ellipse fill="none" stroke="rgb(0,0,0)" stroke-opacity="1" cx="444.733" cy="340.093" rx="1.22083" ry="1.28188"/>
	<ellipse fill="none" stroke="rgb(0,0,0)" stroke-opacity="1" cx="422.758" cy="350.348" rx="1.22083" ry="1.28188"/>
	<ellipse fill="none" stroke="rgb(0,0,0)" stroke-opacity="1" cx="437.408" cy="350.348" rx="1.22083" ry="1.28188"/>
	<rect fill="none" stroke="rgb(255,204,51)" stroke-width="2" stroke-opacity="1" x="425.2" y="344.708" width="10.255" height="1.0255"/>
</svg>
