<?xml version="1.0" encoding="UTF-8" standalone="no"?><svg xmlns="http://www.w3.org/2000/svg" xmlns:xlink="http://www.w3.org/1999/xlink" contentScriptType="application/ecmascript" contentStyleType="text/css" height="520px" preserveAspectRatio="none" style="width:808px;height:520px;" version="1.1" viewBox="0 0 808 520" width="808px" zoomAndPan="magnify"><defs><filter height="300%" id="f1tifcddbammkj" width="300%" x="-1" y="-1"><feGaussianBlur result="blurOut" stdDeviation="2.0"/><feColorMatrix in="blurOut" result="blurOut2" type="matrix" values="0 0 0 0 0 0 0 0 0 0 0 0 0 0 0 0 0 0 .4 0"/><feOffset dx="4.0" dy="4.0" in="blurOut2" result="blurOut3"/><feBlend in="SourceGraphic" in2="blurOut3" mode="normal"/></filter></defs><g><text fill="#000000" font-family="sans-serif" font-size="14" font-weight="bold" lengthAdjust="spacingAndGlyphs" textLength="397" x="204.5" y="22.9951">Customizing a control sequence for a VAV system</text><line style="stroke: #A80036; stroke-width: 1.0; stroke-dasharray: 5.0,5.0;" x1="33" x2="33" y1="68.5938" y2="480.3203"/><line style="stroke: #A80036; stroke-width: 1.0; stroke-dasharray: 5.0,5.0;" x1="217" x2="217" y1="68.5938" y2="480.3203"/><line style="stroke: #A80036; stroke-width: 1.0; stroke-dasharray: 5.0,5.0;" x1="462.5" x2="462.5" y1="68.5938" y2="480.3203"/><rect fill="#FEFECE" filter="url(#f1tifcddbammkj)" height="30.2969" style="stroke: #A80036; stroke-width: 1.5;" width="46" x="8" y="33.2969"/><text fill="#000000" font-family="sans-serif" font-size="14" lengthAdjust="spacingAndGlyphs" textLength="32" x="15" y="53.292">User</text><rect fill="#FEFECE" filter="url(#f1tifcddbammkj)" height="30.2969" style="stroke: #A80036; stroke-width: 1.5;" width="46" x="8" y="479.3203"/><text fill="#000000" font-family="sans-serif" font-size="14" lengthAdjust="spacingAndGlyphs" textLength="32" x="15" y="499.3154">User</text><rect fill="#FEFECE" filter="url(#f1tifcddbammkj)" height="30.2969" style="stroke: #A80036; stroke-width: 1.5;" width="96" x="167" y="33.2969"/><text fill="#000000" font-family="sans-serif" font-size="14" lengthAdjust="spacingAndGlyphs" textLength="82" x="174" y="53.292">OpenStudio</text><rect fill="#FEFECE" filter="url(#f1tifcddbammkj)" height="30.2969" style="stroke: #A80036; stroke-width: 1.5;" width="96" x="167" y="479.3203"/><text fill="#000000" font-family="sans-serif" font-size="14" lengthAdjust="spacingAndGlyphs" textLength="82" x="174" y="499.3154">OpenStudio</text><rect fill="#FEFECE" filter="url(#f1tifcddbammkj)" height="30.2969" style="stroke: #A80036; stroke-width: 1.5;" width="151" x="385.5" y="33.2969"/><text fill="#000000" font-family="sans-serif" font-size="14" lengthAdjust="spacingAndGlyphs" textLength="137" x="392.5" y="53.292">Control Design Tool</text><rect fill="#FEFECE" filter="url(#f1tifcddbammkj)" height="30.2969" style="stroke: #A80036; stroke-width: 1.5;" width="151" x="385.5" y="479.3203"/><text fill="#000000" font-family="sans-serif" font-size="14" lengthAdjust="spacingAndGlyphs" textLength="137" x="392.5" y="499.3154">Control Design Tool</text><polygon fill="#A80036" points="205,95.5938,215,99.5938,205,103.5938,209,99.5938" style="stroke: #A80036; stroke-width: 1.0;"/><line style="stroke: #A80036; stroke-width: 1.0;" x1="33" x2="211" y1="99.5938" y2="99.5938"/><text fill="#000000" font-family="sans-serif" font-size="13" lengthAdjust="spacingAndGlyphs" textLength="160" x="40" y="94.6606">Open control design tool.</text><polygon fill="#A80036" points="451,124.7266,461,128.7266,451,132.7266,455,128.7266" style="stroke: #A80036; stroke-width: 1.0;"/><line style="stroke: #A80036; stroke-width: 1.0;" x1="217" x2="457" y1="128.7266" y2="128.7266"/><text fill="#000000" font-family="sans-serif" font-size="13" lengthAdjust="spacingAndGlyphs" textLength="42" x="224" y="123.7935">open()</text><polygon fill="#A80036" points="451,153.8594,461,157.8594,451,161.8594,455,157.8594" style="stroke: #A80036; stroke-width: 1.0;"/><line style="stroke: #A80036; stroke-width: 1.0;" x1="33" x2="457" y1="157.8594" y2="157.8594"/><text fill="#000000" font-family="sans-serif" font-size="13" lengthAdjust="spacingAndGlyphs" textLength="204" x="40" y="152.9263">Open HVAC and building model.</text><polygon fill="#A80036" points="228,182.9922,218,186.9922,228,190.9922,224,186.9922" style="stroke: #A80036; stroke-width: 1.0;"/><line style="stroke: #A80036; stroke-width: 1.0;" x1="222" x2="462" y1="186.9922" y2="186.9922"/><text fill="#000000" font-family="sans-serif" font-size="13" lengthAdjust="spacingAndGlyphs" textLength="222" x="234" y="182.0591">Request HVAC and building model.</text><polygon fill="#A80036" points="451,212.125,461,216.125,451,220.125,455,216.125" style="stroke: #A80036; stroke-width: 1.0;"/><line style="stroke: #A80036; stroke-width: 1.0;" x1="33" x2="457" y1="216.125" y2="216.125"/><text fill="#000000" font-family="sans-serif" font-size="13" lengthAdjust="spacingAndGlyphs" textLength="294" x="40" y="211.1919">Drag &amp; drop pre-configured control sequence.</text><polygon fill="#A80036" points="451,241.2578,461,245.2578,451,249.2578,455,245.2578" style="stroke: #A80036; stroke-width: 1.0;"/><line style="stroke: #A80036; stroke-width: 1.0;" x1="33" x2="457" y1="245.2578" y2="245.2578"/><text fill="#000000" font-family="sans-serif" font-size="13" lengthAdjust="spacingAndGlyphs" textLength="368" x="40" y="240.3247">Select to store the control sequence in the project library.</text><line style="stroke: #A80036; stroke-width: 1.0;" x1="463" x2="505" y1="274.5234" y2="274.5234"/><line style="stroke: #A80036; stroke-width: 1.0;" x1="505" x2="505" y1="274.5234" y2="287.5234"/><line style="stroke: #A80036; stroke-width: 1.0;" x1="464" x2="505" y1="287.5234" y2="287.5234"/><polygon fill="#A80036" points="474,283.5234,464,287.5234,474,291.5234,470,287.5234" style="stroke: #A80036; stroke-width: 1.0;"/><text fill="#000000" font-family="sans-serif" font-size="13" lengthAdjust="spacingAndGlyphs" textLength="326" x="470" y="269.4575">Write the sequence to new file in the project library.</text><polygon fill="#A80036" points="451,312.5234,461,316.5234,451,320.5234,455,316.5234" style="stroke: #A80036; stroke-width: 1.0;"/><line style="stroke: #A80036; stroke-width: 1.0;" x1="33" x2="457" y1="316.5234" y2="316.5234"/><text fill="#000000" font-family="sans-serif" font-size="13" lengthAdjust="spacingAndGlyphs" textLength="393" x="40" y="311.5903">Connect sensors and actuators to control inputs and outputs.</text><polygon fill="#A80036" points="451,341.6563,461,345.6563,451,349.6563,455,345.6563" style="stroke: #A80036; stroke-width: 1.0;"/><line style="stroke: #A80036; stroke-width: 1.0;" x1="33" x2="457" y1="345.6563" y2="345.6563"/><text fill="#000000" font-family="sans-serif" font-size="13" lengthAdjust="spacingAndGlyphs" textLength="354" x="40" y="340.7231">Open new composite control block in the project library.</text><polygon fill="#A80036" points="451,370.7891,461,374.7891,451,378.7891,455,374.7891" style="stroke: #A80036; stroke-width: 1.0;"/><line style="stroke: #A80036; stroke-width: 1.0;" x1="33" x2="457" y1="374.7891" y2="374.7891"/><text fill="#000000" font-family="sans-serif" font-size="13" lengthAdjust="spacingAndGlyphs" textLength="306" x="40" y="369.856">Drag, drop and connect blocks from CDL library.</text><polygon fill="#A80036" points="451,399.9219,461,403.9219,451,407.9219,455,403.9219" style="stroke: #A80036; stroke-width: 1.0;"/><line style="stroke: #A80036; stroke-width: 1.0;" x1="33" x2="457" y1="403.9219" y2="403.9219"/><text fill="#000000" font-family="sans-serif" font-size="13" lengthAdjust="spacingAndGlyphs" textLength="87" x="40" y="398.9888">Check model.</text><polygon fill="#A80036" points="228,429.0547,218,433.0547,228,437.0547,224,433.0547" style="stroke: #A80036; stroke-width: 1.0;"/><line style="stroke: #A80036; stroke-width: 1.0;" x1="222" x2="462" y1="433.0547" y2="433.0547"/><text fill="#000000" font-family="sans-serif" font-size="13" lengthAdjust="spacingAndGlyphs" textLength="130" x="234" y="428.1216">Invoke model check.</text><polygon fill="#A80036" points="44,458.1875,34,462.1875,44,466.1875,40,462.1875" style="stroke: #A80036; stroke-width: 1.0;"/><line style="stroke: #A80036; stroke-width: 1.0;" x1="38" x2="462" y1="462.1875" y2="462.1875"/><text fill="#000000" font-family="sans-serif" font-size="13" lengthAdjust="spacingAndGlyphs" textLength="193" x="50" y="457.2544">Report info, warning and error.</text><!--
@startuml
title Customizing a control sequence for a VAV system

"User" -> "OpenStudio" : Open control design tool.
"OpenStudio" -> "Control Design Tool" : open()
"User" -> "Control Design Tool" : Open HVAC and building model.
"OpenStudio" <- "Control Design Tool" : Request HVAC and building model.
"User" -> "Control Design Tool" : Drag & drop pre-configured control sequence.
"User" -> "Control Design Tool" : Select to store the control sequence in the project library.
"Control Design Tool" -> "Control Design Tool" : Write the sequence to new file in the project library.
"User" -> "Control Design Tool" : Connect sensors and actuators to control inputs and outputs.
"User" -> "Control Design Tool" : Open new composite control block in the project library.
"User" -> "Control Design Tool" : Drag, drop and connect blocks from CDL library.
"User" -> "Control Design Tool" : Check model.
"OpenStudio" <- "Control Design Tool" : Invoke model check.
"User" <- "Control Design Tool" : Report info, warning and error.

@enduml

PlantUML version 1.2017.19(Sun Nov 12 03:46:22 PST 2017)
(GPL source distribution)
Java Runtime: OpenJDK Runtime Environment
JVM: OpenJDK 64-Bit Server VM
Java Version: 10.0.2+13-Ubuntu-1ubuntu0.18.04.4
Operating System: Linux
OS Version: 4.15.0-45-generic
Default Encoding: UTF-8
Language: en
Country: US
--></g></svg>