<?xml version="1.0" encoding="UTF-8" standalone="no"?><svg xmlns="http://www.w3.org/2000/svg" xmlns:xlink="http://www.w3.org/1999/xlink" contentScriptType="application/ecmascript" contentStyleType="text/css" height="412px" preserveAspectRatio="none" style="width:776px;height:412px;" version="1.1" viewBox="0 0 776 412" width="776px" zoomAndPan="magnify"><defs><filter height="300%" id="foqm2kthgxes1" width="300%" x="-1" y="-1"><feGaussianBlur result="blurOut" stdDeviation="2.0"/><feColorMatrix in="blurOut" result="blurOut2" type="matrix" values="0 0 0 0 0 0 0 0 0 0 0 0 0 0 0 0 0 0 .4 0"/><feOffset dx="4.0" dy="4.0" in="blurOut2" result="blurOut3"/><feBlend in="SourceGraphic" in2="blurOut3" mode="normal"/></filter></defs><g><!--cluster vt--><polygon fill="#FFFFFF" filter="url(#foqm2kthgxes1)" points="297,16,518,16,525,38.2969,724,38.2969,724,114,297,114,297,16" style="stroke: #000000; stroke-width: 2.0;"/><line style="stroke: #000000; stroke-width: 2.0;" x1="297" x2="525" y1="38.2969" y2="38.2969"/><text fill="#000000" font-family="sans-serif" font-size="14" font-weight="bold" lengthAdjust="spacingAndGlyphs" textLength="215" x="301" y="30.9951">Functional Verification Tool</text><!--entity I/O\nConfiguration--><rect fill="#FEFECE" filter="url(#foqm2kthgxes1)" height="62.5938" style="stroke: #A80036; stroke-width: 1.5;" width="132" x="584" y="43"/><rect fill="#FEFECE" height="10" style="stroke: #A80036; stroke-width: 1.5;" width="15" x="696" y="48"/><rect fill="#FEFECE" height="2" style="stroke: #A80036; stroke-width: 1.5;" width="4" x="694" y="50"/><rect fill="#FEFECE" height="2" style="stroke: #A80036; stroke-width: 1.5;" width="4" x="694" y="54"/><text fill="#000000" font-family="sans-serif" font-size="14" lengthAdjust="spacingAndGlyphs" textLength="19" x="599" y="75.9951">I/O</text><text fill="#000000" font-family="sans-serif" font-size="14" lengthAdjust="spacingAndGlyphs" textLength="92" x="599" y="92.292">Configuration</text><!--entity Engine--><rect fill="#FEFECE" filter="url(#foqm2kthgxes1)" height="46.2969" style="stroke: #A80036; stroke-width: 1.5;" width="88" x="305" y="51.5"/><rect fill="#FEFECE" height="10" style="stroke: #A80036; stroke-width: 1.5;" width="15" x="373" y="56.5"/><rect fill="#FEFECE" height="2" style="stroke: #A80036; stroke-width: 1.5;" width="4" x="371" y="58.5"/><rect fill="#FEFECE" height="2" style="stroke: #A80036; stroke-width: 1.5;" width="4" x="371" y="62.5"/><text fill="#000000" font-family="sans-serif" font-size="14" lengthAdjust="spacingAndGlyphs" textLength="48" x="320" y="84.4951">Engine</text><!--entity Viewer--><rect fill="#FEFECE" filter="url(#foqm2kthgxes1)" height="46.2969" style="stroke: #A80036; stroke-width: 1.5;" width="86" x="428" y="51.5"/><rect fill="#FEFECE" height="10" style="stroke: #A80036; stroke-width: 1.5;" width="15" x="494" y="56.5"/><rect fill="#FEFECE" height="2" style="stroke: #A80036; stroke-width: 1.5;" width="4" x="492" y="58.5"/><rect fill="#FEFECE" height="2" style="stroke: #A80036; stroke-width: 1.5;" width="4" x="492" y="62.5"/><text fill="#000000" font-family="sans-serif" font-size="14" lengthAdjust="spacingAndGlyphs" textLength="46" x="443" y="84.4951">Viewer</text><!--entity CDL Parser--><rect fill="#FEFECE" filter="url(#foqm2kthgxes1)" height="46.2969" style="stroke: #A80036; stroke-width: 1.5;" width="116" x="495" y="191.5"/><rect fill="#FEFECE" height="10" style="stroke: #A80036; stroke-width: 1.5;" width="15" x="591" y="196.5"/><rect fill="#FEFECE" height="2" style="stroke: #A80036; stroke-width: 1.5;" width="4" x="589" y="198.5"/><rect fill="#FEFECE" height="2" style="stroke: #A80036; stroke-width: 1.5;" width="4" x="589" y="202.5"/><text fill="#000000" font-family="sans-serif" font-size="14" lengthAdjust="spacingAndGlyphs" textLength="76" x="510" y="224.4951">CDL Parser</text><!--entity JModelica--><rect fill="#FEFECE" filter="url(#foqm2kthgxes1)" height="46.2969" style="stroke: #A80036; stroke-width: 1.5;" width="104" x="6" y="191.5"/><rect fill="#FEFECE" height="10" style="stroke: #A80036; stroke-width: 1.5;" width="15" x="90" y="196.5"/><rect fill="#FEFECE" height="2" style="stroke: #A80036; stroke-width: 1.5;" width="4" x="88" y="198.5"/><rect fill="#FEFECE" height="2" style="stroke: #A80036; stroke-width: 1.5;" width="4" x="88" y="202.5"/><text fill="#000000" font-family="sans-serif" font-size="14" lengthAdjust="spacingAndGlyphs" textLength="64" x="21" y="224.4951">JModelica</text><!--entity mod_ctl--><path d="M333.5,333 C333.5,323 374,323 374,323 C374,323 414.5,323 414.5,333 L414.5,390.8906 C414.5,400.8906 374,400.8906 374,400.8906 C374,400.8906 333.5,400.8906 333.5,390.8906 L333.5,333 " fill="#FEFECE" filter="url(#foqm2kthgxes1)" style="stroke: #000000; stroke-width: 1.5;"/><path d="M333.5,333 C333.5,343 374,343 374,343 C374,343 414.5,343 414.5,333 " fill="none" style="stroke: #000000; stroke-width: 1.5;"/><text fill="#000000" font-family="sans-serif" font-size="14" lengthAdjust="spacingAndGlyphs" textLength="61" x="343.5" y="359.9951">Modelica</text><text fill="#000000" font-family="sans-serif" font-size="14" lengthAdjust="spacingAndGlyphs" textLength="50" x="343.5" y="376.292">Control</text><text fill="#000000" font-family="sans-serif" font-size="14" lengthAdjust="spacingAndGlyphs" textLength="42" x="343.5" y="392.5889">Model</text><!--entity FMU-ME--><rect fill="#FEFECE" filter="url(#foqm2kthgxes1)" height="46.2969" style="stroke: #A80036; stroke-width: 1.5;" width="96" x="195" y="191.5"/><rect fill="#FEFECE" height="10" style="stroke: #A80036; stroke-width: 1.5;" width="15" x="271" y="196.5"/><rect fill="#FEFECE" height="2" style="stroke: #A80036; stroke-width: 1.5;" width="4" x="269" y="198.5"/><rect fill="#FEFECE" height="2" style="stroke: #A80036; stroke-width: 1.5;" width="4" x="269" y="202.5"/><text fill="#000000" font-family="sans-serif" font-size="14" lengthAdjust="spacingAndGlyphs" textLength="56" x="210" y="224.4951">FMU-ME</text><!--entity Reports--><rect fill="#FEFECE" filter="url(#foqm2kthgxes1)" height="62.5938" style="stroke: #A80036; stroke-width: 1.5;" width="125" x="331.5" y="183"/><rect fill="#FEFECE" height="10" style="stroke: #A80036; stroke-width: 1.5;" width="15" x="436.5" y="188"/><rect fill="#FEFECE" height="2" style="stroke: #A80036; stroke-width: 1.5;" width="4" x="434.5" y="190"/><rect fill="#FEFECE" height="2" style="stroke: #A80036; stroke-width: 1.5;" width="4" x="434.5" y="194"/><text fill="#000000" font-family="sans-serif" font-size="14" font-style="italic" lengthAdjust="spacingAndGlyphs" textLength="85" x="346.5" y="215.9951">«htlm, json»</text><text fill="#000000" font-family="sans-serif" font-size="14" lengthAdjust="spacingAndGlyphs" textLength="55" x="361.5" y="232.292">Reports</text><!--entity HIL Module--><rect fill="#FEFECE" filter="url(#foqm2kthgxes1)" height="46.2969" style="stroke: #A80036; stroke-width: 1.5;" width="115" x="95.5" y="51.5"/><rect fill="#FEFECE" height="10" style="stroke: #A80036; stroke-width: 1.5;" width="15" x="190.5" y="56.5"/><rect fill="#FEFECE" height="2" style="stroke: #A80036; stroke-width: 1.5;" width="4" x="188.5" y="58.5"/><rect fill="#FEFECE" height="2" style="stroke: #A80036; stroke-width: 1.5;" width="4" x="188.5" y="62.5"/><text fill="#000000" font-family="sans-serif" font-size="14" lengthAdjust="spacingAndGlyphs" textLength="75" x="110.5" y="84.4951">HIL Module</text><!--link vt to CDL Parser--><path d="M550.1292,114.0218 C550.1679,115.3778 550.2072,116.7528 550.247,118.1441 C550.883,140.4045 551.638,166.8289 552.1963,186.3705 " fill="none" id="vt-CDL Parser" style="stroke: #A80036; stroke-width: 1.0;"/><polygon fill="#A80036" points="552.3417,191.4603,556.0829,182.3497,552.1988,186.4623,548.0862,182.5783,552.3417,191.4603" style="stroke: #A80036; stroke-width: 1.0;"/><text fill="#000000" font-family="sans-serif" font-size="13" lengthAdjust="spacingAndGlyphs" textLength="30" x="552" y="149.0669">uses</text><!--link I/O\nConfiguration to mod_ctl--><path d="M654.761,106.2958 C658.5312,143.4757 658.9833,205.123 629,246 C578.8778,314.3328 478.8544,343.3847 420.0778,354.9716 " fill="none" id="I/O\nConfiguration-mod_ctl" style="stroke: #A80036; stroke-width: 1.0;"/><polygon fill="#A80036" points="414.8712,355.9736,424.465,358.2005,419.7811,355.0286,422.953,350.3447,414.8712,355.9736" style="stroke: #A80036; stroke-width: 1.0;"/><text fill="#000000" font-family="sans-serif" font-size="13" lengthAdjust="spacingAndGlyphs" textLength="110" x="654" y="219.0669">updates point list</text><!--link Engine to FMU-ME--><path d="M304.6449,94.4334 C287.1766,104.4689 268.5642,118.3112 257,136 C247.3358,150.7825 243.8269,170.3271 242.7386,186.2161 " fill="none" id="Engine-FMU-ME" style="stroke: #A80036; stroke-width: 1.0;"/><polygon fill="#A80036" points="242.4569,191.4522,246.9348,182.6802,242.7256,186.4594,238.9464,182.2502,242.4569,191.4522" style="stroke: #A80036; stroke-width: 1.0;"/><text fill="#000000" font-family="sans-serif" font-size="13" lengthAdjust="spacingAndGlyphs" textLength="101" x="258" y="149.0669">inserts point list</text><!--link Engine to JModelica--><path d="M304.944,90.7334 C282.2105,98.6351 253.8848,107.7529 228,114 C167.6256,128.571 138.6466,97.3879 90,136 C74.6432,148.1891 66.6037,168.95 62.4245,186.0606 " fill="none" id="Engine-JModelica" style="stroke: #A80036; stroke-width: 1.0;"/><polygon fill="#A80036" points="61.2476,191.2401,67.1425,183.3503,62.3556,186.3644,59.3414,181.5775,61.2476,191.2401" style="stroke: #A80036; stroke-width: 1.0;"/><text fill="#000000" font-family="sans-serif" font-size="13" lengthAdjust="spacingAndGlyphs" textLength="149" x="91" y="149.0669">invokes FMU-ME export</text><!--link JModelica to mod_ctl--><path d="M107.375,237.5469 C167.9877,265.8392 269.9382,313.4268 328.6494,340.8316 " fill="none" id="JModelica-mod_ctl" style="stroke: #A80036; stroke-width: 1.0;"/><polygon fill="#A80036" points="333.4966,343.0941,327.0332,335.6628,328.9659,340.9792,323.6494,342.9119,333.4966,343.0941" style="stroke: #A80036; stroke-width: 1.0;"/><text fill="#000000" font-family="sans-serif" font-size="13" lengthAdjust="spacingAndGlyphs" textLength="49" x="226" y="289.0669">imports</text><!--link HIL Module to Engine--><path d="M216.0863,74.5 C244.99,74.5 278.555,74.5 304.7235,74.5 " fill="none" id="HIL Module-Engine" style="stroke: #A80036; stroke-width: 1.0;"/><polygon fill="#A80036" points="210.7464,74.5,219.7464,78.5,215.7464,74.5,219.7464,70.5,210.7464,74.5" style="stroke: #A80036; stroke-width: 1.0;"/><text fill="#000000" font-family="sans-serif" font-size="13" lengthAdjust="spacingAndGlyphs" textLength="58" x="228.75" y="67.5669">connects</text><!--link JModelica to FMU-ME--><path d="M110.0251,214.5 C134.8691,214.5 164.5653,214.5 189.5862,214.5 " fill="none" id="JModelica-FMU-ME" style="stroke: #A80036; stroke-width: 1.0;"/><polygon fill="#A80036" points="194.8509,214.5,185.8509,210.5,189.8509,214.5,185.8509,218.5,194.8509,214.5" style="stroke: #A80036; stroke-width: 1.0;"/><text fill="#000000" font-family="sans-serif" font-size="13" lengthAdjust="spacingAndGlyphs" textLength="48" x="128.5" y="207.5669">exports</text><!--link Engine to Reports--><path d="M356.4308,97.6182 C363.4518,119.4611 374.0957,152.5756 382.2638,177.9873 " fill="none" id="Engine-Reports" style="stroke: #A80036; stroke-width: 1.0;"/><polygon fill="#A80036" points="383.8626,182.9613,384.9165,173.169,382.3325,178.2012,377.3003,175.6172,383.8626,182.9613" style="stroke: #A80036; stroke-width: 1.0;"/><text fill="#000000" font-family="sans-serif" font-size="13" lengthAdjust="spacingAndGlyphs" textLength="37" x="375" y="149.0669">writes</text><!--link Viewer to Reports--><path d="M458.285,97.6182 C446.2213,119.5521 427.9065,152.8518 413.9075,178.3045 " fill="none" id="Viewer-Reports" style="stroke: #A80036; stroke-width: 1.0;"/><polygon fill="#A80036" points="411.3463,182.9613,419.1886,177.0033,413.756,178.5803,412.179,173.1477,411.3463,182.9613" style="stroke: #A80036; stroke-width: 1.0;"/><text fill="#000000" font-family="sans-serif" font-size="13" lengthAdjust="spacingAndGlyphs" textLength="49" x="438" y="149.0669">imports</text><!--
@startuml
skinparam componentStyle uml2

package "Functional Verification Tool" as vt{
    [I/O\nConfiguration]
    [Engine]
    [Viewer]
}
[CDL Parser]
[JModelica]
database "Modelica\nControl\nModel" as mod_ctl
[FMU-ME]
[Reports] <<htlm, json>>
[HIL Module]

vt -d-> [CDL Parser]: uses
[I/O\nConfiguration] -d-> mod_ctl : updates point list
[Engine] -> [FMU-ME] : inserts point list
[Engine] -d-> [JModelica] : invokes FMU-ME export
[JModelica] -d-> mod_ctl: imports
[Engine] -l-> [HIL Module]: connects
[JModelica] -> [FMU-ME] : exports
[Engine] -d-> [Reports]: writes
[Viewer] -> [Reports]: imports

@enduml

PlantUML version 1.2017.19(Sun Nov 12 03:46:22 PST 2017)
(GPL source distribution)
Java Runtime: OpenJDK Runtime Environment
JVM: OpenJDK 64-Bit Server VM
Java Version: 10.0.2+13-Ubuntu-1ubuntu0.18.04.4
Operating System: Linux
OS Version: 4.15.0-45-generic
Default Encoding: UTF-8
Language: en
Country: US
--></g></svg>