<?xml version="1.0" encoding="UTF-8" standalone="no"?><svg xmlns="http://www.w3.org/2000/svg" xmlns:xlink="http://www.w3.org/1999/xlink" contentScriptType="application/ecmascript" contentStyleType="text/css" height="145.7346px" preserveAspectRatio="none" style="width:444px;height:145px;" version="1.1" viewBox="0 0 444 145" width="444.3128px" zoomAndPan="magnify"><defs><filter height="300%" id="fwsivuwuyf0wn" width="300%" x="-1" y="-1"><feGaussianBlur result="blurOut" stdDeviation="1.4218009478672986"/><feColorMatrix in="blurOut" result="blurOut2" type="matrix" values="0 0 0 0 0 0 0 0 0 0 0 0 0 0 0 0 0 0 .4 0"/><feOffset dx="2.843601895734597" dy="2.843601895734597" in="blurOut2" result="blurOut3"/><feBlend in="SourceGraphic" in2="blurOut3" mode="normal"/></filter></defs><g><!--entity cdl_lib--><path d="M70.3791,112.6777 C70.3791,105.5687 103.0806,105.5687 103.0806,105.5687 C103.0806,105.5687 135.782,105.5687 135.782,112.6777 L135.782,130.6613 C135.782,137.7703 103.0806,137.7703 103.0806,137.7703 C103.0806,137.7703 70.3791,137.7703 70.3791,130.6613 L70.3791,112.6777 " fill="#FFFFFF" filter="url(#fwsivuwuyf0wn)" style="stroke: #000000; stroke-width: 1.066350710900474;"/><path d="M70.3791,112.6777 C70.3791,119.7867 103.0806,119.7867 103.0806,119.7867 C103.0806,119.7867 135.782,119.7867 135.782,112.6777 " fill="none" style="stroke: #000000; stroke-width: 1.066350710900474;"/><text fill="#000000" font-family="sans-serif" font-size="9.9526" lengthAdjust="spacingAndGlyphs" textLength="51.1848" x="77.4882" y="131.8686">CDL library</text><!--entity fmu_lib--><path d="M202.9621,112.6777 C202.9621,105.5687 246.6825,105.5687 246.6825,105.5687 C246.6825,105.5687 290.4028,105.5687 290.4028,112.6777 L290.4028,130.6613 C290.4028,137.7703 246.6825,137.7703 246.6825,137.7703 C246.6825,137.7703 202.9621,137.7703 202.9621,130.6613 L202.9621,112.6777 " fill="#FFFFFF" filter="url(#fwsivuwuyf0wn)" style="stroke: #000000; stroke-width: 1.066350710900474;"/><path d="M202.9621,112.6777 C202.9621,119.7867 246.6825,119.7867 246.6825,119.7867 C246.6825,119.7867 290.4028,119.7867 290.4028,112.6777 " fill="none" style="stroke: #000000; stroke-width: 1.066350710900474;"/><text fill="#000000" font-family="sans-serif" font-size="9.9526" lengthAdjust="spacingAndGlyphs" textLength="73.2227" x="210.0711" y="131.8686">FMU repository</text><!--entity CDL-compliant\nsequence--><rect fill="#FEFECE" filter="url(#fwsivuwuyf0wn)" height="44.4979" style="stroke: #A80036; stroke-width: 1.066350710900474;" width="99.5261" x="4.2654" y="5.6872"/><rect fill="#FEFECE" height="7.109" style="stroke: #A80036; stroke-width: 1.066350710900474;" width="10.6635" x="89.5735" y="9.2417"/><rect fill="#FEFECE" height="1.4218" style="stroke: #A80036; stroke-width: 1.066350710900474;" width="2.8436" x="88.1517" y="10.6635"/><rect fill="#FEFECE" height="1.4218" style="stroke: #A80036; stroke-width: 1.066350710900474;" width="2.8436" x="88.1517" y="13.5071"/><text fill="#000000" font-family="sans-serif" font-size="9.9526" lengthAdjust="spacingAndGlyphs" textLength="71.09" x="14.9289" y="29.1434">CDL-compliant</text><text fill="#000000" font-family="sans-serif" font-size="9.9526" lengthAdjust="spacingAndGlyphs" textLength="49.763" x="14.9289" y="40.7289">sequence</text><!--entity JSON-simplified\nrepresentation--><rect fill="#FEFECE" filter="url(#fwsivuwuyf0wn)" height="44.4979" style="stroke: #A80036; stroke-width: 1.066350710900474;" width="100.9479" x="170.6161" y="5.6872"/><rect fill="#FEFECE" height="7.109" style="stroke: #A80036; stroke-width: 1.066350710900474;" width="10.6635" x="257.346" y="9.2417"/><rect fill="#FEFECE" height="1.4218" style="stroke: #A80036; stroke-width: 1.066350710900474;" width="2.8436" x="255.9242" y="10.6635"/><rect fill="#FEFECE" height="1.4218" style="stroke: #A80036; stroke-width: 1.066350710900474;" width="2.8436" x="255.9242" y="13.5071"/><text fill="#000000" font-family="sans-serif" font-size="9.9526" lengthAdjust="spacingAndGlyphs" textLength="72.5118" x="181.2796" y="29.1434">JSON-simplified</text><text fill="#000000" font-family="sans-serif" font-size="9.9526" lengthAdjust="spacingAndGlyphs" textLength="72.5118" x="181.2796" y="40.7289">representation</text><!--entity SSP-compliant\nspecification--><rect fill="#FEFECE" filter="url(#fwsivuwuyf0wn)" height="44.4979" style="stroke: #A80036; stroke-width: 1.066350710900474;" width="98.8152" x="338.0332" y="5.6872"/><rect fill="#FEFECE" height="7.109" style="stroke: #A80036; stroke-width: 1.066350710900474;" width="10.6635" x="422.6303" y="9.2417"/><rect fill="#FEFECE" height="1.4218" style="stroke: #A80036; stroke-width: 1.066350710900474;" width="2.8436" x="421.2085" y="10.6635"/><rect fill="#FEFECE" height="1.4218" style="stroke: #A80036; stroke-width: 1.066350710900474;" width="2.8436" x="421.2085" y="13.5071"/><text fill="#000000" font-family="sans-serif" font-size="9.9526" lengthAdjust="spacingAndGlyphs" textLength="70.3791" x="348.6967" y="29.1434">SSP-compliant</text><text fill="#000000" font-family="sans-serif" font-size="9.9526" lengthAdjust="spacingAndGlyphs" textLength="61.1374" x="348.6967" y="40.7289">specification</text><!--entity FMI Composer--><rect fill="#FEFECE" filter="url(#fwsivuwuyf0wn)" height="32.9125" style="stroke: #A80036; stroke-width: 1.066350710900474;" width="98.8152" x="338.0332" y="105.2133"/><rect fill="#FEFECE" height="7.109" style="stroke: #A80036; stroke-width: 1.066350710900474;" width="10.6635" x="422.6303" y="108.7678"/><rect fill="#FEFECE" height="1.4218" style="stroke: #A80036; stroke-width: 1.066350710900474;" width="2.8436" x="421.2085" y="110.1896"/><rect fill="#FEFECE" height="1.4218" style="stroke: #A80036; stroke-width: 1.066350710900474;" width="2.8436" x="421.2085" y="113.0332"/><text fill="#000000" font-family="sans-serif" font-size="9.9526" lengthAdjust="spacingAndGlyphs" textLength="70.3791" x="348.6967" y="128.6695">FMI Composer</text><!--link cdl_lib to fmu_lib--><path d="M135.8458,121.564 C154.6262,121.564 178.5257,121.564 199.3201,121.564 " fill="none" id="cdl_lib-fmu_lib" style="stroke: #A80036; stroke-width: 0.7109004739336493;"/><polygon fill="#A80036" points="202.8963,121.564,196.4982,118.7204,199.3418,121.564,196.4982,124.4076,202.8963,121.564" style="stroke: #A80036; stroke-width: 0.7109004739336493;"/><text fill="#000000" font-family="sans-serif" font-size="9.2417" lengthAdjust="spacingAndGlyphs" textLength="41.2322" x="148.7559" y="116.6352">generate</text><!--link CDL-compliant\nsequence to JSON-simplified\nrepresentation--><path d="M103.9261,28.0806 C123.7486,28.0806 146.6047,28.0806 166.8372,28.0806 " fill="none" id="CDL-compliant\nsequence-JSON-simplified\nrepresentation" style="stroke: #A80036; stroke-width: 0.7109004739336493;"/><polygon fill="#A80036" points="170.5831,28.0806,164.185,25.237,167.0286,28.0806,164.185,30.9242,170.5831,28.0806" style="stroke: #A80036; stroke-width: 0.7109004739336493;"/><text fill="#000000" font-family="sans-serif" font-size="9.2417" lengthAdjust="spacingAndGlyphs" textLength="40.5213" x="116.9431" y="23.1518">translate</text><!--link JSON-simplified\nrepresentation to SSP-compliant\nspecification--><path d="M271.6783,28.0806 C291.4755,28.0806 314.1985,28.0806 334.2407,28.0806 " fill="none" id="JSON-simplified\nrepresentation-SSP-compliant\nspecification" style="stroke: #A80036; stroke-width: 0.7109004739336493;"/><polygon fill="#A80036" points="337.9506,28.0806,331.5525,25.237,334.3961,28.0806,331.5525,30.9242,337.9506,28.0806" style="stroke: #A80036; stroke-width: 0.7109004739336493;"/><text fill="#000000" font-family="sans-serif" font-size="9.2417" lengthAdjust="spacingAndGlyphs" textLength="40.5213" x="284.5379" y="23.1518">translate</text><!--link fmu_lib to FMI Composer--><path d="M290.4477,121.564 C304.2857,121.564 319.7336,121.564 334.161,121.564 " fill="none" id="fmu_lib-FMI Composer" style="stroke: #A80036; stroke-width: 0.7109004739336493;"/><polygon fill="#A80036" points="337.8054,121.564,331.4073,118.7204,334.2509,121.564,331.4073,124.4076,337.8054,121.564" style="stroke: #A80036; stroke-width: 0.7109004739336493;"/><text fill="#000000" font-family="sans-serif" font-size="9.2417" lengthAdjust="spacingAndGlyphs" textLength="21.327" x="303.5545" y="116.6352">uses</text><!--link SSP-compliant\nspecification to FMI Composer--><path d="M387.4408,50.7103 C387.4408,66.1529 387.4408,86.4309 387.4408,101.3352 " fill="none" id="SSP-compliant\nspecification-FMI Composer" style="stroke: #A80036; stroke-width: 0.7109004739336493;"/><polygon fill="#A80036" points="387.4408,105.0024,390.2844,98.6043,387.4408,101.4479,384.5972,98.6043,387.4408,105.0024" style="stroke: #A80036; stroke-width: 0.7109004739336493;"/><text fill="#000000" font-family="sans-serif" font-size="9.2417" lengthAdjust="spacingAndGlyphs" textLength="29.8578" x="388.1517" y="81.0902">import</text><!--
@startuml
skinparam componentStyle uml2

scale 450 width

  database "CDL library" as cdl_lib {
  }
  database "FMU repository" as fmu_lib {
  }

  cdl_lib -r-> fmu_lib: generate

  [CDL-compliant\nsequence]

  [JSON-simplified\nrepresentation]

  [CDL-compliant\nsequence] -r-> [JSON-simplified\nrepresentation] : translate

  [JSON-simplified\nrepresentation] -r-> [SSP-compliant\nspecification] : translate

  fmu_lib -> [FMI Composer] : uses

  [SSP-compliant\nspecification] -d-> [FMI Composer] : import

@enduml

PlantUML version 1.2017.19(Sun Nov 12 03:46:22 PST 2017)
(GPL source distribution)
Java Runtime: OpenJDK Runtime Environment
JVM: OpenJDK 64-Bit Server VM
Java Version: 10.0.2+13-Ubuntu-1ubuntu0.18.04.4
Operating System: Linux
OS Version: 4.15.0-45-generic
Default Encoding: UTF-8
Language: en
Country: US
--></g></svg>