<?xml version="1.0" encoding="UTF-8" standalone="no"?><svg xmlns="http://www.w3.org/2000/svg" xmlns:xlink="http://www.w3.org/1999/xlink" contentScriptType="application/ecmascript" contentStyleType="text/css" height="363px" preserveAspectRatio="none" style="width:763px;height:363px;" version="1.1" viewBox="0 0 763 363" width="763px" zoomAndPan="magnify"><defs><filter height="300%" id="f1ad9lyac5iic" width="300%" x="-1" y="-1"><feGaussianBlur result="blurOut" stdDeviation="2.0"/><feColorMatrix in="blurOut" result="blurOut2" type="matrix" values="0 0 0 0 0 0 0 0 0 0 0 0 0 0 0 0 0 0 .4 0"/><feOffset dx="4.0" dy="4.0" in="blurOut2" result="blurOut3"/><feBlend in="SourceGraphic" in2="blurOut3" mode="normal"/></filter></defs><g><!--cluster ctl_des--><polygon fill="#FFFFFF" filter="url(#f1ad9lyac5iic)" points="14,24.5,185,24.5,192,46.7969,416,46.7969,416,105.5,14,105.5,14,24.5" style="stroke: #000000; stroke-width: 2.0;"/><line style="stroke: #000000; stroke-width: 2.0;" x1="14" x2="192" y1="46.7969" y2="46.7969"/><text fill="#000000" font-family="sans-serif" font-size="14" font-weight="bold" lengthAdjust="spacingAndGlyphs" textLength="165" x="18" y="39.4951">Controls Design Tool</text><!--cluster vt--><polygon fill="#FFFFFF" filter="url(#f1ad9lyac5iic)" points="435,16,656,16,663,38.2969,741,38.2969,741,114,435,114,435,16" style="stroke: #000000; stroke-width: 2.0;"/><line style="stroke: #000000; stroke-width: 2.0;" x1="435" x2="663" y1="38.2969" y2="38.2969"/><text fill="#000000" font-family="sans-serif" font-size="14" font-weight="bold" lengthAdjust="spacingAndGlyphs" textLength="215" x="439" y="30.9951">Functional Verification Tool</text><!--entity Sequence Generator--><rect fill="#FEFECE" filter="url(#f1ad9lyac5iic)" height="46.2969" style="stroke: #A80036; stroke-width: 1.5;" width="185" x="187.5" y="51.5"/><rect fill="#FEFECE" height="10" style="stroke: #A80036; stroke-width: 1.5;" width="15" x="352.5" y="56.5"/><rect fill="#FEFECE" height="2" style="stroke: #A80036; stroke-width: 1.5;" width="4" x="350.5" y="58.5"/><rect fill="#FEFECE" height="2" style="stroke: #A80036; stroke-width: 1.5;" width="4" x="350.5" y="62.5"/><text fill="#000000" font-family="sans-serif" font-size="14" lengthAdjust="spacingAndGlyphs" textLength="145" x="202.5" y="84.4951">Sequence Generator</text><!--entity CDL Exporter--><rect fill="#FEFECE" filter="url(#f1ad9lyac5iic)" height="46.2969" style="stroke: #A80036; stroke-width: 1.5;" width="130" x="22" y="51.5"/><rect fill="#FEFECE" height="10" style="stroke: #A80036; stroke-width: 1.5;" width="15" x="132" y="56.5"/><rect fill="#FEFECE" height="2" style="stroke: #A80036; stroke-width: 1.5;" width="4" x="130" y="58.5"/><rect fill="#FEFECE" height="2" style="stroke: #A80036; stroke-width: 1.5;" width="4" x="130" y="62.5"/><text fill="#000000" font-family="sans-serif" font-size="14" lengthAdjust="spacingAndGlyphs" textLength="90" x="37" y="84.4951">CDL Exporter</text><!--entity I/O\nConfiguration--><rect fill="#FEFECE" filter="url(#f1ad9lyac5iic)" height="62.5938" style="stroke: #A80036; stroke-width: 1.5;" width="132" x="566" y="43"/><rect fill="#FEFECE" height="10" style="stroke: #A80036; stroke-width: 1.5;" width="15" x="678" y="48"/><rect fill="#FEFECE" height="2" style="stroke: #A80036; stroke-width: 1.5;" width="4" x="676" y="50"/><rect fill="#FEFECE" height="2" style="stroke: #A80036; stroke-width: 1.5;" width="4" x="676" y="54"/><text fill="#000000" font-family="sans-serif" font-size="14" lengthAdjust="spacingAndGlyphs" textLength="19" x="581" y="75.9951">I/O</text><text fill="#000000" font-family="sans-serif" font-size="14" lengthAdjust="spacingAndGlyphs" textLength="92" x="581" y="92.292">Configuration</text><!--entity Engine--><rect fill="#FEFECE" filter="url(#f1ad9lyac5iic)" height="46.2969" style="stroke: #A80036; stroke-width: 1.5;" width="88" x="443" y="51.5"/><rect fill="#FEFECE" height="10" style="stroke: #A80036; stroke-width: 1.5;" width="15" x="511" y="56.5"/><rect fill="#FEFECE" height="2" style="stroke: #A80036; stroke-width: 1.5;" width="4" x="509" y="58.5"/><rect fill="#FEFECE" height="2" style="stroke: #A80036; stroke-width: 1.5;" width="4" x="509" y="62.5"/><text fill="#000000" font-family="sans-serif" font-size="14" lengthAdjust="spacingAndGlyphs" textLength="48" x="458" y="84.4951">Engine</text><!--entity CDL Parser--><rect fill="#FEFECE" filter="url(#f1ad9lyac5iic)" height="46.2969" style="stroke: #A80036; stroke-width: 1.5;" width="116" x="512" y="183"/><rect fill="#FEFECE" height="10" style="stroke: #A80036; stroke-width: 1.5;" width="15" x="608" y="188"/><rect fill="#FEFECE" height="2" style="stroke: #A80036; stroke-width: 1.5;" width="4" x="606" y="190"/><rect fill="#FEFECE" height="2" style="stroke: #A80036; stroke-width: 1.5;" width="4" x="606" y="194"/><text fill="#000000" font-family="sans-serif" font-size="14" lengthAdjust="spacingAndGlyphs" textLength="76" x="527" y="215.9951">CDL Parser</text><!--entity CDL-compliant Control Sequence--><rect fill="#FEFECE" filter="url(#f1ad9lyac5iic)" height="46.2969" style="stroke: #A80036; stroke-width: 1.5;" width="269" x="321.5" y="306"/><rect fill="#FEFECE" height="10" style="stroke: #A80036; stroke-width: 1.5;" width="15" x="570.5" y="311"/><rect fill="#FEFECE" height="2" style="stroke: #A80036; stroke-width: 1.5;" width="4" x="568.5" y="313"/><rect fill="#FEFECE" height="2" style="stroke: #A80036; stroke-width: 1.5;" width="4" x="568.5" y="317"/><text fill="#000000" font-family="sans-serif" font-size="14" lengthAdjust="spacingAndGlyphs" textLength="229" x="336.5" y="338.9951">CDL-compliant Control Sequence</text><!--entity CDL Library--><rect fill="#FEFECE" filter="url(#f1ad9lyac5iic)" height="46.2969" style="stroke: #A80036; stroke-width: 1.5;" width="116" x="626" y="306"/><rect fill="#FEFECE" height="10" style="stroke: #A80036; stroke-width: 1.5;" width="15" x="722" y="311"/><rect fill="#FEFECE" height="2" style="stroke: #A80036; stroke-width: 1.5;" width="4" x="720" y="313"/><rect fill="#FEFECE" height="2" style="stroke: #A80036; stroke-width: 1.5;" width="4" x="720" y="317"/><text fill="#000000" font-family="sans-serif" font-size="14" lengthAdjust="spacingAndGlyphs" textLength="76" x="641" y="338.9951">CDL Library</text><!--link ctl_des to CDL Parser--><path d="M416.0001,96.5564 C416.0587,96.6804 416.1175,96.8044 416.1767,96.9286 C417.1236,98.915 418.1547,100.9228 419.2711,102.9006 C421.5038,106.8564 424.0774,110.6927 427,114 C451.5857,141.822 486.5297,164.5125 515.7199,180.3982 " fill="none" id="ctl_des-CDL Parser" style="stroke: #A80036; stroke-width: 1.0;"/><polygon fill="#A80036" points="520.3528,182.8891,514.3202,175.104,515.949,180.5213,510.5317,182.1501,520.3528,182.8891" style="stroke: #A80036; stroke-width: 1.0;"/><text fill="#000000" font-family="sans-serif" font-size="13" lengthAdjust="spacingAndGlyphs" textLength="30" x="469" y="149.0669">uses</text><!--link vt to CDL Parser--><path d="M716,114 C691.788,142.3138 656.6504,164.8278 626.9136,180.4962 " fill="none" id="vt-CDL Parser" style="stroke: #A80036; stroke-width: 1.0;"/><polygon fill="#A80036" points="622.1898,182.9519,632.0202,182.3494,626.6261,180.6455,628.3299,175.2513,622.1898,182.9519" style="stroke: #A80036; stroke-width: 1.0;"/><text fill="#000000" font-family="sans-serif" font-size="13" lengthAdjust="spacingAndGlyphs" textLength="30" x="693" y="149.0669">uses</text><!--link CDL Parser to CDL-compliant Control Sequence--><path d="M548.5575,229.1354 C529.2907,249.9232 500.9995,280.4479 480.7726,302.2717 " fill="none" id="CDL Parser-CDL-compliant Control Sequence" style="stroke: #A80036; stroke-width: 1.0;"/><polygon fill="#A80036" points="477.3464,305.9684,486.398,302.0866,480.7452,302.3013,480.5306,296.6485,477.3464,305.9684" style="stroke: #A80036; stroke-width: 1.0;"/><text fill="#000000" font-family="sans-serif" font-size="13" lengthAdjust="spacingAndGlyphs" textLength="36" x="520" y="272.0669">reads</text><!--link CDL Parser to CDL Library--><path d="M591.4425,229.1354 C610.7093,249.9232 639.0005,280.4479 659.2274,302.2717 " fill="none" id="CDL Parser-CDL Library" style="stroke: #A80036; stroke-width: 1.0;"/><polygon fill="#A80036" points="662.6536,305.9684,659.4694,296.6485,659.2548,302.3013,653.602,302.0866,662.6536,305.9684" style="stroke: #A80036; stroke-width: 1.0;"/><text fill="#000000" font-family="sans-serif" font-size="13" lengthAdjust="spacingAndGlyphs" textLength="36" x="634" y="272.0669">reads</text><!--
@startuml
skinparam componentStyle uml2

  package "Controls Design Tool" as ctl_des {
    [Sequence Generator]
    [CDL Exporter]
  }
  package "Functional Verification Tool" as vt{
    [I/O\nConfiguration]
    [Engine]
  }
  [CDL Parser]
  [CDL-compliant Control Sequence]
  [CDL Library]

ctl_des -d-> [CDL Parser]: uses
vt -d-> [CDL Parser]: uses
[CDL Parser] -d-> [CDL-compliant Control Sequence]: reads
[CDL Parser] -d-> [CDL Library]: reads

@enduml

PlantUML version 1.2017.19(Sun Nov 12 03:46:22 PST 2017)
(GPL source distribution)
Java Runtime: OpenJDK Runtime Environment
JVM: OpenJDK 64-Bit Server VM
Java Version: 10.0.2+13-Ubuntu-1ubuntu0.18.04.4
Operating System: Linux
OS Version: 4.15.0-45-generic
Default Encoding: UTF-8
Language: en
Country: US
--></g></svg>