<?xml version="1.0" encoding="UTF-8" standalone="no"?><svg xmlns="http://www.w3.org/2000/svg" xmlns:xlink="http://www.w3.org/1999/xlink" contentScriptType="application/ecmascript" contentStyleType="text/css" height="858px" preserveAspectRatio="none" style="width:811px;height:858px;" version="1.1" viewBox="0 0 811 858" width="811px" zoomAndPan="magnify"><defs><filter height="300%" id="f1eyu4e7j0we9g" width="300%" x="-1" y="-1"><feGaussianBlur result="blurOut" stdDeviation="2.0"/><feColorMatrix in="blurOut" result="blurOut2" type="matrix" values="0 0 0 0 0 0 0 0 0 0 0 0 0 0 0 0 0 0 .4 0"/><feOffset dx="4.0" dy="4.0" in="blurOut2" result="blurOut3"/><feBlend in="SourceGraphic" in2="blurOut3" mode="normal"/></filter></defs><g><!--cluster edi--><polygon fill="#FFFFFF" filter="url(#f1eyu4e7j0we9g)" points="373,102,528,102,535,124.2969,572,124.2969,572,202,373,202,373,102" style="stroke: #000000; stroke-width: 2.0;"/><line style="stroke: #000000; stroke-width: 2.0;" x1="373" x2="535" y1="124.2969" y2="124.2969"/><text fill="#000000" font-family="sans-serif" font-size="14" font-weight="bold" lengthAdjust="spacingAndGlyphs" textLength="149" x="377" y="116.9951">HVAC/controls tool</text><!--cluster BOS--><polygon fill="#FFFFFF" filter="url(#f1eyu4e7j0we9g)" points="449,506,672,506,679,528.2969,789,528.2969,789,846,449,846,449,506" style="stroke: #000000; stroke-width: 2.0;"/><line style="stroke: #000000; stroke-width: 2.0;" x1="449" x2="679" y1="528.2969" y2="528.2969"/><text fill="#000000" font-family="sans-serif" font-size="14" font-weight="bold" lengthAdjust="spacingAndGlyphs" textLength="217" x="453" y="520.9951">Buildings Operating System</text><!--cluster BAS--><polygon fill="#FFFFFF" filter="url(#f1eyu4e7j0we9g)" points="14,506,249,506,256,528.2969,353,528.2969,353,846,14,846,14,506" style="stroke: #000000; stroke-width: 2.0;"/><line style="stroke: #000000; stroke-width: 2.0;" x1="14" x2="256" y1="528.2969" y2="528.2969"/><text fill="#000000" font-family="sans-serif" font-size="14" font-weight="bold" lengthAdjust="spacingAndGlyphs" textLength="229" x="18" y="520.9951">Buildings Automation System</text><!--entity OpenStudio--><polygon fill="#FFFFFF" filter="url(#f1eyu4e7j0we9g)" points="542,8,630,8,637,30.2969,654,30.2969,654,47.2969,542,47.2969,542,8" style="stroke: #000000; stroke-width: 1.5;"/><line style="stroke: #000000; stroke-width: 1.5;" x1="542" x2="637" y1="30.2969" y2="30.2969"/><text fill="#000000" font-family="sans-serif" font-size="14" lengthAdjust="spacingAndGlyphs" textLength="82" x="546" y="23.9951">OpenStudio</text><!--entity Web-based GUI--><rect fill="#FEFECE" filter="url(#f1eyu4e7j0we9g)" height="46.2969" style="stroke: #A80036; stroke-width: 1.5;" width="147" x="381.5" y="148"/><rect fill="#FEFECE" height="10" style="stroke: #A80036; stroke-width: 1.5;" width="15" x="508.5" y="153"/><rect fill="#FEFECE" height="2" style="stroke: #A80036; stroke-width: 1.5;" width="4" x="506.5" y="155"/><rect fill="#FEFECE" height="2" style="stroke: #A80036; stroke-width: 1.5;" width="4" x="506.5" y="159"/><text fill="#000000" font-family="sans-serif" font-size="14" lengthAdjust="spacingAndGlyphs" textLength="107" x="396.5" y="180.9951">Web-based GUI</text><!--entity JModelica--><polygon fill="#FFFFFF" filter="url(#f1eyu4e7j0we9g)" points="410,277,480,277,487,299.2969,504,299.2969,504,316.2969,410,316.2969,410,277" style="stroke: #000000; stroke-width: 1.5;"/><line style="stroke: #000000; stroke-width: 1.5;" x1="410" x2="487" y1="299.2969" y2="299.2969"/><text fill="#000000" font-family="sans-serif" font-size="14" lengthAdjust="spacingAndGlyphs" textLength="64" x="414" y="292.9951">JModelica</text><!--entity dri2--><path d="M492.5,562 C492.5,552 537,552 537,552 C537,552 581.5,552 581.5,562 L581.5,587.2969 C581.5,597.2969 537,597.2969 537,597.2969 C537,597.2969 492.5,597.2969 492.5,587.2969 L492.5,562 " fill="#FEFECE" filter="url(#f1eyu4e7j0we9g)" style="stroke: #000000; stroke-width: 1.5;"/><path d="M492.5,562 C492.5,572 537,572 537,572 C537,572 581.5,572 581.5,562 " fill="none" style="stroke: #000000; stroke-width: 1.5;"/><text fill="#000000" font-family="sans-serif" font-size="14" lengthAdjust="spacingAndGlyphs" textLength="69" x="502.5" y="588.9951">I/O drivers</text><!--entity rte2--><path d="M617,562 C617,552 699,552 699,552 C699,552 781,552 781,562 L781,587.2969 C781,597.2969 699,597.2969 699,597.2969 C699,597.2969 617,597.2969 617,587.2969 L617,562 " fill="#FEFECE" filter="url(#f1eyu4e7j0we9g)" style="stroke: #000000; stroke-width: 1.5;"/><path d="M617,562 C617,572 699,572 699,572 C699,572 781,572 781,562 " fill="none" style="stroke: #000000; stroke-width: 1.5;"/><text fill="#000000" font-family="sans-serif" font-size="14" lengthAdjust="spacingAndGlyphs" textLength="144" x="627" y="588.9951">runtime environment</text><!--entity opi2--><path d="M465.5,803 C465.5,793 537,793 537,793 C537,793 608.5,793 608.5,803 L608.5,828.2969 C608.5,838.2969 537,838.2969 537,838.2969 C537,838.2969 465.5,838.2969 465.5,828.2969 L465.5,803 " fill="#FEFECE" filter="url(#f1eyu4e7j0we9g)" style="stroke: #000000; stroke-width: 1.5;"/><path d="M465.5,803 C465.5,813 537,813 537,813 C537,813 608.5,813 608.5,803 " fill="none" style="stroke: #000000; stroke-width: 1.5;"/><text fill="#000000" font-family="sans-serif" font-size="14" lengthAdjust="spacingAndGlyphs" textLength="123" x="475.5" y="829.9951">operator interface</text><!--entity dri1--><path d="M21.5,562 C21.5,552 66,552 66,552 C66,552 110.5,552 110.5,562 L110.5,587.2969 C110.5,597.2969 66,597.2969 66,597.2969 C66,597.2969 21.5,597.2969 21.5,587.2969 L21.5,562 " fill="#FEFECE" filter="url(#f1eyu4e7j0we9g)" style="stroke: #000000; stroke-width: 1.5;"/><path d="M21.5,562 C21.5,572 66,572 66,572 C66,572 110.5,572 110.5,562 " fill="none" style="stroke: #000000; stroke-width: 1.5;"/><text fill="#000000" font-family="sans-serif" font-size="14" lengthAdjust="spacingAndGlyphs" textLength="69" x="31.5" y="588.9951">I/O drivers</text><!--entity rte1--><path d="M181,562 C181,552 263,552 263,552 C263,552 345,552 345,562 L345,587.2969 C345,597.2969 263,597.2969 263,597.2969 C263,597.2969 181,597.2969 181,587.2969 L181,562 " fill="#FEFECE" filter="url(#f1eyu4e7j0we9g)" style="stroke: #000000; stroke-width: 1.5;"/><path d="M181,562 C181,572 263,572 263,572 C263,572 345,572 345,562 " fill="none" style="stroke: #000000; stroke-width: 1.5;"/><text fill="#000000" font-family="sans-serif" font-size="14" lengthAdjust="spacingAndGlyphs" textLength="144" x="191" y="588.9951">runtime environment</text><!--entity opi1--><path d="M22.5,803 C22.5,793 94,793 94,793 C94,793 165.5,793 165.5,803 L165.5,828.2969 C165.5,838.2969 94,838.2969 94,838.2969 C94,838.2969 22.5,838.2969 22.5,828.2969 L22.5,803 " fill="#FEFECE" filter="url(#f1eyu4e7j0we9g)" style="stroke: #000000; stroke-width: 1.5;"/><path d="M22.5,803 C22.5,813 94,813 94,813 C94,813 165.5,813 165.5,803 " fill="none" style="stroke: #000000; stroke-width: 1.5;"/><text fill="#000000" font-family="sans-serif" font-size="14" lengthAdjust="spacingAndGlyphs" textLength="123" x="32.5" y="829.9951">operator interface</text><!--entity mod_jso_par--><ellipse cx="146" cy="171" fill="#FEFECE" filter="url(#f1eyu4e7j0we9g)" rx="8" ry="8" style="stroke: #A80036; stroke-width: 2.0;"/><text fill="#000000" font-family="sans-serif" font-size="14" lengthAdjust="spacingAndGlyphs" textLength="29" x="131.5" y="200.9951">json</text><!--entity mod_lib--><path d="M208,158.5 C208,148.5 277,148.5 277,148.5 C277,148.5 346,148.5 346,158.5 L346,183.7969 C346,193.7969 277,193.7969 277,193.7969 C277,193.7969 208,193.7969 208,183.7969 L208,158.5 " fill="#FEFECE" filter="url(#f1eyu4e7j0we9g)" style="stroke: #000000; stroke-width: 1.5;"/><path d="M208,158.5 C208,168.5 277,168.5 277,168.5 C277,168.5 346,168.5 346,158.5 " fill="none" style="stroke: #000000; stroke-width: 1.5;"/><text fill="#000000" font-family="sans-serif" font-size="14" lengthAdjust="spacingAndGlyphs" textLength="118" x="218" y="185.4951">Modelica libraries</text><!--entity FMUs--><ellipse cx="457" cy="422" fill="#FEFECE" filter="url(#f1eyu4e7j0we9g)" rx="8" ry="8" style="stroke: #A80036; stroke-width: 2.0;"/><text fill="#000000" font-family="sans-serif" font-size="14" lengthAdjust="spacingAndGlyphs" textLength="38" x="438" y="451.9951">FMUs</text><!--entity Hardware--><ellipse cx="401" cy="703" fill="#FEFECE" filter="url(#f1eyu4e7j0we9g)" rx="8" ry="8" style="stroke: #A80036; stroke-width: 2.0;"/><text fill="#000000" font-family="sans-serif" font-size="14" lengthAdjust="spacingAndGlyphs" textLength="65" x="368.5" y="732.9951">Hardware</text><!--link edi to mod_jso_par--><path d="M545.4817,101.5918 C545.3072,101.4567 545.1312,101.3226 544.9534,101.1894 C544.598,100.9231 544.2361,100.6607 543.8676,100.402 C543.1308,99.8847 542.3682,99.3826 541.5806,98.8954 C540.0055,97.921 538.3303,97.0061 536.5615,96.1479 C533.0238,94.4316 529.1113,92.9423 524.8741,91.6577 C516.3998,89.0885 506.6266,87.3383 495.9556,86.2288 C474.6135,84.0098 449.6799,84.3541 424.362,85.837 C373.7261,88.8027 321.5529,96.3228 293.5,97 C247.4598,98.1114 229.8351,78.8894 190,102 C169.0625,114.1471 156.5052,140.6877 150.4473,157.0829 " fill="none" id="edi-mod_jso_par" style="stroke: #A80036; stroke-width: 1.0;"/><polygon fill="#A80036" points="148.7739,161.8183,155.5441,154.6654,150.4399,157.104,148.0013,151.9998,148.7739,161.8183" style="stroke: #A80036; stroke-width: 1.0;"/><polygon fill="#A80036" points="545.4817,101.5918,540.8154,92.9186,541.5286,98.5303,535.9169,99.2435,545.4817,101.5918" style="stroke: #A80036; stroke-width: 1.0;"/><text fill="#000000" font-family="sans-serif" font-size="13" lengthAdjust="spacingAndGlyphs" textLength="107" x="294.5" y="90.0669">reads/writes json</text><!--link mod_jso_par to mod_lib--><path d="M155.0042,177.8598 C166.3341,181.5747 186.8675,183.5324 207.8976,183.7328 " fill="none" id="mod_jso_par-mod_lib" style="stroke: #A80036; stroke-width: 1.0;"/><polygon fill="#A80036" points="207.8976,183.7328,198.9361,179.6472,202.8978,183.6852,198.8599,187.6469,207.8976,183.7328" style="stroke: #A80036; stroke-width: 1.0;"/><polygon fill="#A80036" points="155.0042,177.8598,162.31,184.4648,159.7553,179.4176,164.8025,176.863,155.0042,177.8598" style="stroke: #A80036; stroke-width: 1.0;"/><!--link OpenStudio to edi--><path d="M577.434,47.2822 C570.1372,55.6725 562.798,66.0425 559,77 C557.3944,81.6324 556.2337,86.4699 555.4358,91.401 C555.0368,93.8665 554.7286,96.3554 554.5007,98.8537 C554.4437,99.4782 554.3918,100.1034 554.3447,100.7289 C554.3212,101.0417 554.2989,117.984 554.2777,118.2969 " fill="none" id="OpenStudio-edi" style="stroke: #A80036; stroke-width: 1.0;"/><polygon fill="#A80036" points="554.2777,101.6675,558.8749,92.9573,554.6145,96.6788,550.893,92.4185,554.2777,101.6675" style="stroke: #A80036; stroke-width: 1.0;"/><text fill="#000000" font-family="sans-serif" font-size="13" lengthAdjust="spacingAndGlyphs" textLength="48" x="560" y="90.0669">invokes</text><!--link OpenStudio to JModelica--><path d="M605.4995,47.4231 C608.4704,56.3332 611.5257,67.0514 613,77 C620.3408,126.5372 582.5564,198.312 580,202 C558.8997,232.4409 524.9668,257.4504 498.0816,274.0776 " fill="none" id="OpenStudio-JModelica" style="stroke: #A80036; stroke-width: 1.0;"/><polygon fill="#A80036" points="493.4902,276.8786,503.2565,275.6062,497.7586,274.2746,499.0901,268.7767,493.4902,276.8786" style="stroke: #A80036; stroke-width: 1.0;"/><text fill="#000000" font-family="sans-serif" font-size="13" lengthAdjust="spacingAndGlyphs" textLength="48" x="614" y="175.5669">invokes</text><!--link mod_lib to JModelica--><path d="M314.0857,196.857 C348.1404,220.6006 397.869,255.2725 428.7884,276.8303 " fill="none" id="mod_lib-JModelica" style="stroke: #A80036; stroke-width: 1.0;"/><polygon fill="#A80036" points="309.5966,193.7271,314.6914,202.1558,313.6981,196.5868,319.267,195.5935,309.5966,193.7271" style="stroke: #A80036; stroke-width: 1.0;"/><text fill="#000000" font-family="sans-serif" font-size="13" lengthAdjust="spacingAndGlyphs" textLength="34" x="385" y="243.0669">loads</text><!--link JModelica to FMUs--><path d="M457,316.1094 C457,341.5307 457,385.2609 457,407.741 " fill="none" id="JModelica-FMUs" style="stroke: #A80036; stroke-width: 1.0;"/><polygon fill="#A80036" points="457,412.9743,461,403.9743,457,407.9743,453,403.9743,457,412.9743" style="stroke: #A80036; stroke-width: 1.0;"/><text fill="#000000" font-family="sans-serif" font-size="13" lengthAdjust="spacingAndGlyphs" textLength="65" x="458" y="359.0669">generates</text><!--link mod_jso_par to BAS--><path d="M146,185.5722 C146,220.8456 146,314.3005 146,400.7577 C146,422.372 146,443.549 146,463.2702 C146,473.1308 146,482.6274 146,491.6328 C146,496.1355 146,500.5154 146,504.7565 " fill="none" id="mod_jso_par-BAS" style="stroke: #A80036; stroke-width: 1.0;"/><polygon fill="#A80036" points="146,180.1858,142,189.1858,146,185.1858,150,189.1858,146,180.1858" style="stroke: #A80036; stroke-width: 1.0;"/><text fill="#000000" font-family="sans-serif" font-size="13" lengthAdjust="spacingAndGlyphs" textLength="55" x="147" y="359.0669">converts</text><!--link FMUs to BOS--><path d="M457,436.375 C457,445.4033 457,457.9431 457,471.815 C457,478.751 457,486.02 457,493.3497 C457,497.0145 457,500.6945 457,504.3556 C457,504.8133 457,505.2706 457,505.7276 " fill="none" id="FMUs-BOS" style="stroke: #A80036; stroke-width: 1.0;"/><polygon fill="#A80036" points="457,431.0829,453,440.0829,457,436.0829,461,440.0829,457,431.0829" style="stroke: #A80036; stroke-width: 1.0;"/><text fill="#000000" font-family="sans-serif" font-size="13" lengthAdjust="spacingAndGlyphs" textLength="49" x="458" y="494.0669">imports</text><!--link BOS to Hardware--><path d="M448.8435,593.2163 C448.7212,593.4969 448.5979,593.7798 448.4736,594.0651 C447.9763,595.2062 447.4628,596.3845 446.9346,597.5966 C445.8781,600.0208 444.7628,602.58 443.601,605.246 C441.2773,610.578 438.7674,616.3374 436.1691,622.2995 C425.7761,646.1478 413.9702,673.238 407.0216,689.1825 " fill="none" id="BOS-Hardware" style="stroke: #A80036; stroke-width: 1.0;"/><polygon fill="#A80036" points="404.9657,693.9001,412.2282,687.2476,406.9632,689.3165,404.8944,684.0515,404.9657,693.9001" style="stroke: #A80036; stroke-width: 1.0;"/><text fill="#000000" font-family="sans-serif" font-size="13" lengthAdjust="spacingAndGlyphs" textLength="17" x="435" y="640.0669">I/O</text><!--link BAS to Hardware--><path d="M353.1758,672.0379 C354.4399,672.6764 355.7145,673.3303 357,674 C367.6797,679.5639 379.0091,687.0728 387.4969,693.0557 " fill="none" id="BAS-Hardware" style="stroke: #A80036; stroke-width: 1.0;"/><polygon fill="#A80036" points="391.8977,696.2005,386.9007,687.7135,387.8296,693.2935,382.2495,694.2224,391.8977,696.2005" style="stroke: #A80036; stroke-width: 1.0;"/><text fill="#000000" font-family="sans-serif" font-size="13" lengthAdjust="spacingAndGlyphs" textLength="17" x="272" y="640.0669">I/O</text><!--link dri2 to rte2--><!--link dri2 to opi2--><!--link dri1 to rte1--><!--link dri1 to opi1--><!--
@startuml
skinparam componentStyle uml2


package OpenStudio {
}

package "HVAC/controls tool" as edi {
  [Web-based GUI]
}

interface json as mod_jso_par

database "Modelica libraries" as mod_lib

edi <-> mod_jso_par : reads/writes json

mod_jso_par <-> mod_lib

package JModelica {
}

OpenStudio -d-> edi : invokes
OpenStudio -d-> JModelica : invokes

JModelica -u-> mod_lib: loads

interface FMUs

JModelica -d-> FMUs : generates

package "Buildings Operating System" as BOS {
  database "I/O drivers" as dri2
  database "runtime environment" as rte2
  database "operator interface" as opi2
}

package "Buildings Automation System" as BAS {
  database "I/O drivers" as dri1
  database "runtime environment" as rte1
  database "operator interface" as opi1
}

BAS -u-> mod_jso_par : converts

BOS -u-> FMUs : imports

interface Hardware

BOS -d-> Hardware : I/O
BAS -d-> Hardware : I/O

@enduml

PlantUML version 1.2017.19(Sun Nov 12 03:46:22 PST 2017)
(GPL source distribution)
Java Runtime: OpenJDK Runtime Environment
JVM: OpenJDK 64-Bit Server VM
Java Version: 10.0.2+13-Ubuntu-1ubuntu0.18.04.4
Operating System: Linux
OS Version: 4.15.0-45-generic
Default Encoding: UTF-8
Language: en
Country: US
--></g></svg>