<?xml version="1.0" standalone="no"?>
<!DOCTYPE svg PUBLIC "-//W3C//DTD SVG 1.1//EN" "http://www.w3.org/Graphics/SVG/1.1/DTD/svg11.dtd">
<svg viewBox="0 0 2157.000000 1096.000000" version="1.1" xmlns="http://www.w3.org/2000/svg" xmlns:xlink="http://www.w3.org/1999/xlink">
	<text fill="rgb(0,0,255)" font-size="28" font-family="helvetica" text-anchor="middle" dominant-baseline="central" x="547.277" y="704.347">yNotDeclaredPresent</text>
	<rect fill="rgb(255,255,255)" stroke="rgb(0,0,127)" stroke-opacity="1" x="456.667" y="725.667" width="177.667" height="177.667"/>
	<polyline fill="none" stroke="rgb(192,192,192)" stroke-opacity="1" points="474.433333,754.093333 474.433333,885.566667"/>
	<polygon fill="rgb(192,192,192)" stroke="rgb(192,192,192)" stroke-opacity="1" points="474.433333,734.550000 467.326667,754.093333 481.540000,754.093333 474.433333,734.550000"/>
	<polyline fill="none" stroke="rgb(192,192,192)" stroke-opacity="1" points="465.550000,814.500000 605.906667,814.500000"/>
	<polygon fill="rgb(192,192,192)" stroke="rgb(192,192,192)" stroke-opacity="1" points="625.450000,814.500000 605.906667,807.393333 605.906667,821.606667 625.450000,814.500000"/>
	<polyline fill="none" stroke="rgb(0,0,0)" stroke-opacity="1" points="474.433333,814.500000 476.942875,806.904750 477.424616,805.446802 477.866022,804.111057 478.267094,802.897516 478.627830,801.806179 478.948232,800.837045 479.228299,799.990114 479.468031,799.265388 479.667429,798.662864 479.826492,798.182545 479.945220,797.824429 479.945220,797.824429 479.945220,797.824429 480.043598,797.528094 480.141612,797.233119 480.239262,796.939502 480.336548,796.647245 480.433470,796.356347 480.530027,796.066808 480.626220,795.778628 480.722049,795.491808 480.817514,795.206346 480.912615,794.922244 480.912615,794.922244 480.912615,794.922244 481.007351,794.639501 481.101723,794.358117 481.195731,794.078092 481.289375,793.799426 481.382654,793.522119 481.475569,793.246172 481.568120,792.971584 481.660307,792.698355 481.752130,792.426485 481.843588,792.155974 481.843588,792.155974 481.843588,792.155974 481.934682,791.886822 482.025412,791.619030 482.115778,791.352596 482.205779,791.087522 482.295416,790.823807 482.384690,790.561451 482.473598,790.300454 482.562143,790.040817 482.650323,789.782538 482.738140,789.525619 482.738140,789.525619 482.738140,789.525619 482.825592,789.270059 482.912679,789.015858 482.999403,788.763016 483.085762,788.511533 483.171757,788.261409 483.257388,788.012645 483.342655,787.765240 483.427557,787.519194 483.512096,787.274507 483.596270,787.031179 483.596270,787.031179 483.596270,787.031179 483.680079,786.789210 483.763525,786.548601 483.846606,786.309350 483.929324,786.071459 484.011676,785.834927 484.093665,785.599754 484.175290,785.365940 484.256550,785.133486 484.337446,784.902390 484.417978,784.672654 484.417978,784.672654 484.417978,784.672654 484.498146,784.444277 484.577949,784.217259 484.657388,783.991600 484.736463,783.767300 484.815174,783.544359 484.893521,783.322778 484.971503,783.102556 485.049121,782.883693 485.126375,782.666189 485.203265,782.450044 485.203265,782.450044 485.203265,782.450044 485.279790,782.235258 485.355951,782.021832 485.431748,781.809764 485.507181,781.599056 485.582250,781.389707 485.656954,781.181717 485.731294,780.975086 485.805270,780.769815 485.878882,780.565902 485.952130,780.363349 485.952130,780.363349 485.952130,780.363349 486.025013,780.162155 486.097532,779.962320 486.169687,779.763844 486.241478,779.566727 486.312904,779.370969 486.383966,779.176571 486.454664,778.983532 486.524998,778.791852 486.594968,778.601531 486.664573,778.412569 486.664573,778.412569 486.664573,778.412569 486.733814,778.224966 486.802691,778.038723 486.871204,777.853838 486.939352,777.670313 487.007136,777.488147 487.074557,777.307340 487.141612,777.127892 487.208304,776.949804 487.274631,776.773074 487.340595,776.597704 487.340595,776.597704 487.340595,776.597704 487.406267,776.423477 487.471721,776.250179 487.536958,776.077809 487.601978,775.906367 487.666779,775.735854 487.731364,775.566269 487.795730,775.397612 487.859879,775.229884 487.923810,775.063083 487.987523,774.897212 487.987523,774.897212 487.987523,774.897212 488.051092,774.732053 488.114591,774.567391 488.178018,774.403227 488.241373,774.239561 488.304658,774.076392 488.367872,773.913720 488.431015,773.751546 488.494087,773.589869 488.557087,773.428690 488.620017,773.268008 488.620017,773.268008 488.620017,773.268008 488.682875,773.107824 488.745663,772.948137 488.808379,772.788948 488.871024,772.630256 488.933598,772.472062 488.996101,772.314365 489.058534,772.157165 489.120895,772.000463 489.183184,771.844259 489.245403,771.688552 489.245403,771.688552 489.245403,771.688552 489.307551,771.533342 489.369628,771.378630 489.431634,771.224415 489.493568,771.070698 489.555432,770.917478 489.617224,770.764756 489.678946,770.612531 489.740596,770.460804 489.802175,770.309574 489.863683,770.158842 489.863683,770.158842 489.863683,770.158842 489.925120,770.008607 489.986487,769.858869 490.047782,769.709629 490.109005,769.560887 490.170158,769.412642 490.231240,769.264894 490.292251,769.117644 490.353191,768.970891 490.414059,768.824636 490.474857,768.678878 490.474857,768.678878 490.474857,768.678878 490.535583,768.533618 490.596239,768.388855 490.656823,768.244590 490.717336,768.100822 490.777778,767.957552 490.838149,767.814779 490.898450,767.672503 490.958679,767.530725 491.018836,767.389445 491.078923,767.248662 491.078923,767.248662 491.078923,767.248662 491.138939,767.108376 491.198884,766.968588 491.258758,766.829297 491.318560,766.690504 491.378292,766.552208 491.437952,766.414410 491.497542,766.277109 491.557060,766.140306 491.616507,766.004000 491.675883,765.868192 491.675883,765.868192 491.675883,765.868192 491.735188,765.732881 491.794423,765.598067 491.853586,765.463751 491.912677,765.329933 491.971698,765.196612 492.030648,765.063788 492.089527,764.931462 492.148335,764.799633 492.207071,764.668302 492.265737,764.537468 492.265737,764.537468 492.265737,764.537468 492.324331,764.407132 492.382855,764.277293 492.441307,764.147952 492.499688,764.019108 492.557998,763.890762 492.616237,763.762913 492.674406,763.635561 492.732503,763.508707 492.790528,763.382351 492.848483,763.256492 492.848483,763.256492 492.848483,763.256492 492.906367,763.131130 492.964180,763.006266 493.021922,762.881899 493.079592,762.758030 493.137192,762.634658 493.194720,762.511784 493.252178,762.389407 493.309564,762.267528 493.366879,762.146146 493.424123,762.025262 493.424123,762.025262 493.424123,762.025262 493.481299,761.904864 493.538407,761.784941 493.595450,761.665493 493.652425,761.546521 493.709334,761.428024 493.766176,761.310002 493.822952,761.192456 493.879661,761.075385 493.936303,760.958789 493.992879,760.842668 493.992879,760.842668 493.992879,760.842668 494.049390,760.727011 494.105839,760.611808 494.162226,760.497057 494.218551,760.382760 494.274814,760.268916 494.331014,760.155524 494.387152,760.042586 494.443228,759.930101 494.499242,759.818069 494.555194,759.706490 494.555194,759.706490 494.555194,759.706490 494.611083,759.595364 494.666911,759.484691 494.722676,759.374471 494.778379,759.264704 494.834019,759.155390 494.889598,759.046529 494.945114,758.938121 495.000569,758.830167 495.055961,758.722665 495.111290,758.615616 495.111290,758.615616 495.111290,758.615616 495.166558,758.509021 495.221764,758.402878 495.276907,758.297189 495.331988,758.191952 495.387007,758.087169 495.441964,757.982839 495.496858,757.878961 495.551691,757.775537 495.606461,757.672566 495.661169,757.570048 495.661169,757.570048 495.661169,757.570048 495.715815,757.467983 495.770398,757.366371 495.824920,757.265212 495.879379,757.164506 495.933776,757.064253 495.988111,756.964453 496.042384,756.865107 496.096594,756.766213 496.150743,756.667772 496.204829,756.569785 496.204829,756.569785 496.204829,756.569785 496.258853,756.472250 496.312815,756.375169 496.366714,756.278540 496.420552,756.182365 496.474327,756.086642 496.528040,755.991373 496.581691,755.896557 496.635280,755.802194 496.688806,755.708283 496.742270,755.614826 496.742270,755.614826 496.742270,755.614826 496.795673,755.521822 496.849013,755.429271 496.902290,755.337173 496.955506,755.245528 497.008659,755.154336 497.061751,755.063598 497.114780,754.973312 497.167747,754.883479 497.220651,754.794100 497.273494,754.705173 497.273494,754.705173 497.273494,754.705173 497.326274,754.616699 497.378992,754.528679 497.431648,754.441111 497.484242,754.353997 497.536774,754.267336 497.589243,754.181127 497.641650,754.095372 497.693995,754.010070 497.746278,753.925221 497.798499,753.840825 497.798499,753.840825 497.798499,753.840825 497.850657,753.756882 497.902754,753.673392 497.954788,753.590355 498.006760,753.507771 498.058669,753.425640 498.110517,753.343962 498.162302,753.262737 498.214026,753.181966 498.265687,753.101647 498.317285,753.021781 498.317285,753.021781 498.317285,753.021781 498.368822,752.942369 498.420297,752.863409 498.471709,752.784903 498.523059,752.706849 498.574347,752.629249 498.625573,752.552102 498.676736,752.475407 498.727838,752.399166 498.778877,752.323378 498.829854,752.248043 498.829854,752.248043 498.829854,752.248043 498.880782,752.173130 498.931675,752.098607 498.982532,752.024476 499.033353,751.950736 499.084139,751.877386 499.134890,751.804427 499.185605,751.731859 499.236284,751.659682 499.286928,751.587896 499.337536,751.516500 499.337536,751.516500 499.337536,751.516500 499.388122,751.445465 499.438700,751.374758 499.489268,751.304380 499.539828,751.234330 499.590378,751.164609 499.640920,751.095217 499.691453,751.026154 499.741977,750.957419 499.792492,750.889013 499.842998,750.820935 499.842998,750.820935 499.842998,750.820935 499.893495,750.753187 499.943984,750.685767 499.994463,750.618675 500.044934,750.551913 500.095396,750.485479 500.145849,750.419373 500.196293,750.353597 500.246728,750.288149 500.297154,750.223029 500.347571,750.158239 500.347571,750.158239 500.347571,750.158239 500.397980,750.093777 500.448379,750.029644 500.498770,749.965839 500.549152,749.902363 500.599525,749.839216 500.649889,749.776398 500.700244,749.713908 500.750590,749.651747 500.800928,749.589914 500.851256,749.528410 500.851256,749.528410 500.851256,749.528410 500.901576,749.467235 500.951887,749.406389 501.002189,749.345871 501.052482,749.285682 501.102766,749.225822 501.153041,749.166290 501.203307,749.107087 501.253565,749.048213 501.303813,748.989667 501.354053,748.931450 501.354053,748.931450 501.354053,748.931450 501.404284,748.873562 501.454506,748.816003 501.504719,748.758772 501.554923,748.701870 501.605118,748.645296 501.655305,748.589051 501.705482,748.533135 501.755651,748.477548 501.805810,748.422289 501.855961,748.367359 501.855961,748.367359 501.855961,748.367359 501.906103,748.312757 501.956236,748.258485 502.006361,748.204541 502.056476,748.150925 502.106582,748.097639 502.156680,748.044681 502.206769,747.992051 502.256848,747.939751 502.306919,747.887779 502.356981,747.836135 502.356981,747.836135 502.356981,747.836135 502.407034,747.784821 502.457079,747.733835 502.507114,747.683178 502.557141,747.632849 502.607158,747.582849 502.657167,747.533178 502.707167,747.483836 502.757158,747.434822 502.807140,747.386137 502.857113,747.337780 502.857113,747.337780 502.857113,747.337780 502.907077,747.289753 502.957033,747.242054 503.006979,747.194683 503.056917,747.147642 503.106846,747.100929 503.156766,747.054544 503.206677,747.008489 503.256579,746.962762 503.306472,746.917363 503.356356,746.872294 503.356356,746.872294 503.356356,746.872294 503.406232,746.827553 503.456098,746.783141 503.505956,746.739057 503.555805,746.695302 503.605645,746.651876 503.655476,746.608779 503.705298,746.566010 503.755111,746.523570 503.804916,746.481458 503.854711,746.439675 503.854711,746.439675 503.854711,746.439675 503.902013,746.400138 503.944335,746.364762 503.981679,746.333548 504.014043,746.306496 504.041428,746.283606 504.063834,746.264878 504.081261,746.250312 504.093708,746.239907 504.101177,746.233664 504.103667,746.231583 504.103667,746.231583 504.103667,746.231583 504.106154,746.229669 504.113616,746.223926 504.126053,746.214354 504.143464,746.200954 504.165850,746.183724 504.193211,746.162666 504.225546,746.137780 504.262856,746.109064 504.305141,746.076520 504.352400,746.040147 504.352400,746.040147 504.352400,746.040147 504.402147,746.002029 504.451893,745.964248 504.501640,745.926805 504.551387,745.889699 504.601133,745.852931 504.650880,745.816501 504.700627,745.780408 504.750373,745.744652 504.800120,745.709234 504.849867,745.674154 504.849867,745.674154 504.849867,745.674154 504.899613,745.639411 504.949360,745.605006 504.999107,745.570939 505.048853,745.537209 505.098600,745.503816 505.148347,745.470761 505.198093,745.438044 505.247840,745.405664 505.297587,745.373622 505.347333,745.341917 505.347333,745.341917 505.347333,745.341917 505.397080,745.310550 505.446827,745.279521 505.496573,745.248829 505.546320,745.218475 505.596067,745.188458 505.645813,745.158779 505.695560,745.129437 505.745307,745.100433 505.795053,745.071766 505.844800,745.043437 505.844800,745.043437 505.844800,745.043437 505.894547,745.015446 505.944293,744.987792 505.994040,744.960476 506.043787,744.933497 506.093533,744.906856 506.143280,744.880553 506.193027,744.854587 506.242773,744.828958 506.292520,744.803667 506.342267,744.778714 506.342267,744.778714 506.342267,744.778714 506.392013,744.754098 506.441760,744.729820 506.491507,744.705880 506.541253,744.682277 506.591000,744.659011 506.640747,744.636083 506.690493,744.613493 506.740240,744.591240 506.789987,744.569325 506.839733,744.547747 506.839733,744.547747 506.839733,744.547747 506.889480,744.526507 506.939227,744.505605 506.988973,744.485040 507.038720,744.464813 507.088467,744.444923 507.138213,744.425371 507.187960,744.406156 507.237707,744.387279 507.287453,744.368739 507.337200,744.350537 507.337200,744.350537 507.337200,744.350537 507.386947,744.332673 507.436693,744.315146 507.486440,744.297957 507.536187,744.281105 507.585933,744.264591 507.635680,744.248415 507.685427,744.232576 507.735173,744.217074 507.784920,744.201910 507.834667,744.187084 507.834667,744.187084 507.834667,744.187084 507.884413,744.172595 507.934160,744.158444 507.983907,744.144631 508.033653,744.131155 508.083400,744.118016 508.133147,744.105215 508.182893,744.092752 508.232640,744.080626 508.282387,744.068838 508.332133,744.057387 508.332133,744.057387 508.332133,744.057387 508.381880,744.046274 508.431627,744.035499 508.481373,744.025061 508.531120,744.014961 508.580867,744.005198 508.630613,743.995773 508.680360,743.986685 508.730107,743.977935 508.779853,743.969522 508.829600,743.961447 508.829600,743.961447 508.829600,743.961447 508.879347,743.953712 508.929093,743.946319 508.978840,743.939268 509.028587,743.932559 509.078333,743.926192 509.128080,743.920167 509.177827,743.914484 509.227573,743.909142 509.277320,743.904143 509.327067,743.899486 509.327067,743.899486 509.327067,743.899486 509.376813,743.895173 509.426560,743.891207 509.476307,743.887587 509.526053,743.884314 509.575800,743.881386 509.625547,743.878806 509.675293,743.876572 509.725040,743.874684 509.774787,743.873143 509.824533,743.871948 509.824533,743.871948 509.824533,743.871948 509.874280,743.871100 509.924027,743.870598 509.973773,743.870442 510.023520,743.870633 510.073267,743.871171 510.123013,743.872055 510.172760,743.873285 510.222507,743.874862 510.272253,743.876785 510.322000,743.879055 510.322000,743.879055 510.322000,743.879055 510.371747,743.881671 510.421493,743.884633 510.471240,743.887942 510.520987,743.891598 510.570733,743.895600 510.620480,743.899948 510.670227,743.904643 510.719973,743.909684 510.769720,743.915072 510.819467,743.920806 510.819467,743.920806 510.819467,743.920806 510.869213,743.926887 510.918960,743.933314 510.968707,743.940088 511.018453,743.947208 511.068200,743.954674 511.117947,743.962487 511.167693,743.970646 511.217440,743.979152 511.267187,743.988004 511.316933,743.997203 511.316933,743.997203 511.316933,743.997203 511.366680,744.006748 511.416427,744.016640 511.466173,744.026878 511.515920,744.037462 511.565667,744.048393 511.615413,744.059671 511.665160,744.071294 511.714907,744.083265 511.764653,744.095581 511.814400,744.108245 511.814400,744.108245 511.814400,744.108245 511.864147,744.121254 511.913893,744.134610 511.963640,744.148313 512.013387,744.162362 512.063133,744.176757 512.112880,744.191499 512.162627,744.206588 512.212373,744.222022 512.262120,744.237804 512.311867,744.253931 512.311867,744.253931 512.311867,744.253931 512.361613,744.270405 512.411360,744.287226 512.461107,744.304393 512.510853,744.321907 512.560600,744.339766 512.610347,744.357973 512.660093,744.376526 512.709840,744.395425 512.759587,744.414671 512.809333,744.434263 512.809333,744.434263 512.809333,744.434263 512.859080,744.454202 512.908827,744.474487 512.958573,744.495118 513.008320,744.516096 513.058067,744.537421 513.107813,744.559092 513.157560,744.581109 513.207307,744.603473 513.257053,744.626183 513.306800,744.649240 513.306800,744.649240 513.306800,744.649240 513.356547,744.672643 513.406293,744.696392 513.456040,744.720488 513.505787,744.744931 513.555533,744.769720 513.605280,744.794855 513.655027,744.820337 513.704773,744.846165 513.754520,744.872340 513.804267,744.898861 513.804267,744.898861 513.804267,744.898861 513.854016,744.925724 513.903769,744.952925 513.953527,744.980464 514.003289,745.008339 514.053056,745.036553 514.102827,745.065104 514.152602,745.093993 514.202382,745.123219 514.252167,745.152782 514.301955,745.182684 514.301955,745.182684 514.301955,745.182684 514.351751,745.212918 514.401555,745.243481 514.451369,745.274373 514.501191,745.305594 514.551022,745.337143 514.600862,745.369021 514.650711,745.401227 514.700568,745.433762 514.750435,745.466626 514.800310,745.499819 514.800310,745.499819 514.800310,745.499819 514.850195,745.533340 514.900088,745.567190 514.949990,745.601369 514.999901,745.635876 515.049821,745.670712 515.099750,745.705877 515.149687,745.741370 515.199634,745.777192 515.249589,745.813343 515.299554,745.849822 515.299554,745.849822 515.299554,745.849822 515.349527,745.886630 515.399509,745.923767 515.449500,745.961232 515.499500,745.999027 515.549509,746.037149 515.599526,746.075601 515.649553,746.114381 515.699588,746.153490 515.749632,746.192928 515.799685,746.232694 515.799685,746.232694 515.799685,746.232694 515.849747,746.272789 515.899818,746.313212 515.949898,746.353965 515.999987,746.395046 516.050084,746.436455 516.100191,746.478194 516.150306,746.520261 516.200430,746.562656 516.250563,746.605381 516.300705,746.648434 516.300705,746.648434 516.300705,746.648434 516.350856,746.691816 516.401016,746.735526 516.451185,746.779565 516.501362,746.823933 516.551549,746.868629 516.601744,746.913655 516.651948,746.959008 516.702161,747.004691 516.752383,747.050702 516.802614,747.097042 516.802614,747.097042 516.802614,747.097042 516.852853,747.143711 516.903102,747.190708 516.953359,747.238034 517.003626,747.285689 517.053901,747.333672 517.104185,747.381984 517.154478,747.430625 517.204780,747.479594 517.255091,747.528892 517.305410,747.578519 517.305410,747.578519 517.305410,747.578519 517.355739,747.628474 517.406076,747.678758 517.456423,747.729371 517.506778,747.780313 517.557142,747.831583 517.607515,747.883182 517.657897,747.935109 517.708287,747.987365 517.758687,748.039950 517.809095,748.092864 517.809095,748.092864 517.809095,748.092864 517.859513,748.146106 517.909939,748.199677 517.960374,748.253577 518.010818,748.307805 518.061271,748.362362 518.111733,748.417248 518.162203,748.472462 518.212683,748.528005 518.263171,748.583877 518.313669,748.640077 518.313669,748.640077 518.313669,748.640077 518.364175,748.696606 518.414690,748.753464 518.465214,748.810650 518.515747,748.868166 518.566289,748.926009 518.616839,748.984182 518.667399,749.042683 518.717967,749.101513 518.768544,749.160672 518.819130,749.220159 518.819130,749.220159 518.819130,749.220159 518.869721,749.279968 518.920312,749.340093 518.970902,749.400533 519.021493,749.461288 519.072083,749.522359 519.122674,749.583745 519.173265,749.645446 519.223855,749.707463 519.274446,749.769795 519.325036,749.832442 519.325036,749.832442 519.325036,749.832442 519.375622,749.895399 519.426200,749.958657 519.476768,750.022217 519.527328,750.086079 519.577878,750.150244 519.628420,750.214710 519.678953,750.279478 519.729477,750.344549 519.779992,750.409921 519.830498,750.475596 519.830498,750.475596 519.830498,750.475596 519.880995,750.541572 519.931484,750.607851 519.981963,750.674431 520.032434,750.741314 520.082896,750.808499 520.133349,750.875985 520.183793,750.943774 520.234228,751.011865 520.284654,751.080258 520.335071,751.148952 520.335071,751.148952 520.335071,751.148952 520.385480,751.217949 520.435879,751.287248 520.486270,751.356849 520.536652,751.426752 520.587025,751.496957 520.637389,751.567464 520.687744,751.638273 520.738090,751.709384 520.788428,751.780797 520.838756,751.852512 520.838756,751.852512 520.838756,751.852512 520.889076,751.924530 520.939387,751.996849 520.989689,752.069470 521.039982,752.142393 521.090266,752.215619 521.140541,752.289146 521.190807,752.362975 521.241065,752.437107 521.291313,752.511540 521.341553,752.586276 521.341553,752.586276 521.341553,752.586276 521.391784,752.661313 521.442006,752.736653 521.492219,752.812294 521.542423,752.888238 521.592618,752.964484 521.642805,753.041031 521.692982,753.117881 521.743151,753.195033 521.793310,753.272487 521.843461,753.350242 521.843461,753.350242 521.843461,753.350242 521.893603,753.428300 521.943736,753.506660 521.993861,753.585322 522.043976,753.664286 522.094082,753.743552 522.144180,753.823120 522.194269,753.902990 522.244348,753.983162 522.294419,754.063636 522.344481,754.144412 522.344481,754.144412 522.344481,754.144412 522.394534,754.225491 522.444579,754.306871 522.494614,754.388553 522.544641,754.470537 522.594658,754.552824 522.644667,754.635412 522.694667,754.718302 522.744658,754.801495 522.794640,754.884989 522.844613,754.968786 522.844613,754.968786 522.844613,754.968786 522.894577,755.052884 522.944533,755.137285 522.994479,755.221987 523.044417,755.306992 523.094346,755.392299 523.144266,755.477907 523.194177,755.563818 523.244079,755.650031 523.293972,755.736546 523.343856,755.823362 523.343856,755.823362 523.343856,755.823362 523.393732,755.910481 523.443598,755.997902 523.493456,756.085625 523.543305,756.173650 523.593145,756.261977 523.642976,756.350606 523.692798,756.439537 523.742611,756.528770 523.792416,756.618305 523.842211,756.708142 523.842211,756.708142 523.842211,756.708142 523.892018,756.798317 523.941856,756.888865 523.991724,756.979786 524.041624,757.071080 524.091555,757.162747 524.141517,757.254787 524.191511,757.347201 524.241535,757.439987 524.291590,757.533147 524.341677,757.626679 524.341677,757.626679 524.341677,757.626679 524.391814,757.720620 524.442023,757.815006 524.492302,757.909835 524.542653,758.005109 524.593075,758.100827 524.643568,758.196989 524.694132,758.293595 524.744767,758.390646 524.795473,758.488140 524.846250,758.586079 524.846250,758.586079 524.846250,758.586079 524.897098,758.684462 524.948017,758.783289 524.999008,758.882560 525.050069,758.982276 525.101202,759.082435 525.152405,759.183039 525.203680,759.284087 525.255025,759.385579 525.306442,759.487515 525.357930,759.589896 525.357930,759.589896 525.357930,759.589896 525.409489,759.692720 525.461119,759.795989 525.512820,759.899702 525.564592,760.003859 525.616435,760.108460 525.668349,760.213506 525.720334,760.318995 525.772391,760.424929 525.824518,760.531307 525.876717,760.638129 525.876717,760.638129 525.876717,760.638129 525.928986,760.745395 525.981327,760.853106 526.033738,760.961260 526.086221,761.069859 526.138775,761.178902 526.191400,761.288389 526.244096,761.398320 526.296863,761.508696 526.349701,761.619515 526.402610,761.730779 526.402610,761.730779 526.402610,761.730779 526.455590,761.842487 526.508641,761.954639 526.561764,762.067235 526.614957,762.180276 526.668222,762.293760 526.721557,762.407689 526.774964,762.522062 526.828441,762.636879 526.881990,762.752140 526.935610,762.867846 526.935610,762.867846 526.935610,762.867846 526.989301,762.983995 527.043063,763.100589 527.096896,763.217627 527.150800,763.335109 527.204775,763.453035 527.258821,763.571406 527.312938,763.690220 527.367127,763.809479 527.421386,763.929182 527.475717,764.049329 527.475717,764.049329 527.475717,764.049329 527.530118,764.169920 527.584591,764.290956 527.639134,764.412435 527.693749,764.534359 527.748435,764.656727 527.803192,764.779539 527.858020,764.902795 527.912919,765.026496 527.967889,765.150640 528.022930,765.275229 528.022930,765.275229 528.022930,765.275229 528.078042,765.400262 528.133225,765.525739 528.188480,765.651660 528.243805,765.778026 528.299202,765.904835 528.354669,766.032089 528.410208,766.159787 528.465817,766.287929 528.521498,766.416515 528.577250,766.545546 528.577250,766.545546 528.577250,766.545546 528.633073,766.675020 528.688967,766.804939 528.744932,766.935302 528.800968,767.066109 528.857075,767.197360 528.913253,767.329056 528.969502,767.461195 529.025823,767.593779 529.082214,767.726807 529.138677,767.860279 529.138677,767.860279 529.138677,767.860279 529.195230,767.994253 529.251892,768.128787 529.308664,768.263880 529.365546,768.399533 529.422538,768.535746 529.479639,768.672518 529.536851,768.809850 529.594171,768.947741 529.651602,769.086192 529.709142,769.225203 529.709142,769.225203 529.709142,769.225203 529.766811,769.364832 529.824629,769.505135 529.882595,769.646113 529.940709,769.787767 529.998972,769.930096 530.057383,770.073100 530.115942,770.216779 530.174650,770.361133 530.233506,770.506162 530.292511,770.651867 530.292511,770.651867 530.292511,770.651867 530.351663,770.798246 530.410965,770.945301 530.470414,771.093031 530.530012,771.241436 530.589758,771.390516 530.649653,771.540271 530.709695,771.690701 530.769887,771.841807 530.830226,771.993588 530.890714,772.146043 530.890714,772.146043 530.890714,772.146043 530.951351,772.299174 531.012135,772.452980 531.073068,772.607461 531.134150,772.762618 531.195379,772.918449 531.256757,773.074956 531.318284,773.232137 531.379959,773.389994 531.441782,773.548526 531.503753,773.707733 531.503753,773.707733 531.503753,773.707733 531.565873,773.867616 531.628141,774.028173 531.690558,774.189405 531.753123,774.351313 531.815836,774.513896 531.878697,774.677154 531.941707,774.841087 532.004866,775.005695 532.068172,775.170978 532.131627,775.336937 532.131627,775.336937 532.131627,775.336937 532.195230,775.503570 532.258982,775.670879 532.322882,775.838863 532.386931,776.007522 532.451127,776.176856 532.515472,776.346865 532.579966,776.517549 532.644608,776.688909 532.709398,776.860944 532.774336,777.033653 532.774336,777.033653 532.774336,777.033653 532.839423,777.207038 532.904658,777.381098 532.970042,777.555833 533.035574,777.731244 533.101254,777.907329 533.167083,778.084090 533.233060,778.261525 533.299185,778.439636 533.365459,778.618422 533.431881,778.797883 533.431881,778.797883 533.431881,778.797883 533.498451,778.978020 533.565170,779.158831 533.632037,779.340317 533.699052,779.522479 533.766216,779.705316 533.833528,779.888828 533.900989,780.073015 533.968597,780.257877 534.036355,780.443414 534.104260,780.629627 534.104260,780.629627 534.104260,780.629627 534.172314,780.816514 534.240516,781.004077 534.308867,781.192315 534.377366,781.381228 534.446013,781.570816 534.514809,781.761079 534.583753,781.952017 534.652845,782.143631 534.722086,782.335920 534.791475,782.528883 534.791475,782.528883 534.791475,782.528883 534.861012,782.722522 534.930698,782.916836 535.000532,783.111825 535.070515,783.307490 535.140645,783.503829 535.210924,783.700844 535.281352,783.898533 535.351928,784.096898 535.422652,784.295938 535.493525,784.495653 535.493525,784.495653 535.493525,784.495653 535.560924,784.685703 535.621229,784.855748 535.674439,785.005788 535.720554,785.135822 535.759575,785.245851 535.791501,785.335875 535.816332,785.405893 535.834069,785.455906 535.844711,785.485914 535.848258,785.495917 535.848258,785.495917 535.848258,785.495917 535.852040,785.506734 535.863383,785.539187 535.882289,785.593276 535.908757,785.669000 535.942788,785.766359 535.984381,785.885353 536.033537,786.025983 536.090255,786.188248 536.154535,786.372149 536.226377,786.577685 536.226377,786.577685 536.226377,786.577685 536.302395,786.795331 536.379199,787.015562 536.456791,787.238378 536.535169,787.463779 536.614335,787.691766 536.694287,787.922337 536.775027,788.155493 536.856554,788.391235 536.938868,788.629561 537.021969,788.870473 537.021969,788.870473 537.021969,788.870473 537.105857,789.113970 537.190532,789.360051 537.275994,789.608718 537.362243,789.859970 537.449279,790.113806 537.537103,790.370228 537.625713,790.629235 537.715110,790.890827 537.805295,791.155004 537.896266,791.421766 537.896266,791.421766 537.896266,791.421766 537.988025,791.691113 538.080571,791.963046 538.173903,792.237563 538.268023,792.514665 538.362930,792.794352 538.458624,793.076625 538.555105,793.361482 538.652373,793.648925 538.750428,793.938952 538.849270,794.231565 538.849270,794.231565 538.849270,794.231565 538.948900,794.526762 539.049316,794.824545 539.150519,795.124913 539.252510,795.427865 539.355287,795.733403 539.458852,796.041526 539.563203,796.352234 539.668342,796.665527 539.774268,796.981405 539.880981,797.299868 539.880981,797.299868 539.880981,797.299868 539.988481,797.620916 540.096768,797.944549 540.205842,798.270767 540.315703,798.599571 540.426351,798.930959 540.537786,799.264932 540.650008,799.601491 540.763018,799.940634 540.876814,800.282363 540.991397,800.626676 540.991397,800.626676 540.991397,800.626676 541.106768,800.973575 541.222926,801.323059 541.339870,801.675127 541.457602,802.029781 541.576121,802.387020 541.695426,802.746844 541.815519,803.109253 541.936399,803.474247 542.058066,803.841826 542.180520,804.211990 542.180520,804.211990 542.180520,804.211990 542.303762,804.584739 542.427790,804.960073 542.552605,805.337992 542.678207,805.718496 542.804597,806.101586 542.931773,806.487260 543.059737,806.875519 543.188487,807.266364 543.318025,807.659793 543.448350,808.055808 543.448350,808.055808 543.448350,808.055808 543.579462,808.454408 543.711360,808.855592 543.844046,809.259362 543.977519,809.665717 544.111779,810.074656 544.246826,810.486181 544.382661,810.900291 544.519282,811.316986 544.656690,811.736266 544.794885,812.158131 544.794885,812.158131 544.794885,812.158131 544.933868,812.582581 545.073637,813.009617 545.214194,813.439237 545.355537,813.871442 545.497668,814.306232 545.640586,814.743608 545.784291,815.183568 545.928783,815.626114 546.074061,816.071244 546.220127,816.518960 546.220127,816.518960 546.220127,816.518960 546.359264,816.945517 546.483755,817.327174 546.593599,817.663930 546.688798,817.955785 546.769351,818.202740 546.835257,818.404794 546.886518,818.561946 546.923133,818.674198 546.945102,818.741550 546.952425,818.764000 546.952425,818.764000 546.952425,818.764000 546.959729,818.786373 546.981640,818.853491 547.018158,818.965354 547.069283,819.121963 547.135016,819.323317 547.215357,819.569416 547.310304,819.860261 547.419859,820.195851 547.544021,820.576187 547.682790,821.001267 547.682790,821.001267 547.682790,821.001267 547.828431,821.447273 547.973208,821.890383 548.117120,822.330596 548.260168,822.767914 548.402352,823.202335 548.543671,823.633861 548.684126,824.062491 548.823716,824.488225 548.962442,824.911062 549.100304,825.331004 549.100304,825.331004 549.100304,825.331004 549.237301,825.748050 549.373434,826.162200 549.508703,826.573454 549.643108,826.981812 549.776648,827.387274 549.909323,827.789840 550.041135,828.189510 550.172082,828.586284 550.302164,828.980162 550.431383,829.371144 550.431383,829.371144 550.431383,829.371144 550.559737,829.759230 550.687226,830.144421 550.813851,830.526715 550.939612,830.906113 551.064509,831.282615 551.188541,831.656222 551.311709,832.026932 551.434012,832.394747 551.555452,832.759665 551.676026,833.121687 551.676026,833.121687 551.676026,833.121687 551.795737,833.480814 551.914583,833.837045 552.032565,834.190379 552.149682,834.540818 552.265935,834.888360 552.381324,835.233007 552.495848,835.574758 552.609508,835.913613 552.722304,836.249571 552.834235,836.582634 552.834235,836.582634 552.834235,836.582634 552.945302,836.912801 553.055505,837.240072 553.164843,837.564447 553.273317,837.885926 553.380927,838.204509 553.487672,838.520196 553.593553,838.832987 553.698570,839.142882 553.802722,839.449881 553.906010,839.753984 553.906010,839.753984 553.906010,839.753984 554.008433,840.055191 554.109992,840.353503 554.210687,840.648918 554.310518,840.941437 554.409484,841.231060 554.507585,841.517788 554.604823,841.801619 554.701196,842.082555 554.796705,842.360594 554.891349,842.635737 554.891349,842.635737 554.891349,842.635737 554.985129,842.907985 555.078045,843.177337 555.170096,843.443792 555.261283,843.707352 555.351606,843.968015 555.441064,844.225783 555.529658,844.480655 555.617387,844.732631 555.704253,844.981710 555.790253,845.227894 555.790253,845.227894 555.790253,845.227894 555.875390,845.471182 555.959662,845.711574 556.043070,845.949070 556.125614,846.183670 556.207293,846.415374 556.288107,846.644182 556.368058,846.870094 556.447144,847.093110 556.525366,847.313230 556.602723,847.530454 556.602723,847.530454 556.602723,847.530454 556.679216,847.744782 556.754845,847.956215 556.829609,848.164751 556.903509,848.370391 556.976545,848.573135 557.048716,848.772984 557.120023,848.969936 557.190466,849.163993 557.260044,849.355153 557.328758,849.543417 557.328758,849.543417 557.328758,849.543417 557.393626,849.720893 557.451665,849.879687 557.502876,850.019800 557.547260,850.141230 557.584814,850.243979 557.615541,850.328047 557.639440,850.393433 557.656510,850.440137 557.666753,850.468159 557.670167,850.477500 557.670167,850.477500 557.670167,850.477500 557.673347,850.485997 557.682888,850.511488 557.698789,850.553972 557.721050,850.613451 557.749672,850.689923 557.784655,850.783389 557.825998,850.893849 557.873702,851.021302 557.927766,851.165750 557.988190,851.327191 557.988190,851.327191 557.988190,851.327191 558.051759,851.496889 558.115257,851.666108 558.178684,851.834847 558.242040,852.003106 558.305325,852.170885 558.368539,852.338185 558.431682,852.505005 558.494753,852.671346 558.557754,852.837206 558.620683,853.002587 558.620683,853.002587 558.620683,853.002587 558.683542,853.167489 558.746329,853.331910 558.809046,853.495852 558.871691,853.659315 558.934265,853.822297 558.996768,853.984800 559.059200,854.146823 559.121561,854.308366 559.183851,854.469430 559.246070,854.630014 559.246070,854.630014 559.246070,854.630014 559.308218,854.790118 559.370295,854.949743 559.432300,855.108888 559.494235,855.267553 559.556098,855.425739 559.617891,855.583445 559.679612,855.740671 559.741263,855.897417 559.802842,856.053684 559.864350,856.209471 559.864350,856.209471 559.864350,856.209471 559.925787,856.364778 559.987153,856.519606 560.048448,856.673954 560.109672,856.827822 560.170825,856.981210 560.231907,857.134119 560.292918,857.286548 560.353857,857.438498 560.414726,857.589967 560.475523,857.740957 560.475523,857.740957 560.475523,857.740957 560.536250,857.891468 560.596905,858.041498 560.657490,858.191049 560.718003,858.340121 560.778445,858.488712 560.838816,858.636824 560.899116,858.784456 560.959345,858.931608 561.019503,859.078281 561.079590,859.224474 561.079590,859.224474 561.079590,859.224474 561.139606,859.370187 561.199551,859.515421 561.259424,859.660175 561.319227,859.804449 561.378958,859.948244 561.438619,860.091559 561.498208,860.234394 561.557727,860.376749 561.617174,860.518625 561.676550,860.660021 561.676550,860.660021 561.676550,860.660021 561.735855,860.800937 561.795089,860.941374 561.854252,861.081331 561.913344,861.220808 561.972365,861.359805 562.031315,861.498323 562.090194,861.636361 562.149001,861.773920 562.207738,861.910998 562.266403,862.047597 562.266403,862.047597 562.266403,862.047597 562.324998,862.183717 562.383521,862.319356 562.441974,862.454516 562.500355,862.589197 562.558665,862.723397 562.616904,862.857118 562.675072,862.990359 562.733169,863.123120 562.791195,863.255402 562.849150,863.387204 562.849150,863.387204 562.849150,863.387204 562.907034,863.518526 562.964847,863.649369 563.022588,863.779732 563.080259,863.909615 563.137858,864.039019 563.195387,864.167943 563.252844,864.296387 563.310231,864.424351 563.367546,864.551836 563.424790,864.678841 563.424790,864.678841 563.424790,864.678841 563.481963,864.805373 563.539065,864.931438 563.596096,865.057038 563.653056,865.182170 563.709945,865.306837 563.766763,865.431037 563.823510,865.554771 563.880185,865.678038 563.936790,865.800839 563.993323,865.923174 563.993323,865.923174 563.993323,865.923174 564.049786,866.045049 564.106177,866.166470 564.162498,866.287439 564.218747,866.407955 564.274925,866.528018 564.331032,866.647627 564.387068,866.766784 564.443033,866.885487 564.498927,867.003738 564.554750,867.121535 564.554750,867.121535 564.554750,867.121535 564.610502,867.238880 564.666183,867.355771 564.721792,867.472209 564.777331,867.588195 564.832798,867.703727 564.888195,867.818806 564.943520,867.933432 564.998775,868.047605 565.053958,868.161325 565.109070,868.274592 565.109070,868.274592 565.109070,868.274592 565.164111,868.387406 565.219081,868.499767 565.273980,868.611675 565.328808,868.723129 565.383565,868.834131 565.438251,868.944680 565.492866,869.054775 565.547409,869.164418 565.601882,869.273607 565.656283,869.382344 565.656283,869.382344 565.656283,869.382344 565.710614,869.490627 565.764873,869.598457 565.819062,869.705835 565.873179,869.812759 565.927225,869.919230 565.981200,870.025248 566.035104,870.130813 566.088937,870.235925 566.142699,870.340584 566.196390,870.444790 566.196390,870.444790 566.196390,870.444790 566.250010,870.548543 566.303559,870.651843 566.357036,870.754690 566.410443,870.857084 566.463778,870.959024 566.517043,871.060512 566.570236,871.161547 566.623359,871.262128 566.676410,871.362257 566.729390,871.461932 566.729390,871.461932 566.729390,871.461932 566.782299,871.561154 566.835137,871.659924 566.887904,871.758240 566.940600,871.856103 566.993225,871.953514 567.045779,872.050471 567.098262,872.146975 567.150673,872.243026 567.203014,872.338624 567.255283,872.433769 567.255283,872.433769 567.255283,872.433769 567.307482,872.528461 567.359609,872.622699 567.411666,872.716485 567.463651,872.809818 567.515565,872.902698 567.567408,872.995124 567.619180,873.087098 567.670881,873.178618 567.722511,873.269686 567.774070,873.360300 567.774070,873.360300 567.774070,873.360300 567.825558,873.450462 567.876975,873.540170 567.928320,873.629425 567.979595,873.718228 568.030798,873.806577 568.081931,873.894473 568.132992,873.981916 568.183983,874.068906 568.234902,874.155443 568.285750,874.241527 568.285750,874.241527 568.285750,874.241527 568.336527,874.327158 568.387233,874.412336 568.437868,874.497061 568.488432,874.581332 568.538925,874.665151 568.589347,874.748517 568.639698,874.831429 568.689977,874.913889 568.740186,874.995895 568.790323,875.077449 568.790323,875.077449 568.790323,875.077449 568.837920,875.154709 568.880507,875.223837 568.918083,875.284832 568.950650,875.337695 568.978206,875.382425 569.000752,875.419022 569.018287,875.447486 569.030813,875.467818 569.038328,875.480017 569.040833,875.484083 569.040833,875.484083 569.040833,875.484083 569.043323,875.487956 569.050792,875.499576 569.063239,875.518942 569.080666,875.546053 569.103072,875.580912 569.130457,875.623516 569.162821,875.673867 569.200165,875.731964 569.242487,875.797807 569.289789,875.871397 569.289789,875.871397 569.289789,875.871397 569.339584,875.948699 569.389389,876.025682 569.439202,876.102346 569.489024,876.178689 569.538855,876.254712 569.588695,876.330416 569.638544,876.405800 569.688402,876.480864 569.738268,876.555609 569.788144,876.630033 569.788144,876.630033 569.788144,876.630033 569.838028,876.704138 569.887921,876.777923 569.937823,876.851388 569.987734,876.924534 570.037654,876.997359 570.087583,877.069865 570.137521,877.142051 570.187467,877.213917 570.237423,877.285463 570.287387,877.356690 570.287387,877.356690 570.287387,877.356690 570.337360,877.427597 570.387342,877.498184 570.437333,877.568451 570.487333,877.638398 570.537342,877.708026 570.587359,877.777334 570.637386,877.846322 570.687421,877.914990 570.737466,877.983338 570.787519,878.051367 570.787519,878.051367 570.787519,878.051367 570.837581,878.119075 570.887652,878.186464 570.937731,878.253534 570.987820,878.320283 571.037918,878.386712 571.088024,878.452822 571.138139,878.518612 571.188264,878.584082 571.238397,878.649233 571.288539,878.714063 571.288539,878.714063 571.288539,878.714063 571.338690,878.778574 571.388849,878.842765 571.439018,878.906636 571.489195,878.970188 571.539382,879.033419 571.589577,879.096331 571.639781,879.158923 571.689994,879.221195 571.740216,879.283147 571.790447,879.344780 571.790447,879.344780 571.790447,879.344780 571.840687,879.406093 571.890935,879.467086 571.941193,879.527759 571.991459,879.588112 572.041734,879.648146 572.092018,879.707860 572.142311,879.767254 572.192613,879.826328 572.242924,879.885082 572.293244,879.943517 572.293244,879.943517 572.293244,879.943517 572.343572,880.001631 572.393910,880.059426 572.444256,880.116902 572.494611,880.174057 572.544975,880.230892 572.595348,880.287408 572.645730,880.343604 572.696121,880.399480 572.746520,880.455037 572.796929,880.510273 572.796929,880.510273 572.796929,880.510273 572.847346,880.565190 572.897772,880.619787 572.948207,880.674064 572.998651,880.728022 573.049104,880.781659 573.099566,880.834977 573.150037,880.887975 573.200516,880.940653 573.251005,880.993011 573.301502,881.045050 573.301502,881.045050 573.301502,881.045050 573.352008,881.096769 573.402523,881.148168 573.453047,881.199247 573.503580,881.250006 573.554122,881.300446 573.604672,881.350566 573.655232,881.400366 573.705800,881.449846 573.756378,881.499006 573.806964,881.547847 573.806964,881.547847 573.806964,881.547847 573.857554,881.596365 573.908145,881.644560 573.958735,881.692430 574.009326,881.739975 574.059917,881.787197 574.110507,881.834094 574.161098,881.880667 574.211688,881.926916 574.262279,881.972841 574.312870,882.018441 574.312870,882.018441 574.312870,882.018441 574.363456,882.063715 574.414033,882.108660 574.464601,882.153277 574.515161,882.197565 574.565711,882.241524 574.616253,882.285154 574.666786,882.328456 574.717310,882.371429 574.767825,882.414074 574.818331,882.456390 574.818331,882.456390 574.818331,882.456390 574.868829,882.498377 574.919317,882.540035 574.969797,882.581365 575.020267,882.622366 575.070729,882.663038 575.121182,882.703382 575.171626,882.743397 575.222061,882.783083 575.272487,882.822441 575.322905,882.861470 575.322905,882.861470 575.322905,882.861470 575.373313,882.900170 575.423713,882.938541 575.474103,882.976584 575.524485,883.014298 575.574858,883.051684 575.625222,883.088741 575.675577,883.125469 575.725924,883.161868 575.776261,883.197939 575.826590,883.233681 575.826590,883.233681 575.826590,883.233681 575.876909,883.269095 575.927220,883.304179 575.977522,883.338935 576.027815,883.373363 576.078099,883.407461 576.128374,883.441231 576.178641,883.474673 576.228898,883.507785 576.279147,883.540569 576.329386,883.573025 576.329386,883.573025 576.329386,883.573025 576.379617,883.605151 576.429839,883.636949 576.480052,883.668418 576.530256,883.699559 576.580451,883.730371 576.630638,883.760854 576.680815,883.791008 576.730984,883.820834 576.781144,883.850331 576.831295,883.879500 576.831295,883.879500 576.831295,883.879500 576.881437,883.908339 576.931570,883.936850 576.981694,883.965033 577.031809,883.992886 577.081916,884.020411 577.132013,884.047608 577.182102,884.074475 577.232182,884.101014 577.282253,884.127225 577.332315,884.153106 577.332315,884.153106 577.332315,884.153106 577.382368,884.178659 577.432412,884.203883 577.482447,884.228779 577.532474,884.253346 577.582491,884.277584 577.632500,884.301493 577.682500,884.325074 577.732491,884.348326 577.782473,884.371250 577.832446,884.393845 577.832446,884.393845 577.832446,884.393845 577.882411,884.416111 577.932366,884.438048 577.982313,884.459657 578.032250,884.480937 578.082179,884.501888 578.132099,884.522511 578.182010,884.542805 578.231912,884.562770 578.281805,884.582407 578.331690,884.601715 578.331690,884.601715 578.331690,884.601715 578.381565,884.620694 578.431432,884.639344 578.481289,884.657666 578.531138,884.675659 578.580978,884.693324 578.630809,884.710660 578.680631,884.727667 578.730445,884.744345 578.780249,884.760695 578.830045,884.776716 578.830045,884.776716 578.830045,884.776716 578.879833,884.792402 578.929618,884.807746 578.979398,884.822747 579.029173,884.837407 579.078944,884.851725 579.128711,884.865701 579.178473,884.879334 579.228231,884.892626 579.277984,884.905576 579.327733,884.918183 579.327733,884.918183 579.327733,884.918183 579.377480,884.930442 579.427227,884.942346 579.476973,884.953894 579.526720,884.965087 579.576467,884.975925 579.626213,884.986407 579.675960,884.996534 579.725707,885.006306 579.775453,885.015722 579.825200,885.024783 579.825200,885.024783 579.825200,885.024783 579.874947,885.033489 579.924693,885.041839 579.974440,885.049834 580.024187,885.057474 580.073933,885.064758 580.123680,885.071687 580.173427,885.078261 580.223173,885.084479 580.272920,885.090342 580.322667,885.095850 580.322667,885.095850 580.322667,885.095850 580.372413,885.101002 580.422160,885.105799 580.471907,885.110241 580.521653,885.114327 580.571400,885.118058 580.621147,885.121434 580.670893,885.124454 580.720640,885.127119 580.770387,885.129429 580.820133,885.131383 580.820133,885.131383 580.820133,885.131383 580.869880,885.132982 580.919627,885.134226 580.969373,885.135114 581.019120,885.135647 581.068867,885.135825 581.118613,885.135647 581.168360,885.135114 581.218107,885.134226 581.267853,885.132982 581.317600,885.131383 581.317600,885.131383 581.317600,885.131383 581.367347,885.129429 581.417093,885.127119 581.466840,885.124454 581.516587,885.121434 581.566333,885.118058 581.616080,885.114327 581.665827,885.110241 581.715573,885.105799 581.765320,885.101002 581.815067,885.095850 581.815067,885.095850 581.815067,885.095850 581.864813,885.090342 581.914560,885.084479 581.964307,885.078261 582.014053,885.071687 582.063800,885.064758 582.113547,885.057474 582.163293,885.049834 582.213040,885.041839 582.262787,885.033489 582.312533,885.024783 582.312533,885.024783 582.312533,885.024783 582.362280,885.015722 582.412027,885.006306 582.461773,884.996534 582.511520,884.986407 582.561267,884.975925 582.611013,884.965087 582.660760,884.953894 582.710507,884.942346 582.760253,884.930442 582.810000,884.918183 582.810000,884.918183 582.810000,884.918183 582.859747,884.905569 582.909493,884.892599 582.959240,884.879274 583.008987,884.865594 583.058733,884.851558 583.108480,884.837167 583.158227,884.822421 583.207973,884.807319 583.257720,884.791862 583.307467,884.776050 583.307467,884.776050 583.307467,884.776050 583.357213,884.759882 583.406960,884.743359 583.456707,884.726481 583.506453,884.709247 583.556200,884.691658 583.605947,884.673714 583.655693,884.655414 583.705440,884.636759 583.755187,884.617749 583.804933,884.598383 583.804933,884.598383 583.804933,884.598383 583.854682,884.578669 583.904436,884.558613 583.954193,884.538214 584.003956,884.517474 584.053722,884.496392 584.103493,884.474967 584.153269,884.453201 584.203049,884.431092 584.252833,884.408642 584.302622,884.385850 584.302622,884.385850 584.302622,884.385850 584.352418,884.362722 584.402222,884.339265 584.452035,884.315480 584.501857,884.291366 584.551689,884.266924 584.601528,884.242153 584.651377,884.217053 584.701235,884.191624 584.751102,884.165867 584.800977,884.139781 584.800977,884.139781 584.800977,884.139781 584.850861,884.113367 584.900755,884.086623 584.950657,884.059551 585.000568,884.032151 585.050488,884.004421 585.100416,883.976363 585.150354,883.947977 585.200301,883.919261 585.250256,883.890217 585.300220,883.860845 585.300220,883.860845 585.300220,883.860845 585.350194,883.831143 585.400176,883.801113 585.450167,883.770754 585.500166,883.740067 585.550175,883.709051 585.600193,883.677706 585.650219,883.646032 585.700255,883.614030 585.750299,883.581699 585.800352,883.549040 585.800352,883.549040 585.800352,883.549040 585.850414,883.516051 585.900485,883.482734 585.950565,883.449089 586.000653,883.415114 586.050751,883.380811 586.100857,883.346180 586.150973,883.311219 586.201097,883.275930 586.251230,883.240313 586.301372,883.204366 586.301372,883.204366 586.301372,883.204366 586.351523,883.168091 586.401683,883.131487 586.451851,883.094555 586.502029,883.057294 586.552215,883.019704 586.602410,882.981785 586.652615,882.943538 586.702828,882.904962 586.753050,882.866058 586.803280,882.826825 586.803280,882.826825 586.803280,882.826825 586.853520,882.787263 586.903769,882.747372 586.954026,882.707153 587.004292,882.666605 587.054568,882.625728 587.104852,882.584523 587.155145,882.542989 587.205447,882.501126 587.255757,882.458935 587.306077,882.416415 587.306077,882.416415 587.306077,882.416415 587.356406,882.373566 587.406743,882.330388 587.457089,882.286882 587.507444,882.243047 587.557809,882.198884 587.608181,882.154392 587.658563,882.109571 587.708954,882.064421 587.759354,882.018943 587.809762,881.973136 587.809762,881.973136 587.809762,881.973136 587.860179,881.927001 587.910606,881.880536 587.961041,881.833743 588.011485,881.786622 588.061938,881.739171 588.112399,881.691392 588.162870,881.643285 588.213350,881.594848 588.263838,881.546083 588.314335,881.496990 588.314335,881.496990 588.314335,881.496990 588.364842,881.447567 588.415357,881.397816 588.465881,881.347736 588.516413,881.297328 588.566955,881.246591 588.617506,881.195525 588.668065,881.144130 588.718634,881.092407 588.769211,881.040355 588.819797,880.987975 588.819797,880.987975 588.819797,880.987975 588.867858,880.938057 588.910860,880.893394 588.948803,880.853985 588.981687,880.819831 589.009512,880.790931 589.032278,880.767286 589.049984,880.748895 589.062632,880.735759 589.070220,880.727877 589.072750,880.725250 589.072750,880.725250 589.072750,880.725250 589.075280,880.722463 589.082868,880.714101 589.095516,880.700166 589.113222,880.680656 589.135988,880.655571 589.163813,880.624913 589.196697,880.588680 589.234640,880.546873 589.277642,880.499491 589.325703,880.446535 589.325703,880.446535 589.325703,880.446535 589.376289,880.390637 589.426866,880.334428 589.477435,880.277908 589.527994,880.221076 589.578545,880.163934 589.629087,880.106481 589.679619,880.048718 589.730143,879.990643 589.780658,879.932257 589.831165,879.873560 589.831165,879.873560 589.831165,879.873560 589.881662,879.814553 589.932150,879.755234 589.982630,879.695605 590.033101,879.635665 590.083562,879.575414 590.134015,879.514851 590.184459,879.453978 590.234894,879.392794 590.285321,879.331300 590.335738,879.269494 590.335738,879.269494 590.335738,879.269494 590.386146,879.207377 590.436546,879.144949 590.486937,879.082211 590.537319,879.019161 590.587691,878.955801 590.638056,878.892130 590.688411,878.828148 590.738757,878.763854 590.789094,878.699250 590.839423,878.634335 590.839423,878.634335 590.839423,878.634335 590.889743,878.569110 590.940053,878.503573 590.990355,878.437725 591.040648,878.371566 591.090932,878.305097 591.141208,878.238316 591.191474,878.171225 591.241731,878.103823 591.291980,878.036110 591.342220,877.968085 591.342220,877.968085 591.342220,877.968085 591.392450,877.899750 591.442672,877.831104 591.492885,877.762148 591.543090,877.692880 591.593285,877.623301 591.643471,877.553411 591.693649,877.483211 591.743817,877.412699 591.793977,877.341877 591.844128,877.270744 591.844128,877.270744 591.844128,877.270744 591.894270,877.199300 591.944403,877.127544 591.994527,877.055478 592.044643,876.983101 592.094749,876.910414 592.144847,876.837415 592.194935,876.764105 592.245015,876.690484 592.295086,876.616553 592.345148,876.542310 592.345148,876.542310 592.345148,876.542310 592.395201,876.467757 592.445245,876.392893 592.495281,876.317718 592.545307,876.242231 592.595325,876.166434 592.645334,876.090326 592.695333,876.013908 592.745324,875.937178 592.795306,875.860137 592.845280,875.782785 592.845280,875.782785 592.845280,875.782785 592.895244,875.705123 592.945199,875.627149 592.995146,875.548865 593.045084,875.470270 593.095012,875.391364 593.144932,875.312146 593.194843,875.232618 593.244745,875.152779 593.294639,875.072630 593.344523,874.992169 593.344523,874.992169 593.344523,874.992169 593.394398,874.911397 593.444265,874.830314 593.494123,874.748921 593.543972,874.667216 593.593811,874.585201 593.643643,874.502875 593.693465,874.420238 593.743278,874.337289 593.793082,874.254030 593.842878,874.170460 593.842878,874.170460 593.842878,874.170460 593.892685,874.086544 593.942522,874.002246 593.992391,873.917565 594.042291,873.832503 594.092222,873.747059 594.142184,873.661232 594.192177,873.575024 594.242202,873.488434 594.292257,873.401461 594.342343,873.314107 594.342343,873.314107 594.342343,873.314107 594.392481,873.226335 594.442689,873.138110 594.492969,873.049433 594.543320,872.960302 594.593742,872.870718 594.644235,872.780681 594.694798,872.690191 594.745433,872.599247 594.796140,872.507851 594.846917,872.416002 594.846917,872.416002 594.846917,872.416002 594.897765,872.323700 594.948684,872.230944 594.999674,872.137736 595.050736,872.044075 595.101868,871.949960 595.153072,871.855393 595.204346,871.760372 595.255692,871.664898 595.307109,871.568972 595.358597,871.472592 595.358597,871.472592 595.358597,871.472592 595.410156,871.375759 595.461785,871.278473 595.513486,871.180735 595.565259,871.082543 595.617102,870.983898 595.669016,870.884800 595.721001,870.785249 595.773057,870.685244 595.825185,870.584787 595.877383,870.483877 595.877383,870.483877 595.877383,870.483877 595.929653,870.382514 595.981993,870.280697 596.034405,870.178428 596.086888,870.075706 596.139442,869.972530 596.192067,869.868902 596.244762,869.764820 596.297529,869.660285 596.350368,869.555298 596.403277,869.449857 596.403277,869.449857 596.403277,869.449857 596.456257,869.343963 596.509308,869.237616 596.562430,869.130817 596.615624,869.023564 596.668888,868.915858 596.722224,868.807699 596.775630,868.699087 596.829108,868.590021 596.882657,868.480503 596.936277,868.370532 596.936277,868.370532 596.936277,868.370532 596.989968,868.260108 597.043729,868.149230 597.097562,868.037900 597.151467,867.926117 597.205442,867.813880 597.259488,867.701191 597.313605,867.588048 597.367793,867.474452 597.422053,867.360404 597.476383,867.245902 597.476383,867.245902 597.476383,867.245902 597.530785,867.130947 597.585257,867.015539 597.639801,866.899679 597.694416,866.783365 597.749102,866.666598 597.803859,866.549378 597.858686,866.431705 597.913585,866.313578 597.968556,866.194999 598.023597,866.075967 598.023597,866.075967 598.023597,866.075967 598.078709,865.956482 598.133892,865.836543 598.189146,865.716152 598.244472,865.595308 598.299868,865.474010 598.355336,865.352260 598.410874,865.230056 598.466484,865.107399 598.522165,864.984290 598.577917,864.860727 598.577917,864.860727 598.577917,864.860727 598.633740,864.736711 598.689633,864.612242 598.745598,864.487321 598.801635,864.361946 598.857742,864.236118 598.913920,864.109837 598.970169,863.983103 599.026489,863.855915 599.082881,863.728275 599.139343,863.600182 599.139343,863.600182 599.139343,863.600182 599.195897,863.471578 599.252561,863.342406 599.309337,863.212664 599.366224,863.082355 599.423221,862.951477 599.480330,862.820030 599.537550,862.688015 599.594881,862.555431 599.652323,862.422279 599.709875,862.288558 599.709875,862.288558 599.709875,862.288558 599.767559,862.154211 599.825394,862.019180 599.883380,861.883465 599.941517,861.747065 599.999805,861.609982 600.058244,861.472215 600.116834,861.333764 600.175575,861.194629 600.234467,861.054809 600.293510,860.914306 600.293510,860.914306 600.293510,860.914306 600.352705,860.773119 600.412050,860.631248 600.471546,860.488692 600.531193,860.345453 600.590991,860.201530 600.650940,860.056922 600.711040,859.911631 600.771292,859.765656 600.831694,859.618996 600.892247,859.471653 600.892247,859.471653 600.892247,859.471653 600.952951,859.323625 601.013807,859.174914 601.074813,859.025519 601.135970,858.875439 601.197279,858.724676 601.258738,858.573228 601.320348,858.421097 601.382110,858.268281 601.444022,858.114781 601.506085,857.960598 601.506085,857.960598 601.506085,857.960598 601.568300,857.805730 601.630665,857.650179 601.693182,857.493943 601.755849,857.337023 601.818668,857.179420 601.881637,857.021132 601.944758,856.862160 602.008029,856.702505 602.071452,856.542165 602.135025,856.381141 602.135025,856.381141 602.135025,856.381141 602.198750,856.219433 602.262626,856.057042 602.326652,855.893966 602.390830,855.730206 602.455159,855.565762 602.519638,855.400634 602.584269,855.234823 602.649051,855.068327 602.713983,854.901147 602.779067,854.733283 602.779067,854.733283 602.779067,854.733283 602.844302,854.564735 602.909688,854.395503 602.975224,854.225587 603.040912,854.054987 603.106751,853.883703 603.172741,853.711735 603.238882,853.539083 603.305174,853.365747 603.371617,853.191727 603.438210,853.017023 603.438210,853.017023 603.438210,853.017023 603.504955,852.841635 603.571851,852.665563 603.638898,852.488807 603.706096,852.311366 603.773445,852.133242 603.840945,851.954434 603.908596,851.774942 603.976398,851.594766 604.044351,851.413905 604.112455,851.232361 604.112455,851.232361 604.112455,851.232361 604.180711,851.050133 604.249117,850.867221 604.317674,850.683624 604.386382,850.499344 604.455241,850.314380 604.524251,850.128731 604.593412,849.942399 604.662725,849.755383 604.732188,849.567682 604.801802,849.379298 604.801802,849.379298 604.801802,849.379298 604.871567,849.190229 604.941484,849.000477 605.011551,848.810041 605.081769,848.618920 605.152139,848.427116 605.222659,848.234627 605.293330,848.041455 605.364153,847.847598 605.435126,847.653057 605.506250,847.457833 605.506250,847.457833 605.506250,847.457833 605.577486,847.262042 605.648792,847.065803 605.720170,846.869114 605.791619,846.671978 605.863138,846.474392 605.934729,846.276358 606.006391,846.077876 606.078124,845.878945 606.149928,845.679565 606.221803,845.479737 606.221803,845.479737 606.221803,845.479737 606.293709,845.279577 606.365606,845.079205 606.437495,844.878619 606.509374,844.677820 606.581245,844.476808 606.653107,844.275583 606.724959,844.074145 606.796803,843.872493 606.868638,843.670628 606.940465,843.468550 606.940465,843.468550 606.940465,843.468550 607.012282,843.266259 607.084090,843.063754 607.155890,842.861037 607.227681,842.658106 607.299462,842.454962 607.371235,842.251604 607.442999,842.048034 607.514754,841.844250 607.586501,841.640253 607.658238,841.436043 607.658238,841.436043 607.658238,841.436043 607.729966,841.231620 607.801686,841.026984 607.873397,840.822134 607.945099,840.617071 608.016791,840.411795 608.088476,840.206306 608.160151,840.000603 608.231817,839.794688 608.303474,839.588559 608.375123,839.382217 608.375123,839.382217 608.375123,839.382217 608.446763,839.175661 608.518393,838.968893 608.590015,838.761911 608.661628,838.554716 608.733232,838.347308 608.804828,838.139687 608.876414,837.931853 608.947991,837.723805 609.019560,837.515544 609.091120,837.307070 609.091120,837.307070 609.091120,837.307070 609.162670,837.098383 609.234212,836.889482 609.305745,836.680369 609.377270,836.471042 609.448785,836.261502 609.520291,836.051748 609.591789,835.841782 609.663277,835.631602 609.734757,835.421209 609.806228,835.210603 609.806228,835.210603 609.806228,835.210603 609.877690,834.999784 609.949143,834.788752 610.020587,834.577506 610.092023,834.366047 610.163449,834.154375 610.234867,833.942490 610.306275,833.730391 610.377675,833.518080 610.449066,833.305555 610.520448,833.092817 610.520448,833.092817 610.520448,833.092817 610.591821,832.879865 610.663185,832.666701 610.734541,832.453323 610.805887,832.239732 610.877225,832.025928 610.948554,831.811911 611.019873,831.597681 611.091184,831.383237 611.162486,831.168580 611.233780,830.953710 611.233780,830.953710 611.233780,830.953710 611.305064,830.738627 611.376339,830.523330 611.447606,830.307821 611.518864,830.092098 611.590112,829.876162 611.661352,829.660012 611.732583,829.443650 611.803805,829.227074 611.875019,829.010285 611.946223,828.793283 611.946223,828.793283 611.946223,828.793283 612.017418,828.576068 612.088605,828.358640 612.159783,828.140998 612.230952,827.923143 612.302111,827.705075 612.373263,827.486794 612.444405,827.268299 612.515538,827.049592 612.586662,826.830671 612.657778,826.611537 612.657778,826.611537 612.657778,826.611537 612.725333,826.403258 612.785778,826.216903 612.839111,826.052473 612.885333,825.909967 612.924444,825.789384 612.956444,825.690726 612.981333,825.613992 612.999111,825.559181 613.009778,825.526295 613.013333,825.515333 613.013333,825.515333 613.013333,825.515333 613.031100,825.460257 613.084400,825.295027 613.173233,825.019643 613.297600,824.634107 613.457500,824.138417 613.652933,823.532573 613.883900,822.816577 614.150400,821.990427 614.452433,821.054123 614.790000,820.007667 614.790000,820.007667 616.566667,814.500000"/>
	<text fill="rgb(0,0,0)" font-size="36" font-family="helvetica" text-anchor="middle" dominant-baseline="central" x="548.165" y="931.76">freqHz=1/5</text>
	<text fill="rgb(0,0,255)" font-size="33" font-family="helvetica" text-anchor="middle" dominant-baseline="central" x="545.5" y="166.017">yDeclaredPresent</text>
	<rect fill="rgb(255,255,255)" stroke="rgb(0,0,127)" stroke-opacity="1" x="456.667" y="192.667" width="177.667" height="177.667"/>
	<polyline fill="none" stroke="rgb(192,192,192)" stroke-opacity="1" points="474.433333,221.093333 474.433333,352.566667"/>
	<polygon fill="rgb(192,192,192)" stroke="rgb(192,192,192)" stroke-opacity="1" points="474.433333,201.550000 467.326667,221.093333 481.540000,221.093333 474.433333,201.550000"/>
	<polyline fill="none" stroke="rgb(192,192,192)" stroke-opacity="1" points="465.550000,343.683333 618.343333,343.683333"/>
	<polygon fill="rgb(192,192,192)" stroke="rgb(192,192,192)" stroke-opacity="1" points="625.450000,343.683333 605.906667,336.576667 605.906667,350.790000 625.450000,343.683333"/>
	<polyline fill="none" stroke="rgb(0,0,0)" stroke-opacity="1" points="474.433333,343.683333 509.966667,343.683333 573.038333,247.743333"/>
	<text fill="rgb(0,0,0)" font-size="36" font-family="helvetica" text-anchor="middle" dominant-baseline="central" x="545.5" y="396.983">duration=3600 s</text>
	<polyline fill="none" stroke="rgb(0,0,0)" stroke-opacity="1" points="573.038333,247.743333 621.896667,247.743333"/>
	<polyline fill="none" stroke="rgb(255,255,255)" stroke-width="5" stroke-opacity="1" points="652.100000,281.500000 776.466667,281.500000 776.466667,547.555833 954.577500,547.555833"/>
	<polyline fill="none" stroke="rgb(0,0,127)" stroke-opacity="1" points="652.100000,281.500000 776.466667,281.500000 776.466667,547.555833 954.577500,547.555833"/>
	<text fill="rgb(0,0,0)" font-size="10" font-family="helvetica" text-anchor="start" dominant-baseline="central" x="705.4" y="254.85">yDeclaredPresent</text>
	<polyline fill="none" stroke="rgb(255,255,255)" stroke-width="5" stroke-opacity="1" points="652.100000,814.500000 776.466667,814.500000 776.466667,548.000000 954.133333,548.000000"/>
	<polyline fill="none" stroke="rgb(0,0,127)" stroke-opacity="1" points="652.100000,814.500000 776.466667,814.500000 776.466667,548.000000 954.133333,548.000000"/>
	<text fill="rgb(0,0,0)" font-size="10" font-family="helvetica" text-anchor="start" dominant-baseline="central" x="705.4" y="787.85">yNotDeclaredPresent</text>
	<polyline fill="none" stroke="rgb(255,255,255)" stroke-width="6" stroke-opacity="1" points="954.133333,548.000000 1291.700000,548.000000 1291.700000,547.111667 1630.155000,547.111667"/>
	<polyline fill="none" stroke="rgb(255,204,51)" stroke-width="2" stroke-opacity="1" points="954.133333,548.000000 1291.700000,548.000000 1291.700000,547.111667 1630.155000,547.111667"/>
	<text fill="rgb(0,0,0)" font-size="10" font-family="helvetica" text-anchor="end" dominant-baseline="central" x="1576.86" y="520.462">ahuI</text>
	<polygon fill="rgb(255,204,51)" stroke="rgb(0,0,0)" stroke-opacity="1" points="1629.266667,503.583333 1636.217875,503.605542 1642.858167,503.672167 1649.187542,503.783208 1655.206000,503.938667 1660.913542,504.138542 1666.310167,504.382833 1671.395875,504.671542 1676.170667,505.004667 1680.634542,505.382208 1684.787500,505.804167 1688.629542,506.270542 1692.160667,506.781333 1695.380875,507.336542 1698.290167,507.936167 1700.888542,508.580208 1703.176000,509.268667 1705.152542,510.001542 1706.818167,510.778833 1708.172875,511.600542 1709.216667,512.466667 1709.216667,512.466667 1710.815667,514.465417 1712.059333,516.908333 1712.947667,519.795417 1713.480667,523.126667 1713.658333,526.902083 1713.480667,531.121667 1712.947667,535.785417 1712.547917,538.283854 1712.059333,540.893333 1711.481917,543.613854 1710.815667,546.445417 1710.060583,549.388021 1709.216667,552.441667 1709.216667,552.441667 1708.328333,555.484208 1707.440000,558.393500 1706.551667,561.169542 1705.663333,563.812333 1704.775000,566.321875 1703.886667,568.698167 1702.998333,570.941208 1702.110000,573.051000 1701.221667,575.027542 1700.333333,576.870833 1699.445000,578.580875 1698.556667,580.157667 1697.668333,581.601208 1696.780000,582.911500 1695.891667,584.088542 1695.003333,585.132333 1694.115000,586.042875 1693.226667,586.820167 1692.338333,587.464208 1691.450000,587.975000 1691.450000,587.975000 1689.229167,588.818917 1686.120000,589.574000 1682.122500,590.240250 1677.236667,590.817667 1674.460625,591.073062 1671.462500,591.306250 1668.242292,591.517229 1664.800000,591.706000 1661.135625,591.872562 1657.249167,592.016917 1653.140625,592.139062 1648.810000,592.239000 1644.257292,592.316729 1639.482500,592.372250 1634.485625,592.405562 1629.266667,592.416667 1629.266667,592.416667 1624.047708,592.405562 1619.050833,592.372250 1614.276042,592.316729 1609.723333,592.239000 1605.392708,592.139063 1601.284167,592.016917 1597.397708,591.872562 1593.733333,591.706000 1590.291042,591.517229 1587.070833,591.306250 1584.072708,591.073062 1581.296667,590.817667 1578.742708,590.540062 1576.410833,590.240250 1574.301042,589.918229 1572.413333,589.574000 1570.747708,589.207562 1569.304167,588.818917 1568.082708,588.408062 1567.083333,587.975000 1567.083333,587.975000 1565.306667,586.820167 1563.530000,585.132333 1561.753333,582.911500 1559.976667,580.157667 1558.200000,576.870833 1556.423333,573.051000 1554.646667,568.698167 1553.758333,566.321875 1552.870000,563.812333 1551.981667,561.169542 1551.093333,558.393500 1550.205000,555.484208 1549.316667,552.441667 1549.316667,552.441667 1548.472750,549.388021 1547.717667,546.445417 1547.051417,543.613854 1546.474000,540.893333 1545.985417,538.283854 1545.585667,535.785417 1545.274750,533.398021 1545.052667,531.121667 1544.919417,528.956354 1544.875000,526.902083 1544.919417,524.958854 1545.052667,523.126667 1545.274750,521.405521 1545.585667,519.795417 1545.985417,518.296354 1546.474000,516.908333 1547.051417,515.631354 1547.717667,514.465417 1548.472750,513.410521 1549.316667,512.466667 1549.316667,512.466667 1551.715167,510.778833 1555.357333,509.268667 1557.644792,508.580208 1560.243167,507.936167 1563.152458,507.336542 1566.372667,506.781333 1569.903792,506.270542 1573.745833,505.804167 1577.898792,505.382208 1582.362667,505.004667 1587.137458,504.671542 1592.223167,504.382833 1597.619792,504.138542 1603.327333,503.938667 1609.345792,503.783208 1615.675167,503.672167 1622.315458,503.605542 1629.266667,503.583333"/>
	<ellipse fill="none" stroke="rgb(0,0,0)" stroke-opacity="1" cx="1575.97" cy="530.233" rx="4.44167" ry="4.44167"/>
	<ellipse fill="none" stroke="rgb(0,0,0)" stroke-opacity="1" cx="1629.27" cy="530.233" rx="4.44167" ry="4.44167"/>
	<ellipse fill="none" stroke="rgb(0,0,0)" stroke-opacity="1" cx="1682.57" cy="530.233" rx="4.44167" ry="4.44167"/>
	<ellipse fill="none" stroke="rgb(0,0,0)" stroke-opacity="1" cx="1602.62" cy="565.767" rx="4.44167" ry="4.44167"/>
	<ellipse fill="none" stroke="rgb(0,0,0)" stroke-opacity="1" cx="1655.92" cy="565.767" rx="4.44167" ry="4.44167"/>
	<text fill="rgb(0,0,0)" font-size="53" font-family="helvetica" text-anchor="middle" dominant-baseline="central" x="1629.27" y="450.283">bus</text>
	<polygon fill="rgb(255,255,255)" stroke="rgb(0,0,127)" stroke-opacity="1" points="634.333333,805.616667 652.100000,814.500000 634.333333,823.383333 634.333333,805.616667"/>
	<polygon fill="rgb(255,204,51)" stroke="rgb(0,0,0)" stroke-opacity="1" points="954.133333,525.791667 957.608937,525.802771 960.929083,525.836083 964.093771,525.891604 967.103000,525.969333 969.956771,526.069271 972.655083,526.191417 975.197937,526.335771 977.585333,526.502333 979.817271,526.691104 981.893750,526.902083 983.814771,527.135271 985.580333,527.390667 987.190438,527.668271 988.645083,527.968083 989.944271,528.290104 991.088000,528.634333 992.076271,529.000771 992.909083,529.389417 993.586437,529.800271 994.108333,530.233333 994.108333,530.233333 994.907833,531.232708 995.529667,532.454167 995.973833,533.897708 996.240333,535.563333 996.329167,537.451042 996.240333,539.560833 995.973833,541.892708 995.529667,544.446667 994.907833,547.222708 994.108333,550.220833 994.108333,550.220833 994.108333,550.220833 993.220000,553.196750 992.331667,555.906167 991.443333,558.349083 990.555000,560.525500 989.666667,562.435417 988.778333,564.078833 987.890000,565.455750 987.001667,566.566167 986.113333,567.410083 985.225000,567.987500 985.225000,567.987500 985.225000,567.987500 984.114583,568.409458 982.560000,568.787000 980.561250,569.120125 978.118333,569.408833 975.231250,569.653125 971.900000,569.853000 968.124583,570.008458 963.905000,570.119500 959.241250,570.186125 956.742813,570.202781 954.133333,570.208333 954.133333,570.208333 954.133333,570.208333 951.523854,570.202781 949.025417,570.186125 946.638021,570.158365 944.361667,570.119500 942.196354,570.069531 940.142083,570.008458 938.198854,569.936281 936.366667,569.853000 934.645521,569.758615 933.035417,569.653125 931.536354,569.536531 930.148333,569.408833 928.871354,569.270031 927.705417,569.120125 926.650521,568.959115 925.706667,568.787000 924.873854,568.603781 924.152083,568.409458 923.541354,568.204031 923.041667,567.987500 923.041667,567.987500 922.153333,567.410083 921.265000,566.566167 920.376667,565.455750 919.488333,564.078833 918.600000,562.435417 917.711667,560.525500 916.823333,558.349083 915.935000,555.906167 915.046667,553.196750 914.158333,550.220833 914.158333,550.220833 914.158333,550.220833 913.358833,547.222708 912.737000,544.446667 912.292833,541.892708 912.026333,539.560833 911.937500,537.451042 912.026333,535.563333 912.292833,533.897708 912.737000,532.454167 913.358833,531.232708 914.158333,530.233333 914.158333,530.233333 914.158333,530.233333 915.357583,529.389417 917.178667,528.634333 919.621583,527.968083 922.686333,527.390667 926.372917,526.902083 930.681333,526.502333 935.611583,526.191417 938.309896,526.069271 941.163667,525.969333 944.172896,525.891604 947.337583,525.836083 950.657729,525.802771 954.133333,525.791667"/>
	<ellipse fill="rgb(0,0,0)" stroke="rgb(0,0,0)" stroke-opacity="1" cx="936.367" cy="539.117" rx="2.22083" ry="2.22083"/>
	<ellipse fill="rgb(0,0,0)" stroke="rgb(0,0,0)" stroke-opacity="1" cx="971.9" cy="539.117" rx="2.22083" ry="2.22083"/>
	<ellipse fill="rgb(0,0,0)" stroke="rgb(0,0,0)" stroke-opacity="1" cx="954.133" cy="556.883" rx="2.22083" ry="2.22083"/>
	<text fill="rgb(0,0,0)" font-size="27" font-family="helvetica" text-anchor="middle" dominant-baseline="central" x="954.133" y="499.142">subBus</text>
	<polygon fill="rgb(255,255,255)" stroke="rgb(0,0,127)" stroke-opacity="1" points="634.333333,272.616667 652.100000,281.500000 634.333333,290.383333 634.333333,272.616667"/>
</svg>
