<?xml version="1.0" standalone="no"?>
<!DOCTYPE svg PUBLIC "-//W3C//DTD SVG 1.1//EN" "http://www.w3.org/Graphics/SVG/1.1/DTD/svg11.dtd">
<svg viewBox="0 0 1495.000000 688.000000" version="1.1" xmlns="http://www.w3.org/2000/svg" xmlns:xlink="http://www.w3.org/1999/xlink">
	<text fill="rgb(28,108,200)" font-size="47" font-family="helvetica" text-anchor="start" dominant-baseline="central" x="45.6333" y="-464.4">
		<tspan x="45.6333" dy="0">Bug Dymola</tspan>
		<tspan x="45.6333" dy="47"></tspan>
		<tspan x="45.6333" dy="47">Unmatched dimension in connect(ahuBus.ahuTer, dummyTerminal.terBus);</tspan>
		<tspan x="45.6333" dy="47"></tspan>
		<tspan x="45.6333" dy="47">The first argument, ahuBus.ahuTer, is a connector with 1 dimensions</tspan>
		<tspan x="45.6333" dy="47">and the second, dummyTerminal.terBus, is a connector with 2 dimensions.</tspan>
		<tspan x="45.6333" dy="47"></tspan>
		<tspan x="45.6333" dy="47"></tspan>
		<tspan x="45.6333" dy="47">Bug in OCT, similar as before:</tspan>
		<tspan x="45.6333" dy="47">Error at line 296, column 5, in file '/opt/oct/ThirdParty/MSL/Modelica/Blocks/Interfaces.mo':</tspan>
		<tspan x="45.6333" dy="47">  Cannot find class declaration for RealInput</tspan>
		<tspan x="45.6333" dy="47"></tspan>
		<tspan x="45.6333" dy="47"></tspan>
	</text>
	<rect fill="rgb(255,255,255)" stroke="rgb(0,0,127)" stroke-opacity="1" x="966.833" y="124.667" width="219.333" height="219.333"/>
	<text fill="rgb(0,0,255)" font-size="44" font-family="helvetica" text-anchor="middle" dominant-baseline="central" x="1076.5" y="91.7667">dummyTerminal[]</text>
	<rect fill="rgb(255,255,255)" stroke="rgb(0,0,127)" stroke-opacity="1" x="966.833" y="124.667" width="219.333" height="219.333"/>
	<text fill="rgb(0,0,255)" font-size="44" font-family="helvetica" text-anchor="middle" dominant-baseline="central" x="1076.5" y="91.7667">dummyTerminal[]</text>
	<rect fill="rgb(255,255,255)" stroke="rgb(0,0,127)" stroke-opacity="1" x="308.833" y="124.667" width="219.333" height="219.333"/>
	<text fill="rgb(0,0,255)" font-size="44" font-family="helvetica" text-anchor="middle" dominant-baseline="central" x="418.5" y="91.7667">dummyCentral[]</text>
	<rect fill="rgb(255,255,255)" stroke="rgb(0,0,127)" stroke-opacity="1" x="308.833" y="124.667" width="219.333" height="219.333"/>
	<text fill="rgb(0,0,255)" font-size="44" font-family="helvetica" text-anchor="middle" dominant-baseline="central" x="418.5" y="91.7667">dummyCentral[]</text>
	<polyline fill="none" stroke="rgb(255,255,255)" stroke-width="6" stroke-opacity="1" points="748.596667,452.570000 1120.366667,452.570000 1120.366667,234.333333"/>
	<polyline fill="none" stroke="rgb(255,204,51)" stroke-width="2" stroke-opacity="1" points="748.596667,452.570000 1120.366667,452.570000 1120.366667,234.333333"/>
	<text fill="rgb(0,0,0)" font-size="10" font-family="helvetica" text-anchor="end" dominant-baseline="central" x="1087.47" y="300.133">ahuTer</text>
	<polyline fill="none" stroke="rgb(255,255,255)" stroke-width="6" stroke-opacity="1" points="462.366667,235.430000 462.366667,453.666667 747.500000,453.666667"/>
	<polyline fill="none" stroke="rgb(255,204,51)" stroke-width="2" stroke-opacity="1" points="462.366667,235.430000 462.366667,453.666667 747.500000,453.666667"/>
	<text fill="rgb(0,0,0)" font-size="10" font-family="helvetica" text-anchor="end" dominant-baseline="central" x="429.467" y="301.23">ahuBus</text>
	<rect fill="none" stroke="rgb(255,204,51)" stroke-width="2" stroke-opacity="1" x="1115.98" y="233.895" width="8.77333" height="0.877333"/>
	<polygon fill="rgb(255,215,136)" stroke="rgb(0,0,0)" stroke-opacity="1" points="1120.366667,223.366667 1123.722467,223.388600 1126.771200,223.454400 1129.512867,223.564067 1131.947467,223.717600 1134.075000,223.915000 1135.895467,224.156267 1137.408867,224.441400 1138.615200,224.770400 1139.514467,225.143267 1140.106667,225.560000 1140.106667,225.560000 1140.106667,225.560000 1140.501467,226.053500 1140.808533,226.656667 1141.027867,227.369500 1141.159467,228.192000 1141.203333,229.124167 1141.159467,230.166000 1141.027867,231.317500 1140.808533,232.578667 1140.501467,233.949500 1140.106667,235.430000 1140.106667,235.430000 1140.106667,235.430000 1139.668000,236.899533 1139.229333,238.237467 1138.790667,239.443800 1138.352000,240.518533 1137.913333,241.461667 1137.474667,242.273200 1137.036000,242.953133 1136.597333,243.501467 1136.158667,243.918200 1135.720000,244.203333 1135.720000,244.203333 1135.720000,244.203333 1135.171667,244.411700 1134.404000,244.598133 1133.417000,244.762633 1132.210667,244.905200 1130.785000,245.025833 1129.140000,245.124533 1127.275667,245.201300 1125.192000,245.256133 1122.889000,245.289033 1120.366667,245.300000 1120.366667,245.300000 1120.366667,245.300000 1117.844333,245.289033 1115.541333,245.256133 1113.457667,245.201300 1111.593333,245.124533 1109.948333,245.025833 1108.522667,244.905200 1107.316333,244.762633 1106.329333,244.598133 1105.561667,244.411700 1105.013333,244.203333 1105.013333,244.203333 1105.013333,244.203333 1104.574667,243.918200 1104.136000,243.501467 1103.697333,242.953133 1103.258667,242.273200 1102.820000,241.461667 1102.381333,240.518533 1101.942667,239.443800 1101.504000,238.237467 1101.065333,236.899533 1100.626667,235.430000 1100.626667,235.430000 1100.626667,235.430000 1100.231867,233.949500 1099.924800,232.578667 1099.705467,231.317500 1099.573867,230.166000 1099.530000,229.124167 1099.573867,228.192000 1099.705467,227.369500 1099.924800,226.656667 1100.231867,226.053500 1100.626667,225.560000 1100.626667,225.560000 1100.626667,225.560000 1101.218867,225.143267 1102.118133,224.770400 1103.324467,224.441400 1104.837867,224.156267 1106.658333,223.915000 1108.785867,223.717600 1111.220467,223.564067 1113.962133,223.454400 1117.010867,223.388600 1120.366667,223.366667 1120.366667,223.366667"/>
	<ellipse fill="none" stroke="rgb(0,0,0)" stroke-opacity="1" cx="1107.21" cy="229.947" rx="1.09667" ry="1.09667"/>
	<ellipse fill="none" stroke="rgb(0,0,0)" stroke-opacity="1" cx="1120.37" cy="229.947" rx="1.09667" ry="1.09667"/>
	<ellipse fill="none" stroke="rgb(0,0,0)" stroke-opacity="1" cx="1133.53" cy="229.947" rx="1.09667" ry="1.09667"/>
	<ellipse fill="none" stroke="rgb(0,0,0)" stroke-opacity="1" cx="1113.79" cy="238.72" rx="1.09667" ry="1.09667"/>
	<ellipse fill="none" stroke="rgb(0,0,0)" stroke-opacity="1" cx="1126.95" cy="238.72" rx="1.09667" ry="1.09667"/>
	<rect fill="none" stroke="rgb(255,204,51)" stroke-width="2" stroke-opacity="1" x="1115.98" y="233.895" width="8.77333" height="0.877333"/>
	<polygon fill="rgb(255,215,136)" stroke="rgb(0,0,0)" stroke-opacity="1" points="1120.366667,223.366667 1123.722467,223.388600 1126.771200,223.454400 1129.512867,223.564067 1131.947467,223.717600 1134.075000,223.915000 1135.895467,224.156267 1137.408867,224.441400 1138.615200,224.770400 1139.514467,225.143267 1140.106667,225.560000 1140.106667,225.560000 1140.106667,225.560000 1140.501467,226.053500 1140.808533,226.656667 1141.027867,227.369500 1141.159467,228.192000 1141.203333,229.124167 1141.159467,230.166000 1141.027867,231.317500 1140.808533,232.578667 1140.501467,233.949500 1140.106667,235.430000 1140.106667,235.430000 1140.106667,235.430000 1139.668000,236.899533 1139.229333,238.237467 1138.790667,239.443800 1138.352000,240.518533 1137.913333,241.461667 1137.474667,242.273200 1137.036000,242.953133 1136.597333,243.501467 1136.158667,243.918200 1135.720000,244.203333 1135.720000,244.203333 1135.720000,244.203333 1135.171667,244.411700 1134.404000,244.598133 1133.417000,244.762633 1132.210667,244.905200 1130.785000,245.025833 1129.140000,245.124533 1127.275667,245.201300 1125.192000,245.256133 1122.889000,245.289033 1120.366667,245.300000 1120.366667,245.300000 1120.366667,245.300000 1117.844333,245.289033 1115.541333,245.256133 1113.457667,245.201300 1111.593333,245.124533 1109.948333,245.025833 1108.522667,244.905200 1107.316333,244.762633 1106.329333,244.598133 1105.561667,244.411700 1105.013333,244.203333 1105.013333,244.203333 1105.013333,244.203333 1104.574667,243.918200 1104.136000,243.501467 1103.697333,242.953133 1103.258667,242.273200 1102.820000,241.461667 1102.381333,240.518533 1101.942667,239.443800 1101.504000,238.237467 1101.065333,236.899533 1100.626667,235.430000 1100.626667,235.430000 1100.626667,235.430000 1100.231867,233.949500 1099.924800,232.578667 1099.705467,231.317500 1099.573867,230.166000 1099.530000,229.124167 1099.573867,228.192000 1099.705467,227.369500 1099.924800,226.656667 1100.231867,226.053500 1100.626667,225.560000 1100.626667,225.560000 1100.626667,225.560000 1101.218867,225.143267 1102.118133,224.770400 1103.324467,224.441400 1104.837867,224.156267 1106.658333,223.915000 1108.785867,223.717600 1111.220467,223.564067 1113.962133,223.454400 1117.010867,223.388600 1120.366667,223.366667 1120.366667,223.366667"/>
	<ellipse fill="none" stroke="rgb(0,0,0)" stroke-opacity="1" cx="1107.21" cy="229.947" rx="1.09667" ry="1.09667"/>
	<ellipse fill="none" stroke="rgb(0,0,0)" stroke-opacity="1" cx="1120.37" cy="229.947" rx="1.09667" ry="1.09667"/>
	<ellipse fill="none" stroke="rgb(0,0,0)" stroke-opacity="1" cx="1133.53" cy="229.947" rx="1.09667" ry="1.09667"/>
	<ellipse fill="none" stroke="rgb(0,0,0)" stroke-opacity="1" cx="1113.79" cy="238.72" rx="1.09667" ry="1.09667"/>
	<ellipse fill="none" stroke="rgb(0,0,0)" stroke-opacity="1" cx="1126.95" cy="238.72" rx="1.09667" ry="1.09667"/>
	<rect fill="none" stroke="rgb(255,204,51)" stroke-width="2" stroke-opacity="1" x="457.98" y="234.969" width="8.77333" height="0.9212"/>
	<polygon fill="rgb(255,215,136)" stroke="rgb(0,0,0)" stroke-opacity="1" points="462.366667,223.915000 465.722467,223.938030 468.771200,224.007120 471.512867,224.122270 473.947467,224.283480 476.075000,224.490750 477.895467,224.744080 479.408867,225.043470 480.615200,225.388920 481.514467,225.780430 482.106667,226.218000 482.106667,226.218000 482.106667,226.218000 482.501467,226.736175 482.808533,227.369500 483.027867,228.117975 483.159467,228.981600 483.203333,229.960375 483.159467,231.054300 483.027867,232.263375 482.808533,233.587600 482.501467,235.026975 482.106667,236.581500 482.106667,236.581500 482.106667,236.581500 481.668000,238.124510 481.229333,239.529340 480.790667,240.795990 480.352000,241.924460 479.913333,242.914750 479.474667,243.766860 479.036000,244.480790 478.597333,245.056540 478.158667,245.494110 477.720000,245.793500 477.720000,245.793500 477.720000,245.793500 477.171667,246.012285 476.404000,246.208040 475.417000,246.380765 474.210667,246.530460 472.785000,246.657125 471.140000,246.760760 469.275667,246.841365 467.192000,246.898940 464.889000,246.933485 462.366667,246.945000 462.366667,246.945000 462.366667,246.945000 459.844333,246.933485 457.541333,246.898940 455.457667,246.841365 453.593333,246.760760 451.948333,246.657125 450.522667,246.530460 449.316333,246.380765 448.329333,246.208040 447.561667,246.012285 447.013333,245.793500 447.013333,245.793500 447.013333,245.793500 446.574667,245.494110 446.136000,245.056540 445.697333,244.480790 445.258667,243.766860 444.820000,242.914750 444.381333,241.924460 443.942667,240.795990 443.504000,239.529340 443.065333,238.124510 442.626667,236.581500 442.626667,236.581500 442.626667,236.581500 442.231867,235.026975 441.924800,233.587600 441.705467,232.263375 441.573867,231.054300 441.530000,229.960375 441.573867,228.981600 441.705467,228.117975 441.924800,227.369500 442.231867,226.736175 442.626667,226.218000 442.626667,226.218000 442.626667,226.218000 443.218867,225.780430 444.118133,225.388920 445.324467,225.043470 446.837867,224.744080 448.658333,224.490750 450.785867,224.283480 453.220467,224.122270 455.962133,224.007120 459.010867,223.938030 462.366667,223.915000 462.366667,223.915000"/>
	<ellipse fill="none" stroke="rgb(0,0,0)" stroke-opacity="1" cx="449.207" cy="230.824" rx="1.09667" ry="1.1515"/>
	<ellipse fill="none" stroke="rgb(0,0,0)" stroke-opacity="1" cx="462.367" cy="230.824" rx="1.09667" ry="1.1515"/>
	<ellipse fill="none" stroke="rgb(0,0,0)" stroke-opacity="1" cx="475.527" cy="230.824" rx="1.09667" ry="1.1515"/>
	<ellipse fill="none" stroke="rgb(0,0,0)" stroke-opacity="1" cx="455.787" cy="240.036" rx="1.09667" ry="1.1515"/>
	<ellipse fill="none" stroke="rgb(0,0,0)" stroke-opacity="1" cx="468.947" cy="240.036" rx="1.09667" ry="1.1515"/>
	<rect fill="none" stroke="rgb(255,204,51)" stroke-width="2" stroke-opacity="1" x="457.98" y="234.969" width="9.212" height="0.9212"/>
	<rect fill="none" stroke="rgb(255,204,51)" stroke-width="2" stroke-opacity="1" x="457.98" y="234.969" width="8.77333" height="0.9212"/>
	<polygon fill="rgb(255,215,136)" stroke="rgb(0,0,0)" stroke-opacity="1" points="462.366667,223.915000 465.722467,223.938030 468.771200,224.007120 471.512867,224.122270 473.947467,224.283480 476.075000,224.490750 477.895467,224.744080 479.408867,225.043470 480.615200,225.388920 481.514467,225.780430 482.106667,226.218000 482.106667,226.218000 482.106667,226.218000 482.501467,226.736175 482.808533,227.369500 483.027867,228.117975 483.159467,228.981600 483.203333,229.960375 483.159467,231.054300 483.027867,232.263375 482.808533,233.587600 482.501467,235.026975 482.106667,236.581500 482.106667,236.581500 482.106667,236.581500 481.668000,238.124510 481.229333,239.529340 480.790667,240.795990 480.352000,241.924460 479.913333,242.914750 479.474667,243.766860 479.036000,244.480790 478.597333,245.056540 478.158667,245.494110 477.720000,245.793500 477.720000,245.793500 477.720000,245.793500 477.171667,246.012285 476.404000,246.208040 475.417000,246.380765 474.210667,246.530460 472.785000,246.657125 471.140000,246.760760 469.275667,246.841365 467.192000,246.898940 464.889000,246.933485 462.366667,246.945000 462.366667,246.945000 462.366667,246.945000 459.844333,246.933485 457.541333,246.898940 455.457667,246.841365 453.593333,246.760760 451.948333,246.657125 450.522667,246.530460 449.316333,246.380765 448.329333,246.208040 447.561667,246.012285 447.013333,245.793500 447.013333,245.793500 447.013333,245.793500 446.574667,245.494110 446.136000,245.056540 445.697333,244.480790 445.258667,243.766860 444.820000,242.914750 444.381333,241.924460 443.942667,240.795990 443.504000,239.529340 443.065333,238.124510 442.626667,236.581500 442.626667,236.581500 442.626667,236.581500 442.231867,235.026975 441.924800,233.587600 441.705467,232.263375 441.573867,231.054300 441.530000,229.960375 441.573867,228.981600 441.705467,228.117975 441.924800,227.369500 442.231867,226.736175 442.626667,226.218000 442.626667,226.218000 442.626667,226.218000 443.218867,225.780430 444.118133,225.388920 445.324467,225.043470 446.837867,224.744080 448.658333,224.490750 450.785867,224.283480 453.220467,224.122270 455.962133,224.007120 459.010867,223.938030 462.366667,223.915000 462.366667,223.915000"/>
	<ellipse fill="none" stroke="rgb(0,0,0)" stroke-opacity="1" cx="449.207" cy="230.824" rx="1.09667" ry="1.1515"/>
	<ellipse fill="none" stroke="rgb(0,0,0)" stroke-opacity="1" cx="462.367" cy="230.824" rx="1.09667" ry="1.1515"/>
	<ellipse fill="none" stroke="rgb(0,0,0)" stroke-opacity="1" cx="475.527" cy="230.824" rx="1.09667" ry="1.1515"/>
	<ellipse fill="none" stroke="rgb(0,0,0)" stroke-opacity="1" cx="455.787" cy="240.036" rx="1.09667" ry="1.1515"/>
	<ellipse fill="none" stroke="rgb(0,0,0)" stroke-opacity="1" cx="468.947" cy="240.036" rx="1.09667" ry="1.1515"/>
	<rect fill="none" stroke="rgb(255,204,51)" stroke-width="2" stroke-opacity="1" x="457.98" y="234.969" width="9.212" height="0.9212"/>
	<polygon fill="rgb(255,204,51)" stroke="rgb(0,0,0)" stroke-opacity="1" points="747.500000,398.833333 756.081417,398.860750 764.279000,398.943000 772.092750,399.080083 779.522667,399.272000 786.568750,399.518750 793.231000,399.820333 799.509417,400.176750 805.404000,400.588000 810.914750,401.054083 816.041667,401.575000 820.784750,402.150750 825.144000,402.781333 829.119417,403.466750 832.711000,404.207000 835.918750,405.002083 838.742667,405.852000 841.182750,406.756750 843.239000,407.716333 844.911417,408.730750 846.200000,409.800000 846.200000,409.800000 848.174000,412.267500 849.709333,415.283333 850.806000,418.847500 851.464000,422.960000 851.683333,427.620833 851.628500,430.156875 851.464000,432.830000 851.189833,435.640208 850.806000,438.587500 850.312500,441.671875 849.709333,444.893333 848.996500,448.251875 848.174000,451.747500 847.241833,455.380208 846.200000,459.150000 846.200000,459.150000 845.103333,462.906083 844.006667,466.497667 842.910000,469.924750 841.813333,473.187333 840.716667,476.285417 839.620000,479.219000 838.523333,481.988083 837.426667,484.592667 836.330000,487.032750 835.233333,489.308333 834.136667,491.419417 833.040000,493.366000 831.943333,495.148083 830.846667,496.765667 829.750000,498.218750 828.653333,499.507333 827.556667,500.631417 826.460000,501.591000 825.363333,502.386083 824.266667,503.016667 824.266667,503.016667 821.525000,504.058500 817.686667,504.990667 815.356250,505.415625 812.751667,505.813167 809.872917,506.183292 806.720000,506.526000 803.292917,506.841292 799.591667,507.129167 795.616250,507.389625 791.366667,507.622667 786.842917,507.828292 782.045000,508.006500 776.972917,508.157292 771.626667,508.280667 766.006250,508.376625 760.111667,508.445167 753.942917,508.486292 747.500000,508.500000 747.500000,508.500000 741.057083,508.486292 734.888333,508.445167 728.993750,508.376625 723.373333,508.280667 718.027083,508.157292 712.955000,508.006500 708.157083,507.828292 703.633333,507.622667 699.383750,507.389625 695.408333,507.129167 691.707083,506.841292 688.280000,506.526000 685.127083,506.183292 682.248333,505.813167 679.643750,505.415625 677.313333,504.990667 675.257083,504.538292 673.475000,504.058500 671.967083,503.551292 670.733333,503.016667 670.733333,503.016667 668.540000,501.591000 666.346667,499.507333 664.153333,496.765667 661.960000,493.366000 659.766667,489.308333 658.670000,487.032750 657.573333,484.592667 656.476667,481.988083 655.380000,479.219000 654.283333,476.285417 653.186667,473.187333 652.090000,469.924750 650.993333,466.497667 649.896667,462.906083 648.800000,459.150000 648.800000,459.150000 647.758167,455.380208 646.826000,451.747500 646.003500,448.251875 645.290667,444.893333 644.687500,441.671875 644.194000,438.587500 643.810167,435.640208 643.536000,432.830000 643.371500,430.156875 643.316667,427.620833 643.371500,425.221875 643.536000,422.960000 643.810167,420.835208 644.194000,418.847500 644.687500,416.996875 645.290667,415.283333 646.003500,413.706875 646.826000,412.267500 647.758167,410.965208 648.800000,409.800000 648.800000,409.800000 651.761000,407.716333 656.257333,405.852000 659.081250,405.002083 662.289000,404.207000 665.880583,403.466750 669.856000,402.781333 674.215250,402.150750 678.958333,401.575000 684.085250,401.054083 689.596000,400.588000 695.490583,400.176750 701.769000,399.820333 708.431250,399.518750 715.477333,399.272000 722.907250,399.080083 730.721000,398.943000 738.918583,398.860750 747.500000,398.833333"/>
	<ellipse fill="none" stroke="rgb(0,0,0)" stroke-opacity="1" cx="681.7" cy="431.733" rx="5.48333" ry="5.48333"/>
	<ellipse fill="none" stroke="rgb(0,0,0)" stroke-opacity="1" cx="747.5" cy="431.733" rx="5.48333" ry="5.48333"/>
	<ellipse fill="none" stroke="rgb(0,0,0)" stroke-opacity="1" cx="813.3" cy="431.733" rx="5.48333" ry="5.48333"/>
	<ellipse fill="none" stroke="rgb(0,0,0)" stroke-opacity="1" cx="714.6" cy="475.6" rx="5.48333" ry="5.48333"/>
	<ellipse fill="none" stroke="rgb(0,0,0)" stroke-opacity="1" cx="780.4" cy="475.6" rx="5.48333" ry="5.48333"/>
	<text fill="rgb(0,0,0)" font-size="66" font-family="helvetica" text-anchor="middle" dominant-baseline="central" x="747.5" y="333.033">ahuBus[]</text>
</svg>
